<?xml version="1.0" encoding="UTF-8" standalone="no"?>
<!DOCTYPE svg PUBLIC "-//W3C//DTD SVG 1.1//EN"
 "http://www.w3.org/Graphics/SVG/1.1/DTD/svg11.dtd">
<!-- Generated by graphviz version 2.42.4 (0)
 -->
<!-- Title: dependencies Pages: 1 -->
<svg width="593pt" height="723pt"
 viewBox="0.00 0.00 592.70 723.20" xmlns="http://www.w3.org/2000/svg" xmlns:xlink="http://www.w3.org/1999/xlink">
<g id="graph0" class="graph" transform="scale(1 1) rotate(0) translate(21.6 701.6)">
<title>dependencies</title>
<text text-anchor="middle" x="274.75" y="-7.2" font-family="sans-serif" font-size="11.00">Source imports — see independent statement review</text>
<!-- ComplexGaussianHermite -->
<g id="node1" class="node">
<title>ComplexGaussianHermite</title>
<path fill="#f8fafc" stroke="#64748b" d="M537.5,-680C537.5,-680 355.5,-680 355.5,-680 349.5,-680 343.5,-674 343.5,-668 343.5,-668 343.5,-648 343.5,-648 343.5,-642 349.5,-636 355.5,-636 355.5,-636 537.5,-636 537.5,-636 543.5,-636 549.5,-642 549.5,-648 549.5,-648 549.5,-668 549.5,-668 549.5,-674 543.5,-680 537.5,-680"/>
<text text-anchor="middle" x="446.5" y="-661.4" font-family="sans-serif" font-size="12.00">Complex Gaussian and Hermite</text>
<text text-anchor="middle" x="446.5" y="-648.4" font-family="sans-serif" font-size="12.00">analysis</text>
</g>
<!-- Endgame -->
<g id="node2" class="node">
<title>Endgame</title>
<path fill="#f8fafc" stroke="#64748b" d="M447,-600C447,-600 354,-600 354,-600 348,-600 342,-594 342,-588 342,-588 342,-576 342,-576 342,-570 348,-564 354,-564 354,-564 447,-564 447,-564 453,-564 459,-570 459,-576 459,-576 459,-588 459,-588 459,-594 453,-600 447,-600"/>
<text text-anchor="middle" x="400.5" y="-578.9" font-family="sans-serif" font-size="12.00">Paper assembly</text>
</g>
<!-- ComplexGaussianHermite&#45;&gt;Endgame -->
<!-- DeficitsEquality -->
<g id="node9" class="node">
<title>DeficitsEquality</title>
<path fill="#dbeafe" stroke="#2563eb" stroke-width="2" d="M417,-56C417,-56 248,-56 248,-56 242,-56 236,-50 236,-44 236,-44 236,-32 236,-32 236,-26 242,-20 248,-20 248,-20 417,-20 417,-20 423,-20 429,-26 429,-32 429,-32 429,-44 429,-44 429,-50 423,-56 417,-56"/>
<text text-anchor="middle" x="332.5" y="-34.9" font-family="sans-serif" font-size="12.00">Poincaré deficits and equality</text>
</g>
<!-- ComplexGaussianHermite&#45;&gt;DeficitsEquality -->
<g id="edge1" class="edge">
<title>ComplexGaussianHermite&#45;&gt;DeficitsEquality</title>
<path fill="none" stroke="#64748b" d="M457.64,-635.8C471.54,-607.32 493.5,-554.76 493.5,-507 493.5,-507 493.5,-507 493.5,-193 493.5,-140.56 470.6,-128.03 432.5,-92 418.38,-78.65 400.25,-67.71 383.32,-59.3"/>
<polygon fill="#64748b" stroke="#64748b" points="384.02,-56.92 376.65,-56.09 381.89,-61.34 384.02,-56.92"/>
</g>
<!-- GaussianLSI -->
<g id="node3" class="node">
<title>GaussianLSI</title>
<path fill="#f8fafc" stroke="#64748b" d="M401.5,-528C401.5,-528 251.5,-528 251.5,-528 245.5,-528 239.5,-522 239.5,-516 239.5,-516 239.5,-496 239.5,-496 239.5,-490 245.5,-484 251.5,-484 251.5,-484 401.5,-484 401.5,-484 407.5,-484 413.5,-490 413.5,-496 413.5,-496 413.5,-516 413.5,-516 413.5,-522 407.5,-528 401.5,-528"/>
<text text-anchor="middle" x="326.5" y="-509.4" font-family="sans-serif" font-size="12.00">Gaussian log&#45;Sobolev and</text>
<text text-anchor="middle" x="326.5" y="-496.4" font-family="sans-serif" font-size="12.00">entropy</text>
</g>
<!-- Endgame&#45;&gt;GaussianLSI -->
<!-- Endgame&#45;&gt;DeficitsEquality -->
<g id="edge2" class="edge">
<title>Endgame&#45;&gt;DeficitsEquality</title>
<path fill="none" stroke="#64748b" d="M409.34,-563.97C422.96,-536.11 447.5,-478.71 447.5,-427 447.5,-427 447.5,-427 447.5,-193 447.5,-136.54 397.26,-87.43 363.19,-60.63"/>
<polygon fill="#64748b" stroke="#64748b" points="364.49,-58.54 357.45,-56.2 361.5,-62.42 364.49,-58.54"/>
</g>
<!-- GeneratorSemigroup -->
<g id="node4" class="node">
<title>GeneratorSemigroup</title>
<path fill="#f8fafc" stroke="#64748b" d="M355.5,-448C355.5,-448 217.5,-448 217.5,-448 211.5,-448 205.5,-442 205.5,-436 205.5,-436 205.5,-416 205.5,-416 205.5,-410 211.5,-404 217.5,-404 217.5,-404 355.5,-404 355.5,-404 361.5,-404 367.5,-410 367.5,-416 367.5,-416 367.5,-436 367.5,-436 367.5,-442 361.5,-448 355.5,-448"/>
<text text-anchor="middle" x="286.5" y="-429.4" font-family="sans-serif" font-size="12.00">Diffusion operators and</text>
<text text-anchor="middle" x="286.5" y="-416.4" font-family="sans-serif" font-size="12.00">analytic semigroups</text>
</g>
<!-- GaussianLSI&#45;&gt;GeneratorSemigroup -->
<!-- GaussianLSI&#45;&gt;DeficitsEquality -->
<g id="edge3" class="edge">
<title>GaussianLSI&#45;&gt;DeficitsEquality</title>
<path fill="none" stroke="#64748b" d="M350.75,-483.8C360.73,-473.87 371.55,-461.3 378.5,-448 399.83,-407.2 401.5,-393.04 401.5,-347 401.5,-347 401.5,-347 401.5,-193 401.5,-142.95 370.77,-91.11 350.32,-62.17"/>
<polygon fill="#64748b" stroke="#64748b" points="352.21,-60.6 346.13,-56.35 348.23,-63.46 352.21,-60.6"/>
</g>
<!-- GinibreMeasureGeometry -->
<g id="node5" class="node">
<title>GinibreMeasureGeometry</title>
<path fill="#f8fafc" stroke="#64748b" d="M310,-368C310,-368 175,-368 175,-368 169,-368 163,-362 163,-356 163,-356 163,-336 163,-336 163,-330 169,-324 175,-324 175,-324 310,-324 310,-324 316,-324 322,-330 322,-336 322,-336 322,-356 322,-356 322,-362 316,-368 310,-368"/>
<text text-anchor="middle" x="242.5" y="-349.4" font-family="sans-serif" font-size="12.00">Ginibre measure and</text>
<text text-anchor="middle" x="242.5" y="-336.4" font-family="sans-serif" font-size="12.00">holomorphic geometry</text>
</g>
<!-- GeneratorSemigroup&#45;&gt;GinibreMeasureGeometry -->
<!-- GeneratorSemigroup&#45;&gt;DeficitsEquality -->
<g id="edge4" class="edge">
<title>GeneratorSemigroup&#45;&gt;DeficitsEquality</title>
<path fill="none" stroke="#64748b" d="M307.37,-403.86C316.3,-393.74 326.12,-381.02 332.5,-368 352.01,-328.22 355.5,-315.31 355.5,-271 355.5,-271 355.5,-271 355.5,-193 355.5,-146.9 345.29,-93.87 338.48,-63.61"/>
<polygon fill="#64748b" stroke="#64748b" points="340.78,-62.7 336.83,-56.43 336.01,-63.8 340.78,-62.7"/>
</g>
<!-- NonQuadratic -->
<g id="node6" class="node">
<title>NonQuadratic</title>
<path fill="#f8fafc" stroke="#64748b" d="M263,-288C263,-288 122,-288 122,-288 116,-288 110,-282 110,-276 110,-276 110,-264 110,-264 110,-258 116,-252 122,-252 122,-252 263,-252 263,-252 269,-252 275,-258 275,-264 275,-264 275,-276 275,-276 275,-282 269,-288 263,-288"/>
<text text-anchor="middle" x="192.5" y="-266.9" font-family="sans-serif" font-size="12.00">Nonquadratic potentials</text>
</g>
<!-- GinibreMeasureGeometry&#45;&gt;NonQuadratic -->
<!-- GinibreMeasureGeometry&#45;&gt;DeficitsEquality -->
<g id="edge5" class="edge">
<title>GinibreMeasureGeometry&#45;&gt;DeficitsEquality</title>
<path fill="none" stroke="#64748b" d="M262.24,-323.77C270.63,-313.64 279.78,-300.92 285.5,-288 319.72,-210.63 329.05,-109 331.57,-63.21"/>
<polygon fill="#64748b" stroke="#64748b" points="334.03,-63.21 331.94,-56.1 329.13,-62.96 334.03,-63.21"/>
</g>
<!-- PolynomialRadial -->
<g id="node7" class="node">
<title>PolynomialRadial</title>
<path fill="#f8fafc" stroke="#64748b" d="M217.5,-216C217.5,-216 89.5,-216 89.5,-216 83.5,-216 77.5,-210 77.5,-204 77.5,-204 77.5,-184 77.5,-184 77.5,-178 83.5,-172 89.5,-172 89.5,-172 217.5,-172 217.5,-172 223.5,-172 229.5,-178 229.5,-184 229.5,-184 229.5,-204 229.5,-204 229.5,-210 223.5,-216 217.5,-216"/>
<text text-anchor="middle" x="153.5" y="-197.4" font-family="sans-serif" font-size="12.00">Polynomial, radial and</text>
<text text-anchor="middle" x="153.5" y="-184.4" font-family="sans-serif" font-size="12.00">equilibrium sectors</text>
</g>
<!-- NonQuadratic&#45;&gt;PolynomialRadial -->
<!-- NonQuadratic&#45;&gt;DeficitsEquality -->
<g id="edge6" class="edge">
<title>NonQuadratic&#45;&gt;DeficitsEquality</title>
<path fill="none" stroke="#64748b" d="M211.04,-251.62C220.72,-241.83 232.24,-228.99 240.5,-216 272.57,-165.57 262.71,-143.81 292.5,-92 298.44,-81.67 306.1,-71.04 313.13,-62.04"/>
<polygon fill="#64748b" stroke="#64748b" points="315.19,-63.38 317.63,-56.38 311.36,-60.33 315.19,-63.38"/>
</g>
<!-- WeakSobolev -->
<g id="node8" class="node">
<title>WeakSobolev</title>
<path fill="#f8fafc" stroke="#64748b" d="M171,-136C171,-136 12,-136 12,-136 6,-136 0,-130 0,-124 0,-124 0,-104 0,-104 0,-98 6,-92 12,-92 12,-92 171,-92 171,-92 177,-92 183,-98 183,-104 183,-104 183,-124 183,-124 183,-130 177,-136 171,-136"/>
<text text-anchor="middle" x="91.5" y="-117.4" font-family="sans-serif" font-size="12.00">Weak Sobolev domains and</text>
<text text-anchor="middle" x="91.5" y="-104.4" font-family="sans-serif" font-size="12.00">collision capacity</text>
</g>
<!-- PolynomialRadial&#45;&gt;WeakSobolev -->
<!-- PolynomialRadial&#45;&gt;DeficitsEquality -->
<g id="edge7" class="edge">
<title>PolynomialRadial&#45;&gt;DeficitsEquality</title>
<path fill="none" stroke="#64748b" d="M170.18,-171.68C187.74,-150.07 216.89,-116.41 246.5,-92 260.95,-80.09 278.3,-68.9 293.62,-59.89"/>
<polygon fill="#64748b" stroke="#64748b" points="295.22,-61.8 300.05,-56.17 292.76,-57.56 295.22,-61.8"/>
</g>
<!-- WeakSobolev&#45;&gt;DeficitsEquality -->
<g id="edge8" class="edge">
<title>WeakSobolev&#45;&gt;DeficitsEquality</title>
<path fill="none" stroke="#64748b" d="M159.92,-91.99C194.47,-81.38 236.11,-68.6 269.83,-58.24"/>
<polygon fill="#64748b" stroke="#64748b" points="270.93,-60.47 276.9,-56.07 269.49,-55.79 270.93,-60.47"/>
</g>
</g>
</svg>
