<?xml version="1.0" encoding="UTF-8" standalone="no"?>
<!DOCTYPE svg PUBLIC "-//W3C//DTD SVG 1.1//EN"
 "http://www.w3.org/Graphics/SVG/1.1/DTD/svg11.dtd">
<!-- Generated by graphviz version 2.42.4 (0)
 -->
<!-- Title: formal_dependencies Pages: 1 -->
<svg width="595pt" height="719pt"
 viewBox="0.00 0.00 594.70 719.20" xmlns="http://www.w3.org/2000/svg" xmlns:xlink="http://www.w3.org/1999/xlink">
<g id="graph0" class="graph" transform="scale(1 1) rotate(0) translate(21.6 697.6)">
<title>formal_dependencies</title>
<polygon fill="white" stroke="transparent" points="-21.6,21.6 -21.6,-697.6 573.1,-697.6 573.1,21.6 -21.6,21.6"/>
<text text-anchor="middle" x="275.75" y="-660.8" font-family="sans-serif" font-size="14.00">Exact direct local declaration references</text>
<text text-anchor="middle" x="275.75" y="-645.8" font-family="sans-serif" font-size="14.00">Compiled references; statement review recorded separately</text>
<!-- GinibrePoincare.Configuration -->
<g id="node1" class="node">
<title>GinibrePoincare.Configuration</title>
<path fill="#f8fafc" stroke="#64748b" d="M495.5,-638C495.5,-638 431.5,-638 431.5,-638 425.5,-638 419.5,-632 419.5,-626 419.5,-626 419.5,-614 419.5,-614 419.5,-608 425.5,-602 431.5,-602 431.5,-602 495.5,-602 495.5,-602 501.5,-602 507.5,-608 507.5,-614 507.5,-614 507.5,-626 507.5,-626 507.5,-632 501.5,-638 495.5,-638"/>
<text text-anchor="middle" x="463.5" y="-617.2" font-family="sans-serif" font-size="11.00">Configuration</text>
</g>
<!-- GinibrePoincare.GaussianNumberBochnerData -->
<g id="node2" class="node">
<title>GinibrePoincare.GaussianNumberBochnerData</title>
<path fill="#f8fafc" stroke="#64748b" d="M481.5,-552C481.5,-552 331.5,-552 331.5,-552 325.5,-552 319.5,-546 319.5,-540 319.5,-540 319.5,-528 319.5,-528 319.5,-522 325.5,-516 331.5,-516 331.5,-516 481.5,-516 481.5,-516 487.5,-516 493.5,-522 493.5,-528 493.5,-528 493.5,-540 493.5,-540 493.5,-546 487.5,-552 481.5,-552"/>
<text text-anchor="middle" x="406.5" y="-531.2" font-family="sans-serif" font-size="11.00">GaussianNumberBochnerData</text>
</g>
<!-- GinibrePoincare.Configuration&#45;&gt;GinibrePoincare.GaussianNumberBochnerData -->
<!-- GinibrePoincare.correspondenceOperatorNumber_has_bochner_data -->
<g id="node8" class="node">
<title>GinibrePoincare.correspondenceOperatorNumber_has_bochner_data</title>
<path fill="#dbeafe" stroke="#2563eb" stroke-width="2" d="M539.5,-36C539.5,-36 275.5,-36 275.5,-36 269.5,-36 263.5,-30 263.5,-24 263.5,-24 263.5,-12 263.5,-12 263.5,-6 269.5,0 275.5,0 275.5,0 539.5,0 539.5,0 545.5,0 551.5,-6 551.5,-12 551.5,-12 551.5,-24 551.5,-24 551.5,-30 545.5,-36 539.5,-36"/>
<text text-anchor="middle" x="407.5" y="-15.2" font-family="sans-serif" font-size="11.00">correspondenceOperatorNumber_has_bochner_data</text>
</g>
<!-- GinibrePoincare.Configuration&#45;&gt;GinibrePoincare.correspondenceOperatorNumber_has_bochner_data -->
<g id="edge1" class="edge">
<title>GinibrePoincare.Configuration&#45;&gt;GinibrePoincare.correspondenceOperatorNumber_has_bochner_data</title>
<g id="a_edge1"><a xlink:title="both">
<path fill="none" stroke="#7e22ce" d="M475.68,-601.91C484.43,-588.84 495.81,-570.05 502.5,-552 518.67,-508.35 521.5,-495.55 521.5,-449 521.5,-449 521.5,-449 521.5,-189 521.5,-127.02 468.59,-70.59 434.86,-40.91"/>
<polygon fill="#7e22ce" stroke="#7e22ce" points="436.11,-38.75 429.21,-36.03 432.91,-42.46 436.11,-38.75"/>
</a>
</g>
</g>
<!-- GinibrePoincare.GaussianNumberBochnerData.mk -->
<g id="node3" class="node">
<title>GinibrePoincare.GaussianNumberBochnerData.mk</title>
<path fill="#f8fafc" stroke="#64748b" d="M443.5,-466C443.5,-466 273.5,-466 273.5,-466 267.5,-466 261.5,-460 261.5,-454 261.5,-454 261.5,-442 261.5,-442 261.5,-436 267.5,-430 273.5,-430 273.5,-430 443.5,-430 443.5,-430 449.5,-430 455.5,-436 455.5,-442 455.5,-442 455.5,-454 455.5,-454 455.5,-460 449.5,-466 443.5,-466"/>
<text text-anchor="middle" x="358.5" y="-445.2" font-family="sans-serif" font-size="11.00">GaussianNumberBochnerData.mk</text>
</g>
<!-- GinibrePoincare.GaussianNumberBochnerData&#45;&gt;GinibrePoincare.GaussianNumberBochnerData.mk -->
<!-- GinibrePoincare.GaussianNumberBochnerData&#45;&gt;GinibrePoincare.correspondenceOperatorNumber_has_bochner_data -->
<g id="edge2" class="edge">
<title>GinibrePoincare.GaussianNumberBochnerData&#45;&gt;GinibrePoincare.correspondenceOperatorNumber_has_bochner_data</title>
<g id="a_edge2"><a xlink:title="both">
<path fill="none" stroke="#7e22ce" d="M425.97,-515.89C438.93,-503.37 455.24,-485.27 464.5,-466 484.66,-424.04 483.5,-409.55 483.5,-363 483.5,-363 483.5,-363 483.5,-189 483.5,-132.32 447.86,-73.55 425.39,-42.13"/>
<polygon fill="#7e22ce" stroke="#7e22ce" points="427.19,-40.43 421.09,-36.22 423.23,-43.32 427.19,-40.43"/>
</a>
</g>
</g>
<!-- GinibrePoincare.IsGaussianWeakDbar -->
<g id="node4" class="node">
<title>GinibrePoincare.IsGaussianWeakDbar</title>
<path fill="#f8fafc" stroke="#64748b" d="M405.5,-380C405.5,-380 303.5,-380 303.5,-380 297.5,-380 291.5,-374 291.5,-368 291.5,-368 291.5,-356 291.5,-356 291.5,-350 297.5,-344 303.5,-344 303.5,-344 405.5,-344 405.5,-344 411.5,-344 417.5,-350 417.5,-356 417.5,-356 417.5,-368 417.5,-368 417.5,-374 411.5,-380 405.5,-380"/>
<text text-anchor="middle" x="354.5" y="-359.2" font-family="sans-serif" font-size="11.00">IsGaussianWeakDbar</text>
</g>
<!-- GinibrePoincare.GaussianNumberBochnerData.mk&#45;&gt;GinibrePoincare.IsGaussianWeakDbar -->
<!-- GinibrePoincare.GaussianNumberBochnerData.mk&#45;&gt;GinibrePoincare.correspondenceOperatorNumber_has_bochner_data -->
<g id="edge3" class="edge">
<title>GinibrePoincare.GaussianNumberBochnerData.mk&#45;&gt;GinibrePoincare.correspondenceOperatorNumber_has_bochner_data</title>
<g id="a_edge3"><a xlink:title="value">
<path fill="none" stroke="#2563eb" d="M382.36,-429.76C397.41,-417.58 415.94,-399.91 426.5,-380 448.31,-338.88 445.5,-323.55 445.5,-277 445.5,-277 445.5,-277 445.5,-189 445.5,-135.86 427.6,-75.58 416.37,-43"/>
<polygon fill="#2563eb" stroke="#2563eb" points="418.58,-41.89 413.95,-36.09 413.95,-43.51 418.58,-41.89"/>
</a>
</g>
</g>
<!-- GinibrePoincare.complexGaussianMeasure -->
<g id="node5" class="node">
<title>GinibrePoincare.complexGaussianMeasure</title>
<path fill="#f8fafc" stroke="#64748b" d="M367.5,-294C367.5,-294 239.5,-294 239.5,-294 233.5,-294 227.5,-288 227.5,-282 227.5,-282 227.5,-270 227.5,-270 227.5,-264 233.5,-258 239.5,-258 239.5,-258 367.5,-258 367.5,-258 373.5,-258 379.5,-264 379.5,-270 379.5,-270 379.5,-282 379.5,-282 379.5,-288 373.5,-294 367.5,-294"/>
<text text-anchor="middle" x="303.5" y="-273.2" font-family="sans-serif" font-size="11.00">complexGaussianMeasure</text>
</g>
<!-- GinibrePoincare.IsGaussianWeakDbar&#45;&gt;GinibrePoincare.complexGaussianMeasure -->
<!-- GinibrePoincare.IsGaussianWeakDbar&#45;&gt;GinibrePoincare.correspondenceOperatorNumber_has_bochner_data -->
<g id="edge4" class="edge">
<title>GinibrePoincare.IsGaussianWeakDbar&#45;&gt;GinibrePoincare.correspondenceOperatorNumber_has_bochner_data</title>
<g id="a_edge4"><a xlink:title="value">
<path fill="none" stroke="#2563eb" d="M365.62,-343.87C373.51,-330.78 383.54,-311.98 388.5,-294 413.28,-204.23 411.36,-92.04 409.02,-43.38"/>
<polygon fill="#2563eb" stroke="#2563eb" points="411.45,-43 408.65,-36.13 406.56,-43.25 411.45,-43"/>
</a>
</g>
</g>
<!-- GinibrePoincare.correspondenceOperatorNumber -->
<g id="node6" class="node">
<title>GinibrePoincare.correspondenceOperatorNumber</title>
<path fill="#f8fafc" stroke="#64748b" d="M329,-208C329,-208 164,-208 164,-208 158,-208 152,-202 152,-196 152,-196 152,-184 152,-184 152,-178 158,-172 164,-172 164,-172 329,-172 329,-172 335,-172 341,-178 341,-184 341,-184 341,-196 341,-196 341,-202 335,-208 329,-208"/>
<text text-anchor="middle" x="246.5" y="-187.2" font-family="sans-serif" font-size="11.00">correspondenceOperatorNumber</text>
</g>
<!-- GinibrePoincare.complexGaussianMeasure&#45;&gt;GinibrePoincare.correspondenceOperatorNumber -->
<!-- GinibrePoincare.complexGaussianMeasure&#45;&gt;GinibrePoincare.correspondenceOperatorNumber_has_bochner_data -->
<g id="edge5" class="edge">
<title>GinibrePoincare.complexGaussianMeasure&#45;&gt;GinibrePoincare.correspondenceOperatorNumber_has_bochner_data</title>
<g id="a_edge5"><a xlink:title="both">
<path fill="none" stroke="#7e22ce" d="M317.35,-257.98C327.4,-244.95 340.73,-226.17 349.5,-208 376.71,-151.64 394.58,-79.68 402.62,-42.94"/>
<polygon fill="#7e22ce" stroke="#7e22ce" points="405.01,-43.43 404.09,-36.07 400.22,-42.4 405.01,-43.43"/>
</a>
</g>
</g>
<!-- GinibrePoincare.correspondenceOperatorNumber_full_bochner_kodaira -->
<g id="node7" class="node">
<title>GinibrePoincare.correspondenceOperatorNumber_full_bochner_kodaira</title>
<path fill="#f8fafc" stroke="#64748b" d="M291,-122C291,-122 12,-122 12,-122 6,-122 0,-116 0,-110 0,-110 0,-98 0,-98 0,-92 6,-86 12,-86 12,-86 291,-86 291,-86 297,-86 303,-92 303,-98 303,-98 303,-110 303,-110 303,-116 297,-122 291,-122"/>
<text text-anchor="middle" x="151.5" y="-101.2" font-family="sans-serif" font-size="11.00">correspondenceOperatorNumber_full_bochner_kodaira</text>
</g>
<!-- GinibrePoincare.correspondenceOperatorNumber&#45;&gt;GinibrePoincare.correspondenceOperatorNumber_full_bochner_kodaira -->
<!-- GinibrePoincare.correspondenceOperatorNumber&#45;&gt;GinibrePoincare.correspondenceOperatorNumber_has_bochner_data -->
<g id="edge6" class="edge">
<title>GinibrePoincare.correspondenceOperatorNumber&#45;&gt;GinibrePoincare.correspondenceOperatorNumber_has_bochner_data</title>
<g id="a_edge6"><a xlink:title="both">
<path fill="none" stroke="#7e22ce" d="M263.43,-171.74C276.6,-158.26 295.31,-139.03 311.5,-122 337.63,-94.52 367.35,-62.52 386.71,-41.57"/>
<polygon fill="#7e22ce" stroke="#7e22ce" points="388.69,-43.03 391.64,-36.23 385.09,-39.71 388.69,-43.03"/>
</a>
</g>
</g>
<!-- GinibrePoincare.correspondenceOperatorNumber_full_bochner_kodaira&#45;&gt;GinibrePoincare.correspondenceOperatorNumber_has_bochner_data -->
<g id="edge7" class="edge">
<title>GinibrePoincare.correspondenceOperatorNumber_full_bochner_kodaira&#45;&gt;GinibrePoincare.correspondenceOperatorNumber_has_bochner_data</title>
<g id="a_edge7"><a xlink:title="value">
<path fill="none" stroke="#2563eb" d="M203.61,-85.9C245.66,-72.1 304.81,-52.7 348.57,-38.34"/>
<polygon fill="#2563eb" stroke="#2563eb" points="349.57,-40.59 355.46,-36.08 348.04,-35.93 349.57,-40.59"/>
</a>
</g>
</g>
</g>
</svg>
