<?xml version="1.0" encoding="UTF-8" standalone="no"?>
<!DOCTYPE svg PUBLIC "-//W3C//DTD SVG 1.1//EN"
 "http://www.w3.org/Graphics/SVG/1.1/DTD/svg11.dtd">
<!-- Generated by graphviz version 2.42.4 (0)
 -->
<!-- Title: formal_dependencies Pages: 1 -->
<svg width="775pt" height="1235pt"
 viewBox="0.00 0.00 774.70 1235.20" xmlns="http://www.w3.org/2000/svg" xmlns:xlink="http://www.w3.org/1999/xlink">
<g id="graph0" class="graph" transform="scale(1 1) rotate(0) translate(21.6 1213.6)">
<title>formal_dependencies</title>
<polygon fill="white" stroke="transparent" points="-21.6,21.6 -21.6,-1213.6 753.1,-1213.6 753.1,21.6 -21.6,21.6"/>
<text text-anchor="middle" x="365.75" y="-1176.8" font-family="sans-serif" font-size="14.00">Exact direct local declaration references</text>
<text text-anchor="middle" x="365.75" y="-1161.8" font-family="sans-serif" font-size="14.00">Compiled references; statement review recorded separately</text>
<!-- GinibrePoincare.Configuration -->
<g id="node1" class="node">
<title>GinibrePoincare.Configuration</title>
<path fill="#f8fafc" stroke="#64748b" d="M711.5,-1154C711.5,-1154 647.5,-1154 647.5,-1154 641.5,-1154 635.5,-1148 635.5,-1142 635.5,-1142 635.5,-1130 635.5,-1130 635.5,-1124 641.5,-1118 647.5,-1118 647.5,-1118 711.5,-1118 711.5,-1118 717.5,-1118 723.5,-1124 723.5,-1130 723.5,-1130 723.5,-1142 723.5,-1142 723.5,-1148 717.5,-1154 711.5,-1154"/>
<text text-anchor="middle" x="679.5" y="-1133.2" font-family="sans-serif" font-size="11.00">Configuration</text>
</g>
<!-- GinibrePoincare.complexGaussianMeasure -->
<g id="node2" class="node">
<title>GinibrePoincare.complexGaussianMeasure</title>
<path fill="#f8fafc" stroke="#64748b" d="M691.5,-1068C691.5,-1068 563.5,-1068 563.5,-1068 557.5,-1068 551.5,-1062 551.5,-1056 551.5,-1056 551.5,-1044 551.5,-1044 551.5,-1038 557.5,-1032 563.5,-1032 563.5,-1032 691.5,-1032 691.5,-1032 697.5,-1032 703.5,-1038 703.5,-1044 703.5,-1044 703.5,-1056 703.5,-1056 703.5,-1062 697.5,-1068 691.5,-1068"/>
<text text-anchor="middle" x="627.5" y="-1047.2" font-family="sans-serif" font-size="11.00">complexGaussianMeasure</text>
</g>
<!-- GinibrePoincare.Configuration&#45;&gt;GinibrePoincare.complexGaussianMeasure -->
<!-- GinibrePoincare.correspondenceOperatorNumber_spectrum_iff -->
<g id="node14" class="node">
<title>GinibrePoincare.correspondenceOperatorNumber_spectrum_iff</title>
<path fill="#dbeafe" stroke="#2563eb" stroke-width="2" d="M621,-36C621,-36 386,-36 386,-36 380,-36 374,-30 374,-24 374,-24 374,-12 374,-12 374,-6 380,0 386,0 386,0 621,0 621,0 627,0 633,-6 633,-12 633,-12 633,-24 633,-24 633,-30 627,-36 621,-36"/>
<text text-anchor="middle" x="503.5" y="-15.2" font-family="sans-serif" font-size="11.00">correspondenceOperatorNumber_spectrum_iff</text>
</g>
<!-- GinibrePoincare.Configuration&#45;&gt;GinibrePoincare.correspondenceOperatorNumber_spectrum_iff -->
<g id="edge1" class="edge">
<title>GinibrePoincare.Configuration&#45;&gt;GinibrePoincare.correspondenceOperatorNumber_spectrum_iff</title>
<g id="a_edge1"><a xlink:title="value">
<path fill="none" stroke="#2563eb" d="M689.55,-1117.93C696.92,-1104.71 706.63,-1085.72 712.5,-1068 727.14,-1023.81 731.5,-1011.55 731.5,-965 731.5,-965 731.5,-965 731.5,-189 731.5,-108.8 639.72,-61.94 572.62,-38.39"/>
<polygon fill="#2563eb" stroke="#2563eb" points="573.22,-36.01 565.8,-36.05 571.63,-40.64 573.22,-36.01"/>
</a>
</g>
</g>
<!-- GinibrePoincare.correspondenceOperatorNumber -->
<g id="node3" class="node">
<title>GinibrePoincare.correspondenceOperatorNumber</title>
<path fill="#f8fafc" stroke="#64748b" d="M653,-982C653,-982 488,-982 488,-982 482,-982 476,-976 476,-970 476,-970 476,-958 476,-958 476,-952 482,-946 488,-946 488,-946 653,-946 653,-946 659,-946 665,-952 665,-958 665,-958 665,-970 665,-970 665,-976 659,-982 653,-982"/>
<text text-anchor="middle" x="570.5" y="-961.2" font-family="sans-serif" font-size="11.00">correspondenceOperatorNumber</text>
</g>
<!-- GinibrePoincare.complexGaussianMeasure&#45;&gt;GinibrePoincare.correspondenceOperatorNumber -->
<!-- GinibrePoincare.complexGaussianMeasure&#45;&gt;GinibrePoincare.correspondenceOperatorNumber_spectrum_iff -->
<g id="edge2" class="edge">
<title>GinibrePoincare.complexGaussianMeasure&#45;&gt;GinibrePoincare.correspondenceOperatorNumber_spectrum_iff</title>
<g id="a_edge2"><a xlink:title="value">
<path fill="none" stroke="#2563eb" d="M642.74,-1031.77C653.28,-1018.92 666.75,-1000.48 674.5,-982 692.5,-939.07 693.5,-925.55 693.5,-879 693.5,-879 693.5,-879 693.5,-189 693.5,-114.57 611.51,-64.57 555.25,-39.02"/>
<polygon fill="#2563eb" stroke="#2563eb" points="555.92,-36.63 548.53,-36.02 553.93,-41.11 555.92,-36.63"/>
</a>
</g>
</g>
<!-- GinibrePoincare.correspondenceOperatorNumberHasResolvent -->
<g id="node4" class="node">
<title>GinibrePoincare.correspondenceOperatorNumberHasResolvent</title>
<path fill="#f8fafc" stroke="#64748b" d="M615.5,-896C615.5,-896 381.5,-896 381.5,-896 375.5,-896 369.5,-890 369.5,-884 369.5,-884 369.5,-872 369.5,-872 369.5,-866 375.5,-860 381.5,-860 381.5,-860 615.5,-860 615.5,-860 621.5,-860 627.5,-866 627.5,-872 627.5,-872 627.5,-884 627.5,-884 627.5,-890 621.5,-896 615.5,-896"/>
<text text-anchor="middle" x="498.5" y="-875.2" font-family="sans-serif" font-size="11.00">correspondenceOperatorNumberHasResolvent</text>
</g>
<!-- GinibrePoincare.correspondenceOperatorNumber&#45;&gt;GinibrePoincare.correspondenceOperatorNumberHasResolvent -->
<!-- GinibrePoincare.correspondenceOperatorNumber&#45;&gt;GinibrePoincare.correspondenceOperatorNumber_spectrum_iff -->
<g id="edge3" class="edge">
<title>GinibrePoincare.correspondenceOperatorNumber&#45;&gt;GinibrePoincare.correspondenceOperatorNumber_spectrum_iff</title>
<g id="a_edge3"><a xlink:title="value">
<path fill="none" stroke="#2563eb" d="M593.33,-945.89C607.99,-933.63 626.17,-915.84 636.5,-896 658,-854.71 655.5,-839.55 655.5,-793 655.5,-793 655.5,-793 655.5,-189 655.5,-120.94 586.95,-67.62 541.92,-39.94"/>
<polygon fill="#2563eb" stroke="#2563eb" points="542.99,-37.73 535.74,-36.21 540.46,-41.92 542.99,-37.73"/>
</a>
</g>
</g>
<!-- GinibrePoincare.correspondenceOperatorNumberHasResolvent._proof_1 -->
<g id="node5" class="node">
<title>GinibrePoincare.correspondenceOperatorNumberHasResolvent._proof_1</title>
<path fill="#f8fafc" stroke="#64748b" d="M577.5,-810C577.5,-810 295.5,-810 295.5,-810 289.5,-810 283.5,-804 283.5,-798 283.5,-798 283.5,-786 283.5,-786 283.5,-780 289.5,-774 295.5,-774 295.5,-774 577.5,-774 577.5,-774 583.5,-774 589.5,-780 589.5,-786 589.5,-786 589.5,-798 589.5,-798 589.5,-804 583.5,-810 577.5,-810"/>
<text text-anchor="middle" x="436.5" y="-789.2" font-family="sans-serif" font-size="11.00">correspondenceOperatorNumberHasResolvent._proof_1</text>
</g>
<!-- GinibrePoincare.correspondenceOperatorNumberHasResolvent&#45;&gt;GinibrePoincare.correspondenceOperatorNumberHasResolvent._proof_1 -->
<!-- GinibrePoincare.correspondenceOperatorNumberHasResolvent&#45;&gt;GinibrePoincare.correspondenceOperatorNumber_spectrum_iff -->
<g id="edge4" class="edge">
<title>GinibrePoincare.correspondenceOperatorNumberHasResolvent&#45;&gt;GinibrePoincare.correspondenceOperatorNumber_spectrum_iff</title>
<g id="a_edge4"><a xlink:title="both">
<path fill="none" stroke="#7e22ce" d="M538.23,-859.87C559.39,-848.71 583.98,-832.09 598.5,-810 624.07,-771.1 617.5,-753.55 617.5,-707 617.5,-707 617.5,-707 617.5,-189 617.5,-127.02 564.59,-70.59 530.86,-40.91"/>
<polygon fill="#7e22ce" stroke="#7e22ce" points="532.11,-38.75 525.21,-36.03 528.91,-42.46 532.11,-38.75"/>
</a>
</g>
</g>
<!-- GinibrePoincare.correspondenceOperatorNumberHasResolvent._proof_2 -->
<g id="node6" class="node">
<title>GinibrePoincare.correspondenceOperatorNumberHasResolvent._proof_2</title>
<path fill="#f8fafc" stroke="#64748b" d="M539.5,-724C539.5,-724 257.5,-724 257.5,-724 251.5,-724 245.5,-718 245.5,-712 245.5,-712 245.5,-700 245.5,-700 245.5,-694 251.5,-688 257.5,-688 257.5,-688 539.5,-688 539.5,-688 545.5,-688 551.5,-694 551.5,-700 551.5,-700 551.5,-712 551.5,-712 551.5,-718 545.5,-724 539.5,-724"/>
<text text-anchor="middle" x="398.5" y="-703.2" font-family="sans-serif" font-size="11.00">correspondenceOperatorNumberHasResolvent._proof_2</text>
</g>
<!-- GinibrePoincare.correspondenceOperatorNumberHasResolvent._proof_1&#45;&gt;GinibrePoincare.correspondenceOperatorNumberHasResolvent._proof_2 -->
<!-- GinibrePoincare.correspondenceOperatorNumberHasResolvent._proof_1&#45;&gt;GinibrePoincare.correspondenceOperatorNumber_spectrum_iff -->
<g id="edge5" class="edge">
<title>GinibrePoincare.correspondenceOperatorNumberHasResolvent._proof_1&#45;&gt;GinibrePoincare.correspondenceOperatorNumber_spectrum_iff</title>
<g id="a_edge5"><a xlink:title="value">
<path fill="none" stroke="#2563eb" d="M490.94,-773.94C515.84,-763.41 543.51,-747.35 560.5,-724 587.88,-686.36 579.5,-667.55 579.5,-621 579.5,-621 579.5,-621 579.5,-189 579.5,-132.32 543.86,-73.55 521.39,-42.13"/>
<polygon fill="#2563eb" stroke="#2563eb" points="523.19,-40.43 517.09,-36.22 519.23,-43.32 523.19,-40.43"/>
</a>
</g>
</g>
<!-- GinibrePoincare.correspondenceOperatorNumberHasResolvent._proof_3 -->
<g id="node7" class="node">
<title>GinibrePoincare.correspondenceOperatorNumberHasResolvent._proof_3</title>
<path fill="#f8fafc" stroke="#64748b" d="M501.5,-638C501.5,-638 219.5,-638 219.5,-638 213.5,-638 207.5,-632 207.5,-626 207.5,-626 207.5,-614 207.5,-614 207.5,-608 213.5,-602 219.5,-602 219.5,-602 501.5,-602 501.5,-602 507.5,-602 513.5,-608 513.5,-614 513.5,-614 513.5,-626 513.5,-626 513.5,-632 507.5,-638 501.5,-638"/>
<text text-anchor="middle" x="360.5" y="-617.2" font-family="sans-serif" font-size="11.00">correspondenceOperatorNumberHasResolvent._proof_3</text>
</g>
<!-- GinibrePoincare.correspondenceOperatorNumberHasResolvent._proof_2&#45;&gt;GinibrePoincare.correspondenceOperatorNumberHasResolvent._proof_3 -->
<!-- GinibrePoincare.correspondenceOperatorNumberHasResolvent._proof_2&#45;&gt;GinibrePoincare.correspondenceOperatorNumber_spectrum_iff -->
<g id="edge6" class="edge">
<title>GinibrePoincare.correspondenceOperatorNumberHasResolvent._proof_2&#45;&gt;GinibrePoincare.correspondenceOperatorNumber_spectrum_iff</title>
<g id="a_edge6"><a xlink:title="value">
<path fill="none" stroke="#2563eb" d="M452.94,-687.94C477.84,-677.41 505.51,-661.35 522.5,-638 549.88,-600.36 541.5,-581.55 541.5,-535 541.5,-535 541.5,-535 541.5,-189 541.5,-135.86 523.6,-75.58 512.37,-43"/>
<polygon fill="#2563eb" stroke="#2563eb" points="514.58,-41.89 509.95,-36.09 509.95,-43.51 514.58,-41.89"/>
</a>
</g>
</g>
<!-- GinibrePoincare.correspondenceOperatorNumberHasResolvent._proof_5 -->
<g id="node8" class="node">
<title>GinibrePoincare.correspondenceOperatorNumberHasResolvent._proof_5</title>
<path fill="#f8fafc" stroke="#64748b" d="M463.5,-552C463.5,-552 181.5,-552 181.5,-552 175.5,-552 169.5,-546 169.5,-540 169.5,-540 169.5,-528 169.5,-528 169.5,-522 175.5,-516 181.5,-516 181.5,-516 463.5,-516 463.5,-516 469.5,-516 475.5,-522 475.5,-528 475.5,-528 475.5,-540 475.5,-540 475.5,-546 469.5,-552 463.5,-552"/>
<text text-anchor="middle" x="322.5" y="-531.2" font-family="sans-serif" font-size="11.00">correspondenceOperatorNumberHasResolvent._proof_5</text>
</g>
<!-- GinibrePoincare.correspondenceOperatorNumberHasResolvent._proof_3&#45;&gt;GinibrePoincare.correspondenceOperatorNumberHasResolvent._proof_5 -->
<!-- GinibrePoincare.correspondenceOperatorNumberHasResolvent._proof_3&#45;&gt;GinibrePoincare.correspondenceOperatorNumber_spectrum_iff -->
<g id="edge7" class="edge">
<title>GinibrePoincare.correspondenceOperatorNumberHasResolvent._proof_3&#45;&gt;GinibrePoincare.correspondenceOperatorNumber_spectrum_iff</title>
<g id="a_edge7"><a xlink:title="value">
<path fill="none" stroke="#2563eb" d="M414.94,-601.94C439.84,-591.41 467.51,-575.35 484.5,-552 511.88,-514.36 503.5,-495.55 503.5,-449 503.5,-449 503.5,-449 503.5,-189 503.5,-137.36 503.5,-76.89 503.5,-43.79"/>
<polygon fill="#2563eb" stroke="#2563eb" points="505.95,-43.38 503.5,-36.38 501.05,-43.38 505.95,-43.38"/>
</a>
</g>
</g>
<!-- GinibrePoincare.correspondenceOperatorNumberHasResolvent._proof_6 -->
<g id="node9" class="node">
<title>GinibrePoincare.correspondenceOperatorNumberHasResolvent._proof_6</title>
<path fill="#f8fafc" stroke="#64748b" d="M425.5,-466C425.5,-466 143.5,-466 143.5,-466 137.5,-466 131.5,-460 131.5,-454 131.5,-454 131.5,-442 131.5,-442 131.5,-436 137.5,-430 143.5,-430 143.5,-430 425.5,-430 425.5,-430 431.5,-430 437.5,-436 437.5,-442 437.5,-442 437.5,-454 437.5,-454 437.5,-460 431.5,-466 425.5,-466"/>
<text text-anchor="middle" x="284.5" y="-445.2" font-family="sans-serif" font-size="11.00">correspondenceOperatorNumberHasResolvent._proof_6</text>
</g>
<!-- GinibrePoincare.correspondenceOperatorNumberHasResolvent._proof_5&#45;&gt;GinibrePoincare.correspondenceOperatorNumberHasResolvent._proof_6 -->
<!-- GinibrePoincare.correspondenceOperatorNumberHasResolvent._proof_5&#45;&gt;GinibrePoincare.correspondenceOperatorNumber_spectrum_iff -->
<g id="edge8" class="edge">
<title>GinibrePoincare.correspondenceOperatorNumberHasResolvent._proof_5&#45;&gt;GinibrePoincare.correspondenceOperatorNumber_spectrum_iff</title>
<g id="a_edge8"><a xlink:title="value">
<path fill="none" stroke="#2563eb" d="M376.94,-515.94C401.84,-505.41 429.51,-489.35 446.5,-466 473.88,-428.36 465.5,-409.55 465.5,-363 465.5,-363 465.5,-363 465.5,-189 465.5,-135.86 483.4,-75.58 494.63,-43"/>
<polygon fill="#2563eb" stroke="#2563eb" points="497.05,-43.51 497.05,-36.09 492.42,-41.89 497.05,-43.51"/>
</a>
</g>
</g>
<!-- GinibrePoincare.correspondenceOperatorNumberHasResolvent._proof_7 -->
<g id="node10" class="node">
<title>GinibrePoincare.correspondenceOperatorNumberHasResolvent._proof_7</title>
<path fill="#f8fafc" stroke="#64748b" d="M387.5,-380C387.5,-380 105.5,-380 105.5,-380 99.5,-380 93.5,-374 93.5,-368 93.5,-368 93.5,-356 93.5,-356 93.5,-350 99.5,-344 105.5,-344 105.5,-344 387.5,-344 387.5,-344 393.5,-344 399.5,-350 399.5,-356 399.5,-356 399.5,-368 399.5,-368 399.5,-374 393.5,-380 387.5,-380"/>
<text text-anchor="middle" x="246.5" y="-359.2" font-family="sans-serif" font-size="11.00">correspondenceOperatorNumberHasResolvent._proof_7</text>
</g>
<!-- GinibrePoincare.correspondenceOperatorNumberHasResolvent._proof_6&#45;&gt;GinibrePoincare.correspondenceOperatorNumberHasResolvent._proof_7 -->
<!-- GinibrePoincare.correspondenceOperatorNumberHasResolvent._proof_6&#45;&gt;GinibrePoincare.correspondenceOperatorNumber_spectrum_iff -->
<g id="edge9" class="edge">
<title>GinibrePoincare.correspondenceOperatorNumberHasResolvent._proof_6&#45;&gt;GinibrePoincare.correspondenceOperatorNumber_spectrum_iff</title>
<g id="a_edge9"><a xlink:title="value">
<path fill="none" stroke="#2563eb" d="M338.94,-429.94C363.84,-419.41 391.51,-403.35 408.5,-380 435.88,-342.36 427.5,-323.55 427.5,-277 427.5,-277 427.5,-277 427.5,-189 427.5,-142 431.29,-128.44 451.5,-86 459.24,-69.75 471.45,-53.73 482.09,-41.44"/>
<polygon fill="#2563eb" stroke="#2563eb" points="484.05,-42.93 486.85,-36.07 480.38,-39.68 484.05,-42.93"/>
</a>
</g>
</g>
<!-- GinibrePoincare.correspondenceOperatorNumberHasResolvent._proof_8 -->
<g id="node11" class="node">
<title>GinibrePoincare.correspondenceOperatorNumberHasResolvent._proof_8</title>
<path fill="#f8fafc" stroke="#64748b" d="M349.5,-294C349.5,-294 67.5,-294 67.5,-294 61.5,-294 55.5,-288 55.5,-282 55.5,-282 55.5,-270 55.5,-270 55.5,-264 61.5,-258 67.5,-258 67.5,-258 349.5,-258 349.5,-258 355.5,-258 361.5,-264 361.5,-270 361.5,-270 361.5,-282 361.5,-282 361.5,-288 355.5,-294 349.5,-294"/>
<text text-anchor="middle" x="208.5" y="-273.2" font-family="sans-serif" font-size="11.00">correspondenceOperatorNumberHasResolvent._proof_8</text>
</g>
<!-- GinibrePoincare.correspondenceOperatorNumberHasResolvent._proof_7&#45;&gt;GinibrePoincare.correspondenceOperatorNumberHasResolvent._proof_8 -->
<!-- GinibrePoincare.correspondenceOperatorNumberHasResolvent._proof_7&#45;&gt;GinibrePoincare.correspondenceOperatorNumber_spectrum_iff -->
<g id="edge10" class="edge">
<title>GinibrePoincare.correspondenceOperatorNumberHasResolvent._proof_7&#45;&gt;GinibrePoincare.correspondenceOperatorNumber_spectrum_iff</title>
<g id="a_edge10"><a xlink:title="value">
<path fill="none" stroke="#2563eb" d="M300.41,-343.91C325.34,-333.35 353.19,-317.26 370.5,-294 426.85,-218.26 362.77,-165.61 413.5,-86 425.73,-66.81 445.53,-51.19 463.45,-39.87"/>
<polygon fill="#2563eb" stroke="#2563eb" points="464.76,-41.94 469.44,-36.19 462.2,-37.76 464.76,-41.94"/>
</a>
</g>
</g>
<!-- GinibrePoincare.correspondenceOperatorNumber_level_eigenvector -->
<g id="node12" class="node">
<title>GinibrePoincare.correspondenceOperatorNumber_level_eigenvector</title>
<path fill="#f8fafc" stroke="#64748b" d="M311,-208C311,-208 52,-208 52,-208 46,-208 40,-202 40,-196 40,-196 40,-184 40,-184 40,-178 46,-172 52,-172 52,-172 311,-172 311,-172 317,-172 323,-178 323,-184 323,-184 323,-196 323,-196 323,-202 317,-208 311,-208"/>
<text text-anchor="middle" x="181.5" y="-187.2" font-family="sans-serif" font-size="11.00">correspondenceOperatorNumber_level_eigenvector</text>
</g>
<!-- GinibrePoincare.correspondenceOperatorNumberHasResolvent._proof_8&#45;&gt;GinibrePoincare.correspondenceOperatorNumber_level_eigenvector -->
<!-- GinibrePoincare.correspondenceOperatorNumberHasResolvent._proof_8&#45;&gt;GinibrePoincare.correspondenceOperatorNumber_spectrum_iff -->
<g id="edge11" class="edge">
<title>GinibrePoincare.correspondenceOperatorNumberHasResolvent._proof_8&#45;&gt;GinibrePoincare.correspondenceOperatorNumber_spectrum_iff</title>
<g id="a_edge11"><a xlink:title="value">
<path fill="none" stroke="#2563eb" d="M257.83,-257.92C282.87,-247.05 312.02,-230.7 331.5,-208 369.03,-164.25 337.61,-129.44 375.5,-86 393.81,-65.01 420.33,-49.62 444.48,-38.93"/>
<polygon fill="#2563eb" stroke="#2563eb" points="445.75,-41.04 451.22,-36.03 443.82,-36.54 445.75,-41.04"/>
</a>
</g>
</g>
<!-- GinibrePoincare.correspondenceOperatorNumber_resolvent_outside -->
<g id="node13" class="node">
<title>GinibrePoincare.correspondenceOperatorNumber_resolvent_outside</title>
<path fill="#f8fafc" stroke="#64748b" d="M273,-122C273,-122 12,-122 12,-122 6,-122 0,-116 0,-110 0,-110 0,-98 0,-98 0,-92 6,-86 12,-86 12,-86 273,-86 273,-86 279,-86 285,-92 285,-98 285,-98 285,-110 285,-110 285,-116 279,-122 273,-122"/>
<text text-anchor="middle" x="142.5" y="-101.2" font-family="sans-serif" font-size="11.00">correspondenceOperatorNumber_resolvent_outside</text>
</g>
<!-- GinibrePoincare.correspondenceOperatorNumber_level_eigenvector&#45;&gt;GinibrePoincare.correspondenceOperatorNumber_resolvent_outside -->
<!-- GinibrePoincare.correspondenceOperatorNumber_level_eigenvector&#45;&gt;GinibrePoincare.correspondenceOperatorNumber_spectrum_iff -->
<g id="edge12" class="edge">
<title>GinibrePoincare.correspondenceOperatorNumber_level_eigenvector&#45;&gt;GinibrePoincare.correspondenceOperatorNumber_spectrum_iff</title>
<g id="a_edge12"><a xlink:title="value">
<path fill="none" stroke="#2563eb" d="M212.69,-171.98C235.59,-159.09 267.17,-140.5 293.5,-122 314.17,-107.48 315.76,-98.88 337.5,-86 370.58,-66.41 410.45,-50.11 442.82,-38.49"/>
<polygon fill="#2563eb" stroke="#2563eb" points="443.83,-40.73 449.61,-36.08 442.2,-36.11 443.83,-40.73"/>
</a>
</g>
</g>
<!-- GinibrePoincare.correspondenceOperatorNumber_resolvent_outside&#45;&gt;GinibrePoincare.correspondenceOperatorNumber_spectrum_iff -->
<g id="edge13" class="edge">
<title>GinibrePoincare.correspondenceOperatorNumber_resolvent_outside&#45;&gt;GinibrePoincare.correspondenceOperatorNumber_spectrum_iff</title>
<g id="a_edge13"><a xlink:title="value">
<path fill="none" stroke="#2563eb" d="M215.99,-85.9C276.23,-71.88 361.37,-52.07 423.36,-37.65"/>
<polygon fill="#2563eb" stroke="#2563eb" points="424.16,-39.98 430.42,-36 423.05,-35.2 424.16,-39.98"/>
</a>
</g>
</g>
</g>
</svg>
