<?xml version="1.0" encoding="UTF-8" standalone="no"?>
<!DOCTYPE svg PUBLIC "-//W3C//DTD SVG 1.1//EN"
 "http://www.w3.org/Graphics/SVG/1.1/DTD/svg11.dtd">
<!-- Generated by graphviz version 2.42.4 (0)
 -->
<!-- Title: formal_dependencies Pages: 1 -->
<svg width="1051pt" height="2181pt"
 viewBox="0.00 0.00 1051.20 2181.20" xmlns="http://www.w3.org/2000/svg" xmlns:xlink="http://www.w3.org/1999/xlink">
<g id="graph0" class="graph" transform="scale(1 1) rotate(0) translate(21.6 2159.6)">
<title>formal_dependencies</title>
<polygon fill="white" stroke="transparent" points="-21.6,21.6 -21.6,-2159.6 1029.6,-2159.6 1029.6,21.6 -21.6,21.6"/>
<text text-anchor="middle" x="504" y="-2122.8" font-family="sans-serif" font-size="14.00">Exact direct local declaration references</text>
<text text-anchor="middle" x="504" y="-2107.8" font-family="sans-serif" font-size="14.00">Compiled references; statement review recorded separately</text>
<!-- GinibrePoincare.Configuration -->
<g id="node1" class="node">
<title>GinibrePoincare.Configuration</title>
<path fill="#f8fafc" stroke="#64748b" d="M993,-2100C993,-2100 929,-2100 929,-2100 923,-2100 917,-2094 917,-2088 917,-2088 917,-2076 917,-2076 917,-2070 923,-2064 929,-2064 929,-2064 993,-2064 993,-2064 999,-2064 1005,-2070 1005,-2076 1005,-2076 1005,-2088 1005,-2088 1005,-2094 999,-2100 993,-2100"/>
<text text-anchor="middle" x="961" y="-2079.2" font-family="sans-serif" font-size="11.00">Configuration</text>
</g>
<!-- GinibrePoincare.GinibreFullComplexL2 -->
<g id="node2" class="node">
<title>GinibrePoincare.GinibreFullComplexL2</title>
<path fill="#f8fafc" stroke="#64748b" d="M967.5,-2014C967.5,-2014 860.5,-2014 860.5,-2014 854.5,-2014 848.5,-2008 848.5,-2002 848.5,-2002 848.5,-1990 848.5,-1990 848.5,-1984 854.5,-1978 860.5,-1978 860.5,-1978 967.5,-1978 967.5,-1978 973.5,-1978 979.5,-1984 979.5,-1990 979.5,-1990 979.5,-2002 979.5,-2002 979.5,-2008 973.5,-2014 967.5,-2014"/>
<text text-anchor="middle" x="914" y="-1993.2" font-family="sans-serif" font-size="11.00">GinibreFullComplexL2</text>
</g>
<!-- GinibrePoincare.Configuration&#45;&gt;GinibrePoincare.GinibreFullComplexL2 -->
<!-- GinibrePoincare.fullTheoremOneNine_named -->
<g id="node13" class="node">
<title>GinibrePoincare.fullTheoremOneNine_named</title>
<path fill="#dbeafe" stroke="#2563eb" stroke-width="2" d="M541,-36C541,-36 399,-36 399,-36 393,-36 387,-30 387,-24 387,-24 387,-12 387,-12 387,-6 393,0 399,0 399,0 541,0 541,0 547,0 553,-6 553,-12 553,-12 553,-24 553,-24 553,-30 547,-36 541,-36"/>
<text text-anchor="middle" x="470" y="-15.2" font-family="sans-serif" font-size="11.00">fullTheoremOneNine_named</text>
</g>
<!-- GinibrePoincare.Configuration&#45;&gt;GinibrePoincare.fullTheoremOneNine_named -->
<g id="edge1" class="edge">
<title>GinibrePoincare.Configuration&#45;&gt;GinibrePoincare.fullTheoremOneNine_named</title>
<g id="a_edge1"><a xlink:title="both">
<path fill="none" stroke="#7e22ce" d="M969.42,-2063.74C975.61,-2050.42 983.82,-2031.4 989,-2014 1002.27,-1969.38 1008,-1957.55 1008,-1911 1008,-1911 1008,-1911 1008,-189 1008,-134.15 986.35,-115.34 940,-86 878.61,-47.13 678.85,-30.02 560.43,-23.14"/>
<polygon fill="#7e22ce" stroke="#7e22ce" points="560.23,-20.67 553.1,-22.72 559.95,-25.56 560.23,-20.67"/>
</a>
</g>
</g>
<!-- GinibrePoincare.GinibreFullComplexL2._proof_1 -->
<g id="node3" class="node">
<title>GinibrePoincare.GinibreFullComplexL2._proof_1</title>
<path fill="#f8fafc" stroke="#64748b" d="M929.5,-1928C929.5,-1928 774.5,-1928 774.5,-1928 768.5,-1928 762.5,-1922 762.5,-1916 762.5,-1916 762.5,-1904 762.5,-1904 762.5,-1898 768.5,-1892 774.5,-1892 774.5,-1892 929.5,-1892 929.5,-1892 935.5,-1892 941.5,-1898 941.5,-1904 941.5,-1904 941.5,-1916 941.5,-1916 941.5,-1922 935.5,-1928 929.5,-1928"/>
<text text-anchor="middle" x="852" y="-1907.2" font-family="sans-serif" font-size="11.00">GinibreFullComplexL2._proof_1</text>
</g>
<!-- GinibrePoincare.GinibreFullComplexL2&#45;&gt;GinibrePoincare.GinibreFullComplexL2._proof_1 -->
<!-- GinibrePoincare.GinibreFullComplexL2&#45;&gt;GinibrePoincare.fullTheoremOneNine_named -->
<g id="edge2" class="edge">
<title>GinibrePoincare.GinibreFullComplexL2&#45;&gt;GinibrePoincare.fullTheoremOneNine_named</title>
<g id="a_edge2"><a xlink:title="value">
<path fill="none" stroke="#2563eb" d="M925.52,-1977.82C933.81,-1964.7 944.6,-1945.89 951,-1928 966.68,-1884.17 970,-1871.55 970,-1825 970,-1825 970,-1825 970,-189 970,-134.63 949.57,-115.66 904,-86 848.82,-50.08 670.57,-32.13 560.41,-24.26"/>
<polygon fill="#2563eb" stroke="#2563eb" points="560.41,-21.8 553.25,-23.75 560.06,-26.69 560.41,-21.8"/>
</a>
</g>
</g>
<!-- GinibrePoincare.GinibreFullGradientL2 -->
<g id="node4" class="node">
<title>GinibrePoincare.GinibreFullGradientL2</title>
<path fill="#f8fafc" stroke="#64748b" d="M891.5,-1842C891.5,-1842 784.5,-1842 784.5,-1842 778.5,-1842 772.5,-1836 772.5,-1830 772.5,-1830 772.5,-1818 772.5,-1818 772.5,-1812 778.5,-1806 784.5,-1806 784.5,-1806 891.5,-1806 891.5,-1806 897.5,-1806 903.5,-1812 903.5,-1818 903.5,-1818 903.5,-1830 903.5,-1830 903.5,-1836 897.5,-1842 891.5,-1842"/>
<text text-anchor="middle" x="838" y="-1821.2" font-family="sans-serif" font-size="11.00">GinibreFullGradientL2</text>
</g>
<!-- GinibrePoincare.GinibreFullComplexL2._proof_1&#45;&gt;GinibrePoincare.GinibreFullGradientL2 -->
<!-- GinibrePoincare.GinibreFullComplexL2._proof_1&#45;&gt;GinibrePoincare.fullTheoremOneNine_named -->
<g id="edge3" class="edge">
<title>GinibrePoincare.GinibreFullComplexL2._proof_1&#45;&gt;GinibrePoincare.fullTheoremOneNine_named</title>
<g id="a_edge3"><a xlink:title="value">
<path fill="none" stroke="#2563eb" d="M872.78,-1891.81C886.38,-1879.4 903.35,-1861.45 913,-1842 933.69,-1800.3 932,-1785.55 932,-1739 932,-1739 932,-1739 932,-189 932,-135.1 912.76,-116.02 868,-86 818.99,-53.13 662.14,-34.5 560.6,-25.61"/>
<polygon fill="#2563eb" stroke="#2563eb" points="560.57,-23.15 553.39,-24.99 560.15,-28.03 560.57,-23.15"/>
</a>
</g>
</g>
<!-- GinibrePoincare.GinibreFullValueL2 -->
<g id="node5" class="node">
<title>GinibrePoincare.GinibreFullValueL2</title>
<path fill="#f8fafc" stroke="#64748b" d="M854,-1756C854,-1756 764,-1756 764,-1756 758,-1756 752,-1750 752,-1744 752,-1744 752,-1732 752,-1732 752,-1726 758,-1720 764,-1720 764,-1720 854,-1720 854,-1720 860,-1720 866,-1726 866,-1732 866,-1732 866,-1744 866,-1744 866,-1750 860,-1756 854,-1756"/>
<text text-anchor="middle" x="809" y="-1735.2" font-family="sans-serif" font-size="11.00">GinibreFullValueL2</text>
</g>
<!-- GinibrePoincare.GinibreFullGradientL2&#45;&gt;GinibrePoincare.GinibreFullValueL2 -->
<!-- GinibrePoincare.GinibreFullGradientL2&#45;&gt;GinibrePoincare.fullTheoremOneNine_named -->
<g id="edge4" class="edge">
<title>GinibrePoincare.GinibreFullGradientL2&#45;&gt;GinibrePoincare.fullTheoremOneNine_named</title>
<g id="a_edge4"><a xlink:title="both">
<path fill="none" stroke="#7e22ce" d="M849.52,-1805.82C857.81,-1792.7 868.6,-1773.89 875,-1756 890.68,-1712.17 894,-1699.55 894,-1653 894,-1653 894,-1653 894,-189 894,-135.57 875.92,-116.43 832,-86 788.99,-56.2 652.91,-37.11 560.41,-27.22"/>
<polygon fill="#7e22ce" stroke="#7e22ce" points="560.49,-24.77 553.27,-26.47 559.98,-29.64 560.49,-24.77"/>
</a>
</g>
</g>
<!-- GinibrePoincare.GinibreFullValueL2._proof_1 -->
<g id="node6" class="node">
<title>GinibrePoincare.GinibreFullValueL2._proof_1</title>
<path fill="#f8fafc" stroke="#64748b" d="M816,-1670C816,-1670 678,-1670 678,-1670 672,-1670 666,-1664 666,-1658 666,-1658 666,-1646 666,-1646 666,-1640 672,-1634 678,-1634 678,-1634 816,-1634 816,-1634 822,-1634 828,-1640 828,-1646 828,-1646 828,-1658 828,-1658 828,-1664 822,-1670 816,-1670"/>
<text text-anchor="middle" x="747" y="-1649.2" font-family="sans-serif" font-size="11.00">GinibreFullValueL2._proof_1</text>
</g>
<!-- GinibrePoincare.GinibreFullValueL2&#45;&gt;GinibrePoincare.GinibreFullValueL2._proof_1 -->
<!-- GinibrePoincare.GinibreFullValueL2&#45;&gt;GinibrePoincare.fullTheoremOneNine_named -->
<g id="edge5" class="edge">
<title>GinibrePoincare.GinibreFullValueL2&#45;&gt;GinibrePoincare.fullTheoremOneNine_named</title>
<g id="a_edge5"><a xlink:title="both">
<path fill="none" stroke="#7e22ce" d="M817.42,-1719.74C823.61,-1706.42 831.82,-1687.4 837,-1670 850.27,-1625.38 856,-1613.55 856,-1567 856,-1567 856,-1567 856,-189 856,-60.44 674.44,-28.26 560.36,-20.73"/>
<polygon fill="#7e22ce" stroke="#7e22ce" points="560.42,-18.28 553.28,-20.29 560.11,-23.17 560.42,-18.28"/>
</a>
</g>
</g>
<!-- GinibrePoincare.GinibreGeneratorDeficits -->
<g id="node7" class="node">
<title>GinibrePoincare.GinibreGeneratorDeficits</title>
<path fill="#f8fafc" stroke="#64748b" d="M778,-1584C778,-1584 656,-1584 656,-1584 650,-1584 644,-1578 644,-1572 644,-1572 644,-1560 644,-1560 644,-1554 650,-1548 656,-1548 656,-1548 778,-1548 778,-1548 784,-1548 790,-1554 790,-1560 790,-1560 790,-1572 790,-1572 790,-1578 784,-1584 778,-1584"/>
<text text-anchor="middle" x="717" y="-1563.2" font-family="sans-serif" font-size="11.00">GinibreGeneratorDeficits</text>
</g>
<!-- GinibrePoincare.GinibreFullValueL2._proof_1&#45;&gt;GinibrePoincare.GinibreGeneratorDeficits -->
<!-- GinibrePoincare.GinibreFullValueL2._proof_1&#45;&gt;GinibrePoincare.fullTheoremOneNine_named -->
<g id="edge6" class="edge">
<title>GinibrePoincare.GinibreFullValueL2._proof_1&#45;&gt;GinibrePoincare.fullTheoremOneNine_named</title>
<g id="a_edge6"><a xlink:title="both">
<path fill="none" stroke="#7e22ce" d="M764.16,-1633.78C775.81,-1621.09 790.57,-1602.81 799,-1584 818.03,-1541.52 818,-1527.55 818,-1481 818,-1481 818,-1481 818,-189 818,-74.3 663.49,-36.98 560.38,-24.84"/>
<polygon fill="#7e22ce" stroke="#7e22ce" points="560.59,-22.4 553.35,-24.04 560.03,-27.27 560.59,-22.4"/>
</a>
</g>
</g>
<!-- GinibrePoincare.GinibreGeneratorDeficits.mk -->
<g id="node8" class="node">
<title>GinibrePoincare.GinibreGeneratorDeficits.mk</title>
<path fill="#f8fafc" stroke="#64748b" d="M739.5,-1498C739.5,-1498 598.5,-1498 598.5,-1498 592.5,-1498 586.5,-1492 586.5,-1486 586.5,-1486 586.5,-1474 586.5,-1474 586.5,-1468 592.5,-1462 598.5,-1462 598.5,-1462 739.5,-1462 739.5,-1462 745.5,-1462 751.5,-1468 751.5,-1474 751.5,-1474 751.5,-1486 751.5,-1486 751.5,-1492 745.5,-1498 739.5,-1498"/>
<text text-anchor="middle" x="669" y="-1477.2" font-family="sans-serif" font-size="11.00">GinibreGeneratorDeficits.mk</text>
</g>
<!-- GinibrePoincare.GinibreGeneratorDeficits&#45;&gt;GinibrePoincare.GinibreGeneratorDeficits.mk -->
<!-- GinibrePoincare.GinibreGeneratorDeficits&#45;&gt;GinibrePoincare.fullTheoremOneNine_named -->
<g id="edge7" class="edge">
<title>GinibrePoincare.GinibreGeneratorDeficits&#45;&gt;GinibrePoincare.fullTheoremOneNine_named</title>
<g id="a_edge7"><a xlink:title="both">
<path fill="none" stroke="#7e22ce" d="M730.64,-1547.81C740.27,-1534.84 752.7,-1516.22 760,-1498 777.35,-1454.71 780,-1441.63 780,-1395 780,-1395 780,-1395 780,-189 780,-136.46 763.54,-118.17 722,-86 675.85,-50.26 612.26,-33.53 560.51,-25.72"/>
<polygon fill="#7e22ce" stroke="#7e22ce" points="560.57,-23.25 553.29,-24.68 559.87,-28.1 560.57,-23.25"/>
</a>
</g>
</g>
<!-- GinibrePoincare.IsGinibreDistributionalGradient -->
<g id="node9" class="node">
<title>GinibrePoincare.IsGinibreDistributionalGradient</title>
<path fill="#f8fafc" stroke="#64748b" d="M701.5,-1412C701.5,-1412 546.5,-1412 546.5,-1412 540.5,-1412 534.5,-1406 534.5,-1400 534.5,-1400 534.5,-1388 534.5,-1388 534.5,-1382 540.5,-1376 546.5,-1376 546.5,-1376 701.5,-1376 701.5,-1376 707.5,-1376 713.5,-1382 713.5,-1388 713.5,-1388 713.5,-1400 713.5,-1400 713.5,-1406 707.5,-1412 701.5,-1412"/>
<text text-anchor="middle" x="624" y="-1391.2" font-family="sans-serif" font-size="11.00">IsGinibreDistributionalGradient</text>
</g>
<!-- GinibrePoincare.GinibreGeneratorDeficits.mk&#45;&gt;GinibrePoincare.IsGinibreDistributionalGradient -->
<!-- GinibrePoincare.GinibreGeneratorDeficits.mk&#45;&gt;GinibrePoincare.fullTheoremOneNine_named -->
<g id="edge8" class="edge">
<title>GinibrePoincare.GinibreGeneratorDeficits.mk&#45;&gt;GinibrePoincare.fullTheoremOneNine_named</title>
<g id="a_edge8"><a xlink:title="value">
<path fill="none" stroke="#2563eb" d="M686.45,-1461.82C698.3,-1449.14 713.33,-1430.87 722,-1412 741.46,-1369.62 742,-1355.63 742,-1309 742,-1309 742,-1309 742,-189 742,-137.72 729.24,-119.01 690,-86 653.53,-55.32 603.24,-38.68 559.95,-29.66"/>
<polygon fill="#2563eb" stroke="#2563eb" points="560.41,-27.26 553.06,-28.28 559.44,-32.06 560.41,-27.26"/>
</a>
</g>
</g>
<!-- GinibrePoincare.IsGinibreSymmetricWeakPair -->
<g id="node10" class="node">
<title>GinibrePoincare.IsGinibreSymmetricWeakPair</title>
<path fill="#f8fafc" stroke="#64748b" d="M664.5,-1326C664.5,-1326 521.5,-1326 521.5,-1326 515.5,-1326 509.5,-1320 509.5,-1314 509.5,-1314 509.5,-1302 509.5,-1302 509.5,-1296 515.5,-1290 521.5,-1290 521.5,-1290 664.5,-1290 664.5,-1290 670.5,-1290 676.5,-1296 676.5,-1302 676.5,-1302 676.5,-1314 676.5,-1314 676.5,-1320 670.5,-1326 664.5,-1326"/>
<text text-anchor="middle" x="593" y="-1305.2" font-family="sans-serif" font-size="11.00">IsGinibreSymmetricWeakPair</text>
</g>
<!-- GinibrePoincare.IsGinibreDistributionalGradient&#45;&gt;GinibrePoincare.IsGinibreSymmetricWeakPair -->
<!-- GinibrePoincare.IsGinibreDistributionalGradient&#45;&gt;GinibrePoincare.fullTheoremOneNine_named -->
<g id="edge9" class="edge">
<title>GinibrePoincare.IsGinibreDistributionalGradient&#45;&gt;GinibrePoincare.fullTheoremOneNine_named</title>
<g id="a_edge9"><a xlink:title="value">
<path fill="none" stroke="#2563eb" d="M644.78,-1375.81C658.38,-1363.4 675.35,-1345.45 685,-1326 705.69,-1284.3 704,-1269.55 704,-1223 704,-1223 704,-1223 704,-189 704,-139.22 696.32,-120.04 660,-86 632.61,-60.32 594.78,-44.4 560.09,-34.56"/>
<polygon fill="#2563eb" stroke="#2563eb" points="560.59,-32.16 553.19,-32.68 559.3,-36.89 560.59,-32.16"/>
</a>
</g>
</g>
<!-- GinibrePoincare.coordinateSum -->
<g id="node11" class="node">
<title>GinibrePoincare.coordinateSum</title>
<path fill="#f8fafc" stroke="#64748b" d="M625.5,-1240C625.5,-1240 554.5,-1240 554.5,-1240 548.5,-1240 542.5,-1234 542.5,-1228 542.5,-1228 542.5,-1216 542.5,-1216 542.5,-1210 548.5,-1204 554.5,-1204 554.5,-1204 625.5,-1204 625.5,-1204 631.5,-1204 637.5,-1210 637.5,-1216 637.5,-1216 637.5,-1228 637.5,-1228 637.5,-1234 631.5,-1240 625.5,-1240"/>
<text text-anchor="middle" x="590" y="-1219.2" font-family="sans-serif" font-size="11.00">coordinateSum</text>
</g>
<!-- GinibrePoincare.IsGinibreSymmetricWeakPair&#45;&gt;GinibrePoincare.coordinateSum -->
<!-- GinibrePoincare.IsGinibreSymmetricWeakPair&#45;&gt;GinibrePoincare.fullTheoremOneNine_named -->
<g id="edge10" class="edge">
<title>GinibrePoincare.IsGinibreSymmetricWeakPair&#45;&gt;GinibrePoincare.fullTheoremOneNine_named</title>
<g id="a_edge10"><a xlink:title="value">
<path fill="none" stroke="#2563eb" d="M610.45,-1289.82C622.3,-1277.14 637.33,-1258.87 646,-1240 665.46,-1197.62 666,-1183.63 666,-1137 666,-1137 666,-1137 666,-189 666,-140.93 665.61,-121.32 633,-86 612.35,-63.63 583.12,-48.52 555.1,-38.42"/>
<polygon fill="#2563eb" stroke="#2563eb" points="555.81,-36.07 548.39,-36.08 554.2,-40.7 555.81,-36.07"/>
</a>
</g>
</g>
<!-- GinibrePoincare.fullTheoremOneNine -->
<g id="node12" class="node">
<title>GinibrePoincare.fullTheoremOneNine</title>
<path fill="#f8fafc" stroke="#64748b" d="M167.5,-1154C167.5,-1154 66.5,-1154 66.5,-1154 60.5,-1154 54.5,-1148 54.5,-1142 54.5,-1142 54.5,-1130 54.5,-1130 54.5,-1124 60.5,-1118 66.5,-1118 66.5,-1118 167.5,-1118 167.5,-1118 173.5,-1118 179.5,-1124 179.5,-1130 179.5,-1130 179.5,-1142 179.5,-1142 179.5,-1148 173.5,-1154 167.5,-1154"/>
<text text-anchor="middle" x="117" y="-1133.2" font-family="sans-serif" font-size="11.00">fullTheoremOneNine</text>
</g>
<!-- GinibrePoincare.coordinateSum&#45;&gt;GinibrePoincare.fullTheoremOneNine -->
<!-- GinibrePoincare.coordinateSum&#45;&gt;GinibrePoincare.fullTheoremOneNine_named -->
<g id="edge11" class="edge">
<title>GinibrePoincare.coordinateSum&#45;&gt;GinibrePoincare.fullTheoremOneNine_named</title>
<g id="a_edge11"><a xlink:title="value">
<path fill="none" stroke="#2563eb" d="M596.45,-1203.91C607.29,-1173.58 628,-1108.16 628,-1051 628,-1051 628,-1051 628,-189 628,-142.45 637.25,-123 609,-86 592.29,-64.11 566.58,-48.99 541.8,-38.74"/>
<polygon fill="#2563eb" stroke="#2563eb" points="542.59,-36.42 535.18,-36.11 540.78,-40.98 542.59,-36.42"/>
</a>
</g>
</g>
<!-- GinibrePoincare.fullTheoremOneNine&#45;&gt;GinibrePoincare.fullTheoremOneNine_named -->
<g id="edge12" class="edge">
<title>GinibrePoincare.fullTheoremOneNine&#45;&gt;GinibrePoincare.fullTheoremOneNine_named</title>
<g id="a_edge12"><a xlink:title="value">
<path fill="none" stroke="#2563eb" d="M94.44,-1117.87C60.44,-1089.9 0,-1030.92 0,-965 0,-965 0,-965 0,-189 0,-138.31 8.41,-116.37 49,-86 99.89,-47.93 271.95,-30.79 379.72,-23.63"/>
<polygon fill="#2563eb" stroke="#2563eb" points="379.89,-26.07 386.72,-23.17 379.58,-21.18 379.89,-26.07"/>
</a>
</g>
</g>
<!-- GinibrePoincare.ginibreFullCenter -->
<g id="node14" class="node">
<title>GinibrePoincare.ginibreFullCenter</title>
<path fill="#f8fafc" stroke="#64748b" d="M158,-1068C158,-1068 76,-1068 76,-1068 70,-1068 64,-1062 64,-1056 64,-1056 64,-1044 64,-1044 64,-1038 70,-1032 76,-1032 76,-1032 158,-1032 158,-1032 164,-1032 170,-1038 170,-1044 170,-1044 170,-1056 170,-1056 170,-1062 164,-1068 158,-1068"/>
<text text-anchor="middle" x="117" y="-1047.2" font-family="sans-serif" font-size="11.00">ginibreFullCenter</text>
</g>
<!-- GinibrePoincare.fullTheoremOneNine&#45;&gt;GinibrePoincare.ginibreFullCenter -->
<!-- GinibrePoincare.ginibreFullCenter&#45;&gt;GinibrePoincare.fullTheoremOneNine_named -->
<g id="edge13" class="edge">
<title>GinibrePoincare.ginibreFullCenter&#45;&gt;GinibrePoincare.fullTheoremOneNine_named</title>
<g id="a_edge13"><a xlink:title="value">
<path fill="none" stroke="#2563eb" d="M96.56,-1031.75C83.19,-1019.3 66.5,-1001.34 57,-982 36.49,-940.21 38,-925.55 38,-879 38,-879 38,-879 38,-189 38,-138.31 46.64,-116.68 87,-86 131.94,-51.84 281.61,-33.72 380,-25.26"/>
<polygon fill="#2563eb" stroke="#2563eb" points="380.23,-27.7 386.99,-24.67 379.81,-22.82 380.23,-27.7"/>
</a>
</g>
</g>
<!-- GinibrePoincare.ginibreFullCenteredTransform -->
<g id="node15" class="node">
<title>GinibrePoincare.ginibreFullCenteredTransform</title>
<path fill="#f8fafc" stroke="#64748b" d="M226,-982C226,-982 78,-982 78,-982 72,-982 66,-976 66,-970 66,-970 66,-958 66,-958 66,-952 72,-946 78,-946 78,-946 226,-946 226,-946 232,-946 238,-952 238,-958 238,-958 238,-970 238,-970 238,-976 232,-982 226,-982"/>
<text text-anchor="middle" x="152" y="-961.2" font-family="sans-serif" font-size="11.00">ginibreFullCenteredTransform</text>
</g>
<!-- GinibrePoincare.ginibreFullCenter&#45;&gt;GinibrePoincare.ginibreFullCenteredTransform -->
<!-- GinibrePoincare.ginibreFullCenteredTransform&#45;&gt;GinibrePoincare.fullTheoremOneNine_named -->
<g id="edge14" class="edge">
<title>GinibrePoincare.ginibreFullCenteredTransform&#45;&gt;GinibrePoincare.fullTheoremOneNine_named</title>
<g id="a_edge14"><a xlink:title="value">
<path fill="none" stroke="#2563eb" d="M132.87,-945.82C120.13,-933.28 104.11,-915.17 95,-896 75.02,-853.96 76,-839.55 76,-793 76,-793 76,-793 76,-189 76,-138.11 85.66,-117.02 126,-86 164.92,-56.07 291.47,-37.25 379.71,-27.43"/>
<polygon fill="#2563eb" stroke="#2563eb" points="380.1,-29.85 386.79,-26.65 379.56,-24.98 380.1,-29.85"/>
</a>
</g>
</g>
<!-- GinibrePoincare.ginibreFullGenerator -->
<g id="node16" class="node">
<title>GinibrePoincare.ginibreFullGenerator</title>
<path fill="#f8fafc" stroke="#64748b" d="M217.5,-896C217.5,-896 116.5,-896 116.5,-896 110.5,-896 104.5,-890 104.5,-884 104.5,-884 104.5,-872 104.5,-872 104.5,-866 110.5,-860 116.5,-860 116.5,-860 217.5,-860 217.5,-860 223.5,-860 229.5,-866 229.5,-872 229.5,-872 229.5,-884 229.5,-884 229.5,-890 223.5,-896 217.5,-896"/>
<text text-anchor="middle" x="167" y="-875.2" font-family="sans-serif" font-size="11.00">ginibreFullGenerator</text>
</g>
<!-- GinibrePoincare.ginibreFullCenteredTransform&#45;&gt;GinibrePoincare.ginibreFullGenerator -->
<!-- GinibrePoincare.ginibreFullGenerator&#45;&gt;GinibrePoincare.fullTheoremOneNine_named -->
<g id="edge15" class="edge">
<title>GinibrePoincare.ginibreFullGenerator&#45;&gt;GinibrePoincare.fullTheoremOneNine_named</title>
<g id="a_edge15"><a xlink:title="both">
<path fill="none" stroke="#7e22ce" d="M156.63,-859.97C149.02,-846.77 139.02,-827.79 133,-810 118.09,-765.9 114,-753.55 114,-707 114,-707 114,-707 114,-189 114,-137.92 124.76,-117.47 165,-86 198.01,-60.19 302.37,-41.12 379.87,-30.06"/>
<polygon fill="#7e22ce" stroke="#7e22ce" points="380.22,-32.49 386.81,-29.08 379.54,-27.63 380.22,-32.49"/>
</a>
</g>
</g>
<!-- GinibrePoincare.ginibreFullHolomorphicRemainder -->
<g id="node17" class="node">
<title>GinibrePoincare.ginibreFullHolomorphicRemainder</title>
<path fill="#f8fafc" stroke="#64748b" d="M327.5,-810C327.5,-810 154.5,-810 154.5,-810 148.5,-810 142.5,-804 142.5,-798 142.5,-798 142.5,-786 142.5,-786 142.5,-780 148.5,-774 154.5,-774 154.5,-774 327.5,-774 327.5,-774 333.5,-774 339.5,-780 339.5,-786 339.5,-786 339.5,-798 339.5,-798 339.5,-804 333.5,-810 327.5,-810"/>
<text text-anchor="middle" x="241" y="-789.2" font-family="sans-serif" font-size="11.00">ginibreFullHolomorphicRemainder</text>
</g>
<!-- GinibrePoincare.ginibreFullGenerator&#45;&gt;GinibrePoincare.ginibreFullHolomorphicRemainder -->
<!-- GinibrePoincare.ginibreFullHolomorphicRemainder&#45;&gt;GinibrePoincare.fullTheoremOneNine_named -->
<g id="edge16" class="edge">
<title>GinibrePoincare.ginibreFullHolomorphicRemainder&#45;&gt;GinibrePoincare.fullTheoremOneNine_named</title>
<g id="a_edge16"><a xlink:title="value">
<path fill="none" stroke="#2563eb" d="M216.44,-773.91C200.94,-761.78 181.87,-744.13 171,-724 148.89,-683.03 152,-667.55 152,-621 152,-621 152,-621 152,-189 152,-137.72 163.96,-118.05 204,-86 253.65,-46.26 323.88,-29.75 379.71,-23.04"/>
<polygon fill="#2563eb" stroke="#2563eb" points="380.12,-25.46 386.79,-22.24 379.56,-20.6 380.12,-25.46"/>
</a>
</g>
</g>
<!-- GinibrePoincare.ginibreFullSymmetricOfReal -->
<g id="node18" class="node">
<title>GinibrePoincare.ginibreFullSymmetricOfReal</title>
<path fill="#f8fafc" stroke="#64748b" d="M329.5,-724C329.5,-724 192.5,-724 192.5,-724 186.5,-724 180.5,-718 180.5,-712 180.5,-712 180.5,-700 180.5,-700 180.5,-694 186.5,-688 192.5,-688 192.5,-688 329.5,-688 329.5,-688 335.5,-688 341.5,-694 341.5,-700 341.5,-700 341.5,-712 341.5,-712 341.5,-718 335.5,-724 329.5,-724"/>
<text text-anchor="middle" x="261" y="-703.2" font-family="sans-serif" font-size="11.00">ginibreFullSymmetricOfReal</text>
</g>
<!-- GinibrePoincare.ginibreFullHolomorphicRemainder&#45;&gt;GinibrePoincare.ginibreFullSymmetricOfReal -->
<!-- GinibrePoincare.ginibreFullSymmetricOfReal&#45;&gt;GinibrePoincare.fullTheoremOneNine_named -->
<g id="edge17" class="edge">
<title>GinibrePoincare.ginibreFullSymmetricOfReal&#45;&gt;GinibrePoincare.fullTheoremOneNine_named</title>
<g id="a_edge17"><a xlink:title="both">
<path fill="none" stroke="#7e22ce" d="M243.84,-687.78C232.19,-675.09 217.43,-656.81 209,-638 189.97,-595.52 190,-581.55 190,-535 190,-535 190,-535 190,-189 190,-137.31 204.07,-118.82 244,-86 282.26,-54.55 334.85,-37.86 379.68,-29.01"/>
<polygon fill="#7e22ce" stroke="#7e22ce" points="380.39,-31.37 386.8,-27.65 379.47,-26.55 380.39,-31.37"/>
</a>
</g>
</g>
<!-- GinibrePoincare.ginibreFullSymmetricValues -->
<g id="node19" class="node">
<title>GinibrePoincare.ginibreFullSymmetricValues</title>
<path fill="#f8fafc" stroke="#64748b" d="M367.5,-638C367.5,-638 230.5,-638 230.5,-638 224.5,-638 218.5,-632 218.5,-626 218.5,-626 218.5,-614 218.5,-614 218.5,-608 224.5,-602 230.5,-602 230.5,-602 367.5,-602 367.5,-602 373.5,-602 379.5,-608 379.5,-614 379.5,-614 379.5,-626 379.5,-626 379.5,-632 373.5,-638 367.5,-638"/>
<text text-anchor="middle" x="299" y="-617.2" font-family="sans-serif" font-size="11.00">ginibreFullSymmetricValues</text>
</g>
<!-- GinibrePoincare.ginibreFullSymmetricOfReal&#45;&gt;GinibrePoincare.ginibreFullSymmetricValues -->
<!-- GinibrePoincare.ginibreFullSymmetricValues&#45;&gt;GinibrePoincare.fullTheoremOneNine_named -->
<g id="edge18" class="edge">
<title>GinibrePoincare.ginibreFullSymmetricValues&#45;&gt;GinibrePoincare.fullTheoremOneNine_named</title>
<g id="a_edge18"><a xlink:title="both">
<path fill="none" stroke="#7e22ce" d="M281.84,-601.78C270.19,-589.09 255.43,-570.81 247,-552 227.97,-509.52 228,-495.55 228,-449 228,-449 228,-449 228,-189 228,-136.68 245.2,-119.96 285,-86 311.93,-63.02 347.37,-47.67 380.02,-37.53"/>
<polygon fill="#7e22ce" stroke="#7e22ce" points="380.95,-39.81 386.94,-35.45 379.53,-35.12 380.95,-39.81"/>
</a>
</g>
</g>
<!-- GinibrePoincare.ginibreL2Variance -->
<g id="node20" class="node">
<title>GinibrePoincare.ginibreL2Variance</title>
<path fill="#f8fafc" stroke="#64748b" d="M354,-552C354,-552 268,-552 268,-552 262,-552 256,-546 256,-540 256,-540 256,-528 256,-528 256,-522 262,-516 268,-516 268,-516 354,-516 354,-516 360,-516 366,-522 366,-528 366,-528 366,-540 366,-540 366,-546 360,-552 354,-552"/>
<text text-anchor="middle" x="311" y="-531.2" font-family="sans-serif" font-size="11.00">ginibreL2Variance</text>
</g>
<!-- GinibrePoincare.ginibreFullSymmetricValues&#45;&gt;GinibrePoincare.ginibreL2Variance -->
<!-- GinibrePoincare.ginibreL2Variance&#45;&gt;GinibrePoincare.fullTheoremOneNine_named -->
<g id="edge19" class="edge">
<title>GinibrePoincare.ginibreL2Variance&#45;&gt;GinibrePoincare.fullTheoremOneNine_named</title>
<g id="a_edge19"><a xlink:title="value">
<path fill="none" stroke="#2563eb" d="M303.16,-515.54C290.27,-485.17 266,-420.4 266,-363 266,-363 266,-363 266,-189 266,-136.24 286.1,-121.64 325,-86 348,-64.93 378.77,-49.44 406.06,-38.7"/>
<polygon fill="#2563eb" stroke="#2563eb" points="407.25,-40.86 412.91,-36.07 405.5,-36.29 407.25,-40.86"/>
</a>
</g>
</g>
<!-- GinibrePoincare.ginibreMeasure -->
<g id="node21" class="node">
<title>GinibrePoincare.ginibreMeasure</title>
<path fill="#f8fafc" stroke="#64748b" d="M380,-466C380,-466 306,-466 306,-466 300,-466 294,-460 294,-454 294,-454 294,-442 294,-442 294,-436 300,-430 306,-430 306,-430 380,-430 380,-430 386,-430 392,-436 392,-442 392,-442 392,-454 392,-454 392,-460 386,-466 380,-466"/>
<text text-anchor="middle" x="343" y="-445.2" font-family="sans-serif" font-size="11.00">ginibreMeasure</text>
</g>
<!-- GinibrePoincare.ginibreL2Variance&#45;&gt;GinibrePoincare.ginibreMeasure -->
<!-- GinibrePoincare.ginibreMeasure&#45;&gt;GinibrePoincare.fullTheoremOneNine_named -->
<g id="edge20" class="edge">
<title>GinibrePoincare.ginibreMeasure&#45;&gt;GinibrePoincare.fullTheoremOneNine_named</title>
<g id="a_edge20"><a xlink:title="both">
<path fill="none" stroke="#7e22ce" d="M336.38,-429.92C325.26,-399.62 304,-334.23 304,-277 304,-277 304,-277 304,-189 304,-118.53 377.92,-66.41 427.1,-39.53"/>
<polygon fill="#7e22ce" stroke="#7e22ce" points="428.56,-41.53 433.57,-36.06 426.24,-37.21 428.56,-41.53"/>
</a>
</g>
</g>
<!-- GinibrePoincare.ginibreSymmetricL2 -->
<g id="node22" class="node">
<title>GinibrePoincare.ginibreSymmetricL2</title>
<path fill="#f8fafc" stroke="#64748b" d="M440,-380C440,-380 344,-380 344,-380 338,-380 332,-374 332,-368 332,-368 332,-356 332,-356 332,-350 338,-344 344,-344 344,-344 440,-344 440,-344 446,-344 452,-350 452,-356 452,-356 452,-368 452,-368 452,-374 446,-380 440,-380"/>
<text text-anchor="middle" x="392" y="-359.2" font-family="sans-serif" font-size="11.00">ginibreSymmetricL2</text>
</g>
<!-- GinibrePoincare.ginibreMeasure&#45;&gt;GinibrePoincare.ginibreSymmetricL2 -->
<!-- GinibrePoincare.ginibreSymmetricL2&#45;&gt;GinibrePoincare.fullTheoremOneNine_named -->
<g id="edge21" class="edge">
<title>GinibrePoincare.ginibreSymmetricL2&#45;&gt;GinibrePoincare.fullTheoremOneNine_named</title>
<g id="a_edge21"><a xlink:title="both">
<path fill="none" stroke="#7e22ce" d="M381.52,-343.82C374.15,-330.71 364.94,-311.9 361,-294 357.56,-278.37 358.79,-273.85 361,-258 371.99,-179.28 371.62,-155.61 410,-86 419.24,-69.25 433.37,-53.19 445.6,-40.99"/>
<polygon fill="#7e22ce" stroke="#7e22ce" points="447.41,-42.65 450.71,-36.01 443.99,-39.15 447.41,-42.65"/>
</a>
</g>
</g>
<!-- GinibrePoincare.ginibreWeakEnergy -->
<g id="node23" class="node">
<title>GinibrePoincare.ginibreWeakEnergy</title>
<path fill="#f8fafc" stroke="#64748b" d="M474,-294C474,-294 382,-294 382,-294 376,-294 370,-288 370,-282 370,-282 370,-270 370,-270 370,-264 376,-258 382,-258 382,-258 474,-258 474,-258 480,-258 486,-264 486,-270 486,-270 486,-282 486,-282 486,-288 480,-294 474,-294"/>
<text text-anchor="middle" x="428" y="-273.2" font-family="sans-serif" font-size="11.00">ginibreWeakEnergy</text>
</g>
<!-- GinibrePoincare.ginibreSymmetricL2&#45;&gt;GinibrePoincare.ginibreWeakEnergy -->
<!-- GinibrePoincare.ginibreWeakEnergy&#45;&gt;GinibrePoincare.fullTheoremOneNine_named -->
<g id="edge22" class="edge">
<title>GinibrePoincare.ginibreWeakEnergy&#45;&gt;GinibrePoincare.fullTheoremOneNine_named</title>
<g id="a_edge22"><a xlink:title="value">
<path fill="none" stroke="#2563eb" d="M418.19,-257.74C411.29,-244.57 402.68,-225.75 399,-208 395.75,-192.33 396.25,-187.76 399,-172 407.58,-122.92 436.11,-71.5 454.29,-42.53"/>
<polygon fill="#2563eb" stroke="#2563eb" points="456.53,-43.57 458.22,-36.35 452.4,-40.94 456.53,-43.57"/>
</a>
</g>
</g>
<!-- GinibrePoincare.modeTail -->
<g id="node24" class="node">
<title>GinibrePoincare.modeTail</title>
<path fill="#f8fafc" stroke="#64748b" d="M460,-208C460,-208 420,-208 420,-208 414,-208 408,-202 408,-196 408,-196 408,-184 408,-184 408,-178 414,-172 420,-172 420,-172 460,-172 460,-172 466,-172 472,-178 472,-184 472,-184 472,-196 472,-196 472,-202 466,-208 460,-208"/>
<text text-anchor="middle" x="440" y="-187.2" font-family="sans-serif" font-size="11.00">modeTail</text>
</g>
<!-- GinibrePoincare.ginibreWeakEnergy&#45;&gt;GinibrePoincare.modeTail -->
<!-- GinibrePoincare.modeTail&#45;&gt;GinibrePoincare.fullTheoremOneNine_named -->
<g id="edge23" class="edge">
<title>GinibrePoincare.modeTail&#45;&gt;GinibrePoincare.fullTheoremOneNine_named</title>
<g id="a_edge23"><a xlink:title="value">
<path fill="none" stroke="#2563eb" d="M436.88,-171.97C433.69,-151.32 430.1,-115.62 437,-86 440.58,-70.62 448.22,-54.71 455.25,-42.26"/>
<polygon fill="#2563eb" stroke="#2563eb" points="457.44,-43.37 458.85,-36.08 453.21,-40.9 457.44,-43.37"/>
</a>
</g>
</g>
<!-- GinibrePoincare.positiveHermiteModeMass -->
<g id="node25" class="node">
<title>GinibrePoincare.positiveHermiteModeMass</title>
<path fill="#f8fafc" stroke="#64748b" d="M588,-122C588,-122 458,-122 458,-122 452,-122 446,-116 446,-110 446,-110 446,-98 446,-98 446,-92 452,-86 458,-86 458,-86 588,-86 588,-86 594,-86 600,-92 600,-98 600,-98 600,-110 600,-110 600,-116 594,-122 588,-122"/>
<text text-anchor="middle" x="523" y="-101.2" font-family="sans-serif" font-size="11.00">positiveHermiteModeMass</text>
</g>
<!-- GinibrePoincare.modeTail&#45;&gt;GinibrePoincare.positiveHermiteModeMass -->
<!-- GinibrePoincare.positiveHermiteModeMass&#45;&gt;GinibrePoincare.fullTheoremOneNine_named -->
<g id="edge24" class="edge">
<title>GinibrePoincare.positiveHermiteModeMass&#45;&gt;GinibrePoincare.fullTheoremOneNine_named</title>
<g id="a_edge24"><a xlink:title="value">
<path fill="none" stroke="#2563eb" d="M512.02,-85.6C504.08,-73.01 493.27,-55.88 484.6,-42.14"/>
<polygon fill="#2563eb" stroke="#2563eb" points="486.59,-40.71 480.79,-36.1 482.45,-43.32 486.59,-40.71"/>
</a>
</g>
</g>
</g>
</svg>
