<?xml version="1.0" encoding="UTF-8" standalone="no"?>
<!DOCTYPE svg PUBLIC "-//W3C//DTD SVG 1.1//EN"
 "http://www.w3.org/Graphics/SVG/1.1/DTD/svg11.dtd">
<!-- Generated by graphviz version 2.42.4 (0)
 -->
<!-- Title: formal_dependencies Pages: 1 -->
<svg width="795pt" height="1493pt"
 viewBox="0.00 0.00 795.20 1493.20" xmlns="http://www.w3.org/2000/svg" xmlns:xlink="http://www.w3.org/1999/xlink">
<g id="graph0" class="graph" transform="scale(1 1) rotate(0) translate(21.6 1471.6)">
<title>formal_dependencies</title>
<polygon fill="white" stroke="transparent" points="-21.6,21.6 -21.6,-1471.6 773.6,-1471.6 773.6,21.6 -21.6,21.6"/>
<text text-anchor="middle" x="376" y="-1434.8" font-family="sans-serif" font-size="14.00">Exact direct local declaration references</text>
<text text-anchor="middle" x="376" y="-1419.8" font-family="sans-serif" font-size="14.00">Compiled references; statement review recorded separately</text>
<!-- GinibrePoincare.Configuration -->
<g id="node1" class="node">
<title>GinibrePoincare.Configuration</title>
<path fill="#f8fafc" stroke="#64748b" d="M737,-1412C737,-1412 673,-1412 673,-1412 667,-1412 661,-1406 661,-1400 661,-1400 661,-1388 661,-1388 661,-1382 667,-1376 673,-1376 673,-1376 737,-1376 737,-1376 743,-1376 749,-1382 749,-1388 749,-1388 749,-1400 749,-1400 749,-1406 743,-1412 737,-1412"/>
<text text-anchor="middle" x="705" y="-1391.2" font-family="sans-serif" font-size="11.00">Configuration</text>
</g>
<!-- GinibrePoincare.GinibreFullComplexL2 -->
<g id="node2" class="node">
<title>GinibrePoincare.GinibreFullComplexL2</title>
<path fill="#f8fafc" stroke="#64748b" d="M711.5,-1326C711.5,-1326 604.5,-1326 604.5,-1326 598.5,-1326 592.5,-1320 592.5,-1314 592.5,-1314 592.5,-1302 592.5,-1302 592.5,-1296 598.5,-1290 604.5,-1290 604.5,-1290 711.5,-1290 711.5,-1290 717.5,-1290 723.5,-1296 723.5,-1302 723.5,-1302 723.5,-1314 723.5,-1314 723.5,-1320 717.5,-1326 711.5,-1326"/>
<text text-anchor="middle" x="658" y="-1305.2" font-family="sans-serif" font-size="11.00">GinibreFullComplexL2</text>
</g>
<!-- GinibrePoincare.Configuration&#45;&gt;GinibrePoincare.GinibreFullComplexL2 -->
<!-- GinibrePoincare.correspondenceOperatorEvolution_ergodic -->
<g id="node9" class="node">
<title>GinibrePoincare.correspondenceOperatorEvolution_ergodic</title>
<path fill="#dbeafe" stroke="#2563eb" stroke-width="2" d="M493.5,-36C493.5,-36 278.5,-36 278.5,-36 272.5,-36 266.5,-30 266.5,-24 266.5,-24 266.5,-12 266.5,-12 266.5,-6 272.5,0 278.5,0 278.5,0 493.5,0 493.5,0 499.5,0 505.5,-6 505.5,-12 505.5,-12 505.5,-24 505.5,-24 505.5,-30 499.5,-36 493.5,-36"/>
<text text-anchor="middle" x="386" y="-15.2" font-family="sans-serif" font-size="11.00">correspondenceOperatorEvolution_ergodic</text>
</g>
<!-- GinibrePoincare.Configuration&#45;&gt;GinibrePoincare.correspondenceOperatorEvolution_ergodic -->
<g id="edge1" class="edge">
<title>GinibrePoincare.Configuration&#45;&gt;GinibrePoincare.correspondenceOperatorEvolution_ergodic</title>
<g id="a_edge1"><a xlink:title="both">
<path fill="none" stroke="#7e22ce" d="M713.42,-1375.74C719.61,-1362.42 727.82,-1343.4 733,-1326 746.27,-1281.38 752,-1269.55 752,-1223 752,-1223 752,-1223 752,-189 752,-80.7 618.56,-41.21 512.83,-26.91"/>
<polygon fill="#7e22ce" stroke="#7e22ce" points="512.85,-24.44 505.59,-25.97 512.21,-29.3 512.85,-24.44"/>
</a>
</g>
</g>
<!-- GinibrePoincare.GinibreFullComplexL2._proof_1 -->
<g id="node3" class="node">
<title>GinibrePoincare.GinibreFullComplexL2._proof_1</title>
<path fill="#f8fafc" stroke="#64748b" d="M673.5,-1240C673.5,-1240 518.5,-1240 518.5,-1240 512.5,-1240 506.5,-1234 506.5,-1228 506.5,-1228 506.5,-1216 506.5,-1216 506.5,-1210 512.5,-1204 518.5,-1204 518.5,-1204 673.5,-1204 673.5,-1204 679.5,-1204 685.5,-1210 685.5,-1216 685.5,-1216 685.5,-1228 685.5,-1228 685.5,-1234 679.5,-1240 673.5,-1240"/>
<text text-anchor="middle" x="596" y="-1219.2" font-family="sans-serif" font-size="11.00">GinibreFullComplexL2._proof_1</text>
</g>
<!-- GinibrePoincare.GinibreFullComplexL2&#45;&gt;GinibrePoincare.GinibreFullComplexL2._proof_1 -->
<!-- GinibrePoincare.GinibreFullComplexL2&#45;&gt;GinibrePoincare.correspondenceOperatorEvolution_ergodic -->
<g id="edge2" class="edge">
<title>GinibrePoincare.GinibreFullComplexL2&#45;&gt;GinibrePoincare.correspondenceOperatorEvolution_ergodic</title>
<g id="a_edge2"><a xlink:title="both">
<path fill="none" stroke="#7e22ce" d="M669.14,-1289.76C677.17,-1276.61 687.66,-1257.79 694,-1240 709.66,-1196.07 714,-1183.63 714,-1137 714,-1137 714,-1137 714,-189 714,-94.36 605.03,-52.34 512.71,-33.72"/>
<polygon fill="#7e22ce" stroke="#7e22ce" points="513.15,-31.31 505.81,-32.37 512.2,-36.12 513.15,-31.31"/>
</a>
</g>
</g>
<!-- GinibrePoincare.correspondenceOperatorComplexResolvent -->
<g id="node4" class="node">
<title>GinibrePoincare.correspondenceOperatorComplexResolvent</title>
<path fill="#f8fafc" stroke="#64748b" d="M636,-1154C636,-1154 418,-1154 418,-1154 412,-1154 406,-1148 406,-1142 406,-1142 406,-1130 406,-1130 406,-1124 412,-1118 418,-1118 418,-1118 636,-1118 636,-1118 642,-1118 648,-1124 648,-1130 648,-1130 648,-1142 648,-1142 648,-1148 642,-1154 636,-1154"/>
<text text-anchor="middle" x="527" y="-1133.2" font-family="sans-serif" font-size="11.00">correspondenceOperatorComplexResolvent</text>
</g>
<!-- GinibrePoincare.GinibreFullComplexL2._proof_1&#45;&gt;GinibrePoincare.correspondenceOperatorComplexResolvent -->
<!-- GinibrePoincare.GinibreFullComplexL2._proof_1&#45;&gt;GinibrePoincare.correspondenceOperatorEvolution_ergodic -->
<g id="edge3" class="edge">
<title>GinibrePoincare.GinibreFullComplexL2._proof_1&#45;&gt;GinibrePoincare.correspondenceOperatorEvolution_ergodic</title>
<g id="a_edge3"><a xlink:title="both">
<path fill="none" stroke="#7e22ce" d="M616.78,-1203.81C630.38,-1191.4 647.35,-1173.45 657,-1154 677.69,-1112.3 676,-1097.55 676,-1051 676,-1051 676,-1051 676,-189 676,-136.24 658.47,-118.61 617,-86 587.03,-62.43 549.05,-47.15 512.58,-37.24"/>
<polygon fill="#7e22ce" stroke="#7e22ce" points="513.19,-34.87 505.79,-35.45 511.94,-39.61 513.19,-34.87"/>
</a>
</g>
</g>
<!-- GinibrePoincare.correspondenceOperatorComplexResolvent_isSelfAdjoint -->
<g id="node5" class="node">
<title>GinibrePoincare.correspondenceOperatorComplexResolvent_isSelfAdjoint</title>
<path fill="#f8fafc" stroke="#64748b" d="M597.5,-1068C597.5,-1068 310.5,-1068 310.5,-1068 304.5,-1068 298.5,-1062 298.5,-1056 298.5,-1056 298.5,-1044 298.5,-1044 298.5,-1038 304.5,-1032 310.5,-1032 310.5,-1032 597.5,-1032 597.5,-1032 603.5,-1032 609.5,-1038 609.5,-1044 609.5,-1044 609.5,-1056 609.5,-1056 609.5,-1062 603.5,-1068 597.5,-1068"/>
<text text-anchor="middle" x="454" y="-1047.2" font-family="sans-serif" font-size="11.00">correspondenceOperatorComplexResolvent_isSelfAdjoint</text>
</g>
<!-- GinibrePoincare.correspondenceOperatorComplexResolvent&#45;&gt;GinibrePoincare.correspondenceOperatorComplexResolvent_isSelfAdjoint -->
<!-- GinibrePoincare.correspondenceOperatorComplexResolvent&#45;&gt;GinibrePoincare.correspondenceOperatorEvolution_ergodic -->
<g id="edge4" class="edge">
<title>GinibrePoincare.correspondenceOperatorComplexResolvent&#45;&gt;GinibrePoincare.correspondenceOperatorEvolution_ergodic</title>
<g id="a_edge4"><a xlink:title="value">
<path fill="none" stroke="#2563eb" d="M561.53,-1117.95C581.11,-1106.5 604.37,-1089.55 618,-1068 642.93,-1028.59 638,-1011.63 638,-965 638,-965 638,-965 638,-189 638,-137.52 624.04,-119.56 585,-86 558.48,-63.2 523.9,-48.08 491.01,-38.09"/>
<polygon fill="#2563eb" stroke="#2563eb" points="491.43,-35.66 484.03,-36.03 490.05,-40.36 491.43,-35.66"/>
</a>
</g>
</g>
<!-- GinibrePoincare.correspondenceOperatorComplexResolvent_spectrum -->
<g id="node6" class="node">
<title>GinibrePoincare.correspondenceOperatorComplexResolvent_spectrum</title>
<path fill="#f8fafc" stroke="#64748b" d="M560,-982C560,-982 288,-982 288,-982 282,-982 276,-976 276,-970 276,-970 276,-958 276,-958 276,-952 282,-946 288,-946 288,-946 560,-946 560,-946 566,-946 572,-952 572,-958 572,-958 572,-970 572,-970 572,-976 566,-982 560,-982"/>
<text text-anchor="middle" x="424" y="-961.2" font-family="sans-serif" font-size="11.00">correspondenceOperatorComplexResolvent_spectrum</text>
</g>
<!-- GinibrePoincare.correspondenceOperatorComplexResolvent_isSelfAdjoint&#45;&gt;GinibrePoincare.correspondenceOperatorComplexResolvent_spectrum -->
<!-- GinibrePoincare.correspondenceOperatorComplexResolvent_isSelfAdjoint&#45;&gt;GinibrePoincare.correspondenceOperatorEvolution_ergodic -->
<g id="edge5" class="edge">
<title>GinibrePoincare.correspondenceOperatorComplexResolvent_isSelfAdjoint&#45;&gt;GinibrePoincare.correspondenceOperatorEvolution_ergodic</title>
<g id="a_edge5"><a xlink:title="value">
<path fill="none" stroke="#2563eb" d="M510.39,-1031.98C535.71,-1021.51 563.73,-1005.5 581,-982 608.57,-944.49 600,-925.55 600,-879 600,-879 600,-879 600,-189 600,-139.04 590.93,-120.71 555,-86 531.89,-63.68 500.44,-48.51 470.93,-38.34"/>
<polygon fill="#2563eb" stroke="#2563eb" points="471.69,-36.01 464.27,-36.12 470.14,-40.66 471.69,-36.01"/>
</a>
</g>
</g>
<!-- GinibrePoincare.correspondenceOperatorEvolution -->
<g id="node7" class="node">
<title>GinibrePoincare.correspondenceOperatorEvolution</title>
<path fill="#f8fafc" stroke="#64748b" d="M509,-896C509,-896 339,-896 339,-896 333,-896 327,-890 327,-884 327,-884 327,-872 327,-872 327,-866 333,-860 339,-860 339,-860 509,-860 509,-860 515,-860 521,-866 521,-872 521,-872 521,-884 521,-884 521,-890 515,-896 509,-896"/>
<text text-anchor="middle" x="424" y="-875.2" font-family="sans-serif" font-size="11.00">correspondenceOperatorEvolution</text>
</g>
<!-- GinibrePoincare.correspondenceOperatorComplexResolvent_spectrum&#45;&gt;GinibrePoincare.correspondenceOperatorEvolution -->
<!-- GinibrePoincare.correspondenceOperatorComplexResolvent_spectrum&#45;&gt;GinibrePoincare.correspondenceOperatorEvolution_ergodic -->
<g id="edge6" class="edge">
<title>GinibrePoincare.correspondenceOperatorComplexResolvent_spectrum&#45;&gt;GinibrePoincare.correspondenceOperatorEvolution_ergodic</title>
<g id="a_edge6"><a xlink:title="value">
<path fill="none" stroke="#2563eb" d="M464.54,-945.95C486.75,-934.73 513.11,-918.03 530,-896 559.17,-857.96 562,-840.94 562,-793 562,-793 562,-793 562,-189 562,-140.79 559.95,-122.1 528,-86 508.77,-64.26 480.97,-49.02 455.05,-38.62"/>
<polygon fill="#2563eb" stroke="#2563eb" points="455.93,-36.33 448.51,-36.08 454.15,-40.9 455.93,-36.33"/>
</a>
</g>
</g>
<!-- GinibrePoincare.correspondenceOperatorEvolution_constant -->
<g id="node8" class="node">
<title>GinibrePoincare.correspondenceOperatorEvolution_constant</title>
<path fill="#f8fafc" stroke="#64748b" d="M278,-810C278,-810 58,-810 58,-810 52,-810 46,-804 46,-798 46,-798 46,-786 46,-786 46,-780 52,-774 58,-774 58,-774 278,-774 278,-774 284,-774 290,-780 290,-786 290,-786 290,-798 290,-798 290,-804 284,-810 278,-810"/>
<text text-anchor="middle" x="168" y="-789.2" font-family="sans-serif" font-size="11.00">correspondenceOperatorEvolution_constant</text>
</g>
<!-- GinibrePoincare.correspondenceOperatorEvolution&#45;&gt;GinibrePoincare.correspondenceOperatorEvolution_constant -->
<!-- GinibrePoincare.correspondenceOperatorEvolution&#45;&gt;GinibrePoincare.correspondenceOperatorEvolution_ergodic -->
<g id="edge7" class="edge">
<title>GinibrePoincare.correspondenceOperatorEvolution&#45;&gt;GinibrePoincare.correspondenceOperatorEvolution_ergodic</title>
<g id="a_edge7"><a xlink:title="both">
<path fill="none" stroke="#7e22ce" d="M442.81,-859.64C471.78,-830.92 524,-770.35 524,-707 524,-707 524,-707 524,-189 524,-142.45 532.06,-123.88 505,-86 489.95,-64.93 466.08,-49.64 443.66,-39.04"/>
<polygon fill="#7e22ce" stroke="#7e22ce" points="444.46,-36.71 437.07,-36.03 442.42,-41.17 444.46,-36.71"/>
</a>
</g>
</g>
<!-- GinibrePoincare.correspondenceOperatorEvolution_constant&#45;&gt;GinibrePoincare.correspondenceOperatorEvolution_ergodic -->
<g id="edge8" class="edge">
<title>GinibrePoincare.correspondenceOperatorEvolution_constant&#45;&gt;GinibrePoincare.correspondenceOperatorEvolution_ergodic</title>
<g id="a_edge8"><a xlink:title="value">
<path fill="none" stroke="#2563eb" d="M120.47,-773.92C95.35,-762.91 65.54,-746.41 45,-724 11.24,-687.18 0,-670.96 0,-621 0,-621 0,-621 0,-189 0,-73.44 146.7,-35.75 259.23,-23.84"/>
<polygon fill="#2563eb" stroke="#2563eb" points="259.53,-26.27 266.25,-23.13 259.03,-21.4 259.53,-26.27"/>
</a>
</g>
</g>
<!-- GinibrePoincare.correspondenceOperator_constant_inner -->
<g id="node10" class="node">
<title>GinibrePoincare.correspondenceOperator_constant_inner</title>
<path fill="#f8fafc" stroke="#64748b" d="M270,-724C270,-724 66,-724 66,-724 60,-724 54,-718 54,-712 54,-712 54,-700 54,-700 54,-694 60,-688 66,-688 66,-688 270,-688 270,-688 276,-688 282,-694 282,-700 282,-700 282,-712 282,-712 282,-718 276,-724 270,-724"/>
<text text-anchor="middle" x="168" y="-703.2" font-family="sans-serif" font-size="11.00">correspondenceOperator_constant_inner</text>
</g>
<!-- GinibrePoincare.correspondenceOperatorEvolution_constant&#45;&gt;GinibrePoincare.correspondenceOperator_constant_inner -->
<!-- GinibrePoincare.correspondenceOperator_constant_inner&#45;&gt;GinibrePoincare.correspondenceOperatorEvolution_ergodic -->
<g id="edge9" class="edge">
<title>GinibrePoincare.correspondenceOperator_constant_inner&#45;&gt;GinibrePoincare.correspondenceOperatorEvolution_ergodic</title>
<g id="a_edge9"><a xlink:title="value">
<path fill="none" stroke="#2563eb" d="M122,-687.98C98.99,-677.13 72.75,-660.77 57,-638 30.52,-599.71 38,-581.55 38,-535 38,-535 38,-535 38,-189 38,-87.22 159.66,-46.37 259.12,-29.97"/>
<polygon fill="#2563eb" stroke="#2563eb" points="259.71,-32.36 266.24,-28.84 258.94,-27.52 259.71,-32.36"/>
</a>
</g>
</g>
<!-- GinibrePoincare.correspondenceOperator_constant_one_inner -->
<g id="node11" class="node">
<title>GinibrePoincare.correspondenceOperator_constant_one_inner</title>
<path fill="#f8fafc" stroke="#64748b" d="M307.5,-638C307.5,-638 78.5,-638 78.5,-638 72.5,-638 66.5,-632 66.5,-626 66.5,-626 66.5,-614 66.5,-614 66.5,-608 72.5,-602 78.5,-602 78.5,-602 307.5,-602 307.5,-602 313.5,-602 319.5,-608 319.5,-614 319.5,-614 319.5,-626 319.5,-626 319.5,-632 313.5,-638 307.5,-638"/>
<text text-anchor="middle" x="193" y="-617.2" font-family="sans-serif" font-size="11.00">correspondenceOperator_constant_one_inner</text>
</g>
<!-- GinibrePoincare.correspondenceOperator_constant_inner&#45;&gt;GinibrePoincare.correspondenceOperator_constant_one_inner -->
<!-- GinibrePoincare.correspondenceOperator_constant_one_inner&#45;&gt;GinibrePoincare.correspondenceOperatorEvolution_ergodic -->
<g id="edge10" class="edge">
<title>GinibrePoincare.correspondenceOperator_constant_one_inner&#45;&gt;GinibrePoincare.correspondenceOperatorEvolution_ergodic</title>
<g id="a_edge10"><a xlink:title="value">
<path fill="none" stroke="#2563eb" d="M154.3,-601.82C133.5,-590.6 109.27,-573.94 95,-552 69.62,-512.98 76,-495.55 76,-449 76,-449 76,-449 76,-189 76,-100.85 173.56,-58.1 259.22,-37.56"/>
<polygon fill="#2563eb" stroke="#2563eb" points="259.89,-39.92 266.15,-35.94 258.77,-35.15 259.89,-39.92"/>
</a>
</g>
</g>
<!-- GinibrePoincare.correspondenceOperator_ergodic_complement_closure -->
<g id="node12" class="node">
<title>GinibrePoincare.correspondenceOperator_ergodic_complement_closure</title>
<path fill="#f8fafc" stroke="#64748b" d="M396,-552C396,-552 116,-552 116,-552 110,-552 104,-546 104,-540 104,-540 104,-528 104,-528 104,-522 110,-516 116,-516 116,-516 396,-516 396,-516 402,-516 408,-522 408,-528 408,-528 408,-540 408,-540 408,-546 402,-552 396,-552"/>
<text text-anchor="middle" x="256" y="-531.2" font-family="sans-serif" font-size="11.00">correspondenceOperator_ergodic_complement_closure</text>
</g>
<!-- GinibrePoincare.correspondenceOperator_constant_one_inner&#45;&gt;GinibrePoincare.correspondenceOperator_ergodic_complement_closure -->
<!-- GinibrePoincare.correspondenceOperator_ergodic_complement_closure&#45;&gt;GinibrePoincare.correspondenceOperatorEvolution_ergodic -->
<g id="edge11" class="edge">
<title>GinibrePoincare.correspondenceOperator_ergodic_complement_closure&#45;&gt;GinibrePoincare.correspondenceOperatorEvolution_ergodic</title>
<g id="a_edge11"><a xlink:title="value">
<path fill="none" stroke="#2563eb" d="M202.3,-515.97C177.52,-505.42 149.91,-489.33 133,-466 105.68,-428.31 114,-409.55 114,-363 114,-363 114,-363 114,-189 114,-103.73 211.32,-59.64 289.53,-37.98"/>
<polygon fill="#2563eb" stroke="#2563eb" points="290.44,-40.28 296.56,-36.08 289.16,-35.55 290.44,-40.28"/>
</a>
</g>
</g>
<!-- GinibrePoincare.correspondenceOperator_mean_zero_mem_complement_closure -->
<g id="node13" class="node">
<title>GinibrePoincare.correspondenceOperator_mean_zero_mem_complement_closure</title>
<path fill="#f8fafc" stroke="#64748b" d="M484,-466C484,-466 154,-466 154,-466 148,-466 142,-460 142,-454 142,-454 142,-442 142,-442 142,-436 148,-430 154,-430 154,-430 484,-430 484,-430 490,-430 496,-436 496,-442 496,-442 496,-454 496,-454 496,-460 490,-466 484,-466"/>
<text text-anchor="middle" x="319" y="-445.2" font-family="sans-serif" font-size="11.00">correspondenceOperator_mean_zero_mem_complement_closure</text>
</g>
<!-- GinibrePoincare.correspondenceOperator_ergodic_complement_closure&#45;&gt;GinibrePoincare.correspondenceOperator_mean_zero_mem_complement_closure -->
<!-- GinibrePoincare.correspondenceOperator_mean_zero_mem_complement_closure&#45;&gt;GinibrePoincare.correspondenceOperatorEvolution_ergodic -->
<g id="edge12" class="edge">
<title>GinibrePoincare.correspondenceOperator_mean_zero_mem_complement_closure&#45;&gt;GinibrePoincare.correspondenceOperatorEvolution_ergodic</title>
<g id="a_edge12"><a xlink:title="value">
<path fill="none" stroke="#2563eb" d="M295.84,-429.83C280.88,-417.55 262.19,-399.76 251,-380 227.78,-339.01 226,-324.11 226,-277 226,-277 226,-277 226,-189 226,-119.57 297.65,-66.94 345.05,-39.71"/>
<polygon fill="#2563eb" stroke="#2563eb" points="346.39,-41.77 351.28,-36.2 343.98,-37.5 346.39,-41.77"/>
</a>
</g>
</g>
<!-- GinibrePoincare.ginibreFullConstant -->
<g id="node14" class="node">
<title>GinibrePoincare.ginibreFullConstant</title>
<path fill="#f8fafc" stroke="#64748b" d="M366,-380C366,-380 272,-380 272,-380 266,-380 260,-374 260,-368 260,-368 260,-356 260,-356 260,-350 266,-344 272,-344 272,-344 366,-344 366,-344 372,-344 378,-350 378,-356 378,-356 378,-368 378,-368 378,-374 372,-380 366,-380"/>
<text text-anchor="middle" x="319" y="-359.2" font-family="sans-serif" font-size="11.00">ginibreFullConstant</text>
</g>
<!-- GinibrePoincare.correspondenceOperator_mean_zero_mem_complement_closure&#45;&gt;GinibrePoincare.ginibreFullConstant -->
<!-- GinibrePoincare.ginibreFullConstant&#45;&gt;GinibrePoincare.correspondenceOperatorEvolution_ergodic -->
<g id="edge13" class="edge">
<title>GinibrePoincare.ginibreFullConstant&#45;&gt;GinibrePoincare.correspondenceOperatorEvolution_ergodic</title>
<g id="a_edge13"><a xlink:title="both">
<path fill="none" stroke="#7e22ce" d="M306.66,-343.79C298.15,-330.81 287.58,-312.18 283,-294 279.1,-278.48 280.74,-273.84 283,-258 294.22,-179.19 296.52,-156.76 333,-86 341.31,-69.88 353.77,-53.88 364.53,-41.55"/>
<polygon fill="#7e22ce" stroke="#7e22ce" points="366.5,-43.02 369.33,-36.16 362.84,-39.76 366.5,-43.02"/>
</a>
</g>
</g>
<!-- GinibrePoincare.ginibreMeasure -->
<g id="node15" class="node">
<title>GinibrePoincare.ginibreMeasure</title>
<path fill="#f8fafc" stroke="#64748b" d="M378,-294C378,-294 304,-294 304,-294 298,-294 292,-288 292,-282 292,-282 292,-270 292,-270 292,-264 298,-258 304,-258 304,-258 378,-258 378,-258 384,-258 390,-264 390,-270 390,-270 390,-282 390,-282 390,-288 384,-294 378,-294"/>
<text text-anchor="middle" x="341" y="-273.2" font-family="sans-serif" font-size="11.00">ginibreMeasure</text>
</g>
<!-- GinibrePoincare.ginibreFullConstant&#45;&gt;GinibrePoincare.ginibreMeasure -->
<!-- GinibrePoincare.ginibreMeasure&#45;&gt;GinibrePoincare.correspondenceOperatorEvolution_ergodic -->
<g id="edge14" class="edge">
<title>GinibrePoincare.ginibreMeasure&#45;&gt;GinibrePoincare.correspondenceOperatorEvolution_ergodic</title>
<g id="a_edge14"><a xlink:title="both">
<path fill="none" stroke="#7e22ce" d="M333.7,-257.89C325.9,-237.46 315.39,-202.27 321,-172 329.99,-123.46 355.99,-71.47 372.25,-42.32"/>
<polygon fill="#7e22ce" stroke="#7e22ce" points="374.45,-43.41 375.76,-36.11 370.19,-41 374.45,-43.41"/>
</a>
</g>
</g>
<!-- GinibrePoincare.ginibreSymmetricL2 -->
<g id="node16" class="node">
<title>GinibrePoincare.ginibreSymmetricL2</title>
<path fill="#f8fafc" stroke="#64748b" d="M438,-208C438,-208 342,-208 342,-208 336,-208 330,-202 330,-196 330,-196 330,-184 330,-184 330,-178 336,-172 342,-172 342,-172 438,-172 438,-172 444,-172 450,-178 450,-184 450,-184 450,-196 450,-196 450,-202 444,-208 438,-208"/>
<text text-anchor="middle" x="390" y="-187.2" font-family="sans-serif" font-size="11.00">ginibreSymmetricL2</text>
</g>
<!-- GinibrePoincare.ginibreMeasure&#45;&gt;GinibrePoincare.ginibreSymmetricL2 -->
<!-- GinibrePoincare.ginibreSymmetricL2&#45;&gt;GinibrePoincare.correspondenceOperatorEvolution_ergodic -->
<g id="edge15" class="edge">
<title>GinibrePoincare.ginibreSymmetricL2&#45;&gt;GinibrePoincare.correspondenceOperatorEvolution_ergodic</title>
<g id="a_edge15"><a xlink:title="both">
<path fill="none" stroke="#7e22ce" d="M379.52,-171.82C372.15,-158.71 362.94,-139.9 359,-122 352.94,-94.47 363.68,-63.19 373.36,-42.4"/>
<polygon fill="#7e22ce" stroke="#7e22ce" points="375.59,-43.4 376.44,-36.03 371.18,-41.26 375.59,-43.4"/>
</a>
</g>
</g>
<!-- GinibrePoincare.resolventCfcEvolution -->
<g id="node17" class="node">
<title>GinibrePoincare.resolventCfcEvolution</title>
<path fill="#f8fafc" stroke="#64748b" d="M484,-122C484,-122 380,-122 380,-122 374,-122 368,-116 368,-110 368,-110 368,-98 368,-98 368,-92 374,-86 380,-86 380,-86 484,-86 484,-86 490,-86 496,-92 496,-98 496,-98 496,-110 496,-110 496,-116 490,-122 484,-122"/>
<text text-anchor="middle" x="432" y="-101.2" font-family="sans-serif" font-size="11.00">resolventCfcEvolution</text>
</g>
<!-- GinibrePoincare.ginibreSymmetricL2&#45;&gt;GinibrePoincare.resolventCfcEvolution -->
<!-- GinibrePoincare.resolventCfcEvolution&#45;&gt;GinibrePoincare.correspondenceOperatorEvolution_ergodic -->
<g id="edge16" class="edge">
<title>GinibrePoincare.resolventCfcEvolution&#45;&gt;GinibrePoincare.correspondenceOperatorEvolution_ergodic</title>
<g id="a_edge16"><a xlink:title="value">
<path fill="none" stroke="#2563eb" d="M422.47,-85.6C415.64,-73.12 406.36,-56.18 398.88,-42.51"/>
<polygon fill="#2563eb" stroke="#2563eb" points="400.87,-41.06 395.36,-36.1 396.57,-43.41 400.87,-41.06"/>
</a>
</g>
</g>
</g>
</svg>
