<?xml version="1.0" encoding="UTF-8" standalone="no"?>
<!DOCTYPE svg PUBLIC "-//W3C//DTD SVG 1.1//EN"
 "http://www.w3.org/Graphics/SVG/1.1/DTD/svg11.dtd">
<!-- Generated by graphviz version 2.42.4 (0)
 -->
<!-- Title: formal_dependencies Pages: 1 -->
<svg width="499pt" height="977pt"
 viewBox="0.00 0.00 498.77 977.20" xmlns="http://www.w3.org/2000/svg" xmlns:xlink="http://www.w3.org/1999/xlink">
<g id="graph0" class="graph" transform="scale(1 1) rotate(0) translate(21.6 955.6)">
<title>formal_dependencies</title>
<polygon fill="white" stroke="transparent" points="-21.6,21.6 -21.6,-955.6 477.17,-955.6 477.17,21.6 -21.6,21.6"/>
<text text-anchor="middle" x="227.79" y="-918.8" font-family="sans-serif" font-size="14.00">Exact direct local declaration references</text>
<text text-anchor="middle" x="227.79" y="-903.8" font-family="sans-serif" font-size="14.00">Compiled references; statement review recorded separately</text>
<!-- GinibrePoincare.Configuration -->
<g id="node1" class="node">
<title>GinibrePoincare.Configuration</title>
<path fill="#f8fafc" stroke="#64748b" d="M318.57,-896C318.57,-896 254.57,-896 254.57,-896 248.57,-896 242.57,-890 242.57,-884 242.57,-884 242.57,-872 242.57,-872 242.57,-866 248.57,-860 254.57,-860 254.57,-860 318.57,-860 318.57,-860 324.57,-860 330.57,-866 330.57,-872 330.57,-872 330.57,-884 330.57,-884 330.57,-890 324.57,-896 318.57,-896"/>
<text text-anchor="middle" x="286.57" y="-875.2" font-family="sans-serif" font-size="11.00">Configuration</text>
</g>
<!-- GinibrePoincare.GinibreMatrixCoordinates -->
<g id="node2" class="node">
<title>GinibrePoincare.GinibreMatrixCoordinates</title>
<path fill="#f8fafc" stroke="#64748b" d="M180.57,-810C180.57,-810 54.57,-810 54.57,-810 48.57,-810 42.57,-804 42.57,-798 42.57,-798 42.57,-786 42.57,-786 42.57,-780 48.57,-774 54.57,-774 54.57,-774 180.57,-774 180.57,-774 186.57,-774 192.57,-780 192.57,-786 192.57,-786 192.57,-798 192.57,-798 192.57,-804 186.57,-810 180.57,-810"/>
<text text-anchor="middle" x="117.57" y="-789.2" font-family="sans-serif" font-size="11.00">GinibreMatrixCoordinates</text>
</g>
<!-- GinibrePoincare.Configuration&#45;&gt;GinibrePoincare.GinibreMatrixCoordinates -->
<!-- GinibrePoincare.fullMatrixLift_functional_inequalities -->
<g id="node3" class="node">
<title>GinibrePoincare.fullMatrixLift_functional_inequalities</title>
<path fill="#dbeafe" stroke="#2563eb" stroke-width="2" d="M262.57,-36C262.57,-36 82.57,-36 82.57,-36 76.57,-36 70.57,-30 70.57,-24 70.57,-24 70.57,-12 70.57,-12 70.57,-6 76.57,0 82.57,0 82.57,0 262.57,0 262.57,0 268.57,0 274.57,-6 274.57,-12 274.57,-12 274.57,-24 274.57,-24 274.57,-30 268.57,-36 262.57,-36"/>
<text text-anchor="middle" x="172.57" y="-15.2" font-family="sans-serif" font-size="11.00">fullMatrixLift_functional_inequalities</text>
</g>
<!-- GinibrePoincare.Configuration&#45;&gt;GinibrePoincare.fullMatrixLift_functional_inequalities -->
<g id="edge1" class="edge">
<title>GinibrePoincare.Configuration&#45;&gt;GinibrePoincare.fullMatrixLift_functional_inequalities</title>
<g id="a_edge1"><a xlink:title="both">
<path fill="none" stroke="#7e22ce" d="M324.08,-859.9C373.87,-834.33 455.57,-781.08 455.57,-707 455.57,-707 455.57,-707 455.57,-189 455.57,-136.24 437.9,-118.79 396.57,-86 363.87,-60.06 321.28,-44.14 282.04,-34.39"/>
<polygon fill="#7e22ce" stroke="#7e22ce" points="282.14,-31.89 274.76,-32.64 280.99,-36.66 282.14,-31.89"/>
</a>
</g>
</g>
<!-- GinibrePoincare.GinibreMatrixCoordinates&#45;&gt;GinibrePoincare.fullMatrixLift_functional_inequalities -->
<g id="edge2" class="edge">
<title>GinibrePoincare.GinibreMatrixCoordinates&#45;&gt;GinibrePoincare.fullMatrixLift_functional_inequalities</title>
<g id="a_edge2"><a xlink:title="both">
<path fill="none" stroke="#7e22ce" d="M79.75,-774C59.06,-762.74 34.81,-745.99 20.57,-724 -4.72,-684.92 1.57,-667.55 1.57,-621 1.57,-621 1.57,-621 1.57,-189 1.57,-117.74 77.18,-66.09 127.84,-39.47"/>
<polygon fill="#7e22ce" stroke="#7e22ce" points="129.1,-41.58 134.2,-36.19 126.85,-37.22 129.1,-41.58"/>
</a>
</g>
</g>
<!-- GinibrePoincare.ginibreMatrixMeasurableSpace -->
<g id="node4" class="node">
<title>GinibrePoincare.ginibreMatrixMeasurableSpace</title>
<path fill="#f8fafc" stroke="#64748b" d="M193.57,-724C193.57,-724 41.57,-724 41.57,-724 35.57,-724 29.57,-718 29.57,-712 29.57,-712 29.57,-700 29.57,-700 29.57,-694 35.57,-688 41.57,-688 41.57,-688 193.57,-688 193.57,-688 199.57,-688 205.57,-694 205.57,-700 205.57,-700 205.57,-712 205.57,-712 205.57,-718 199.57,-724 193.57,-724"/>
<text text-anchor="middle" x="117.57" y="-703.2" font-family="sans-serif" font-size="11.00">ginibreMatrixMeasurableSpace</text>
</g>
<!-- GinibrePoincare.GinibreMatrixCoordinates&#45;&gt;GinibrePoincare.ginibreMatrixMeasurableSpace -->
<!-- GinibrePoincare.ginibreMatrixMeasurableSpace&#45;&gt;GinibrePoincare.fullMatrixLift_functional_inequalities -->
<g id="edge3" class="edge">
<title>GinibrePoincare.ginibreMatrixMeasurableSpace&#45;&gt;GinibrePoincare.fullMatrixLift_functional_inequalities</title>
<g id="a_edge3"><a xlink:title="both">
<path fill="none" stroke="#7e22ce" d="M98.16,-687.86C85.22,-675.33 68.93,-657.23 59.57,-638 39.18,-596.06 39.57,-581.63 39.57,-535 39.57,-535 39.57,-535 39.57,-189 39.57,-124.08 100.47,-69.18 139.85,-40.46"/>
<polygon fill="#7e22ce" stroke="#7e22ce" points="141.71,-42.15 145.98,-36.08 138.86,-38.16 141.71,-42.15"/>
</a>
</g>
</g>
<!-- GinibrePoincare.ginibreMeasure -->
<g id="node5" class="node">
<title>GinibrePoincare.ginibreMeasure</title>
<path fill="#f8fafc" stroke="#64748b" d="M154.57,-638C154.57,-638 80.57,-638 80.57,-638 74.57,-638 68.57,-632 68.57,-626 68.57,-626 68.57,-614 68.57,-614 68.57,-608 74.57,-602 80.57,-602 80.57,-602 154.57,-602 154.57,-602 160.57,-602 166.57,-608 166.57,-614 166.57,-614 166.57,-626 166.57,-626 166.57,-632 160.57,-638 154.57,-638"/>
<text text-anchor="middle" x="117.57" y="-617.2" font-family="sans-serif" font-size="11.00">ginibreMeasure</text>
</g>
<!-- GinibrePoincare.ginibreMatrixMeasurableSpace&#45;&gt;GinibrePoincare.ginibreMeasure -->
<!-- GinibrePoincare.ginibreMeasure&#45;&gt;GinibrePoincare.fullMatrixLift_functional_inequalities -->
<g id="edge4" class="edge">
<title>GinibrePoincare.ginibreMeasure&#45;&gt;GinibrePoincare.fullMatrixLift_functional_inequalities</title>
<g id="a_edge4"><a xlink:title="both">
<path fill="none" stroke="#7e22ce" d="M110.79,-601.94C99.38,-571.66 77.57,-506.3 77.57,-449 77.57,-449 77.57,-449 77.57,-189 77.57,-129.8 122.02,-72.05 150.11,-41.46"/>
<polygon fill="#7e22ce" stroke="#7e22ce" points="152.16,-42.86 155.15,-36.08 148.58,-39.51 152.16,-42.86"/>
</a>
</g>
</g>
<!-- GinibrePoincare.matrixGaussianMeasure -->
<g id="node6" class="node">
<title>GinibrePoincare.matrixGaussianMeasure</title>
<path fill="#f8fafc" stroke="#64748b" d="M235.57,-552C235.57,-552 117.57,-552 117.57,-552 111.57,-552 105.57,-546 105.57,-540 105.57,-540 105.57,-528 105.57,-528 105.57,-522 111.57,-516 117.57,-516 117.57,-516 235.57,-516 235.57,-516 241.57,-516 247.57,-522 247.57,-528 247.57,-528 247.57,-540 247.57,-540 247.57,-546 241.57,-552 235.57,-552"/>
<text text-anchor="middle" x="176.57" y="-531.2" font-family="sans-serif" font-size="11.00">matrixGaussianMeasure</text>
</g>
<!-- GinibrePoincare.ginibreMeasure&#45;&gt;GinibrePoincare.matrixGaussianMeasure -->
<!-- GinibrePoincare.matrixGaussianMeasure&#45;&gt;GinibrePoincare.fullMatrixLift_functional_inequalities -->
<g id="edge5" class="edge">
<title>GinibrePoincare.matrixGaussianMeasure&#45;&gt;GinibrePoincare.fullMatrixLift_functional_inequalities</title>
<g id="a_edge5"><a xlink:title="both">
<path fill="none" stroke="#7e22ce" d="M163.21,-515.78C153.79,-502.79 141.64,-484.17 134.57,-466 117.69,-422.62 115.57,-409.55 115.57,-363 115.57,-363 115.57,-363 115.57,-189 115.57,-134.36 142.37,-74.74 159.21,-42.64"/>
<polygon fill="#7e22ce" stroke="#7e22ce" points="161.5,-43.55 162.64,-36.22 157.18,-41.24 161.5,-43.55"/>
</a>
</g>
</g>
<!-- GinibrePoincare.matrixSpectralLift_finite_overlap_gaussian_poincare -->
<g id="node7" class="node">
<title>GinibrePoincare.matrixSpectralLift_finite_overlap_gaussian_poincare</title>
<path fill="#f8fafc" stroke="#64748b" d="M415.57,-466C415.57,-466 155.57,-466 155.57,-466 149.57,-466 143.57,-460 143.57,-454 143.57,-454 143.57,-442 143.57,-442 143.57,-436 149.57,-430 155.57,-430 155.57,-430 415.57,-430 415.57,-430 421.57,-430 427.57,-436 427.57,-442 427.57,-442 427.57,-454 427.57,-454 427.57,-460 421.57,-466 415.57,-466"/>
<text text-anchor="middle" x="285.57" y="-445.2" font-family="sans-serif" font-size="11.00">matrixSpectralLift_finite_overlap_gaussian_poincare</text>
</g>
<!-- GinibrePoincare.matrixGaussianMeasure&#45;&gt;GinibrePoincare.matrixSpectralLift_finite_overlap_gaussian_poincare -->
<!-- GinibrePoincare.matrixSpectralLift_finite_overlap_gaussian_poincare&#45;&gt;GinibrePoincare.fullMatrixLift_functional_inequalities -->
<g id="edge6" class="edge">
<title>GinibrePoincare.matrixSpectralLift_finite_overlap_gaussian_poincare&#45;&gt;GinibrePoincare.fullMatrixLift_functional_inequalities</title>
<g id="a_edge6"><a xlink:title="value">
<path fill="none" stroke="#2563eb" d="M241.55,-429.95C218.85,-418.97 192.63,-402.51 176.57,-380 149.33,-341.82 153.57,-323.91 153.57,-277 153.57,-277 153.57,-277 153.57,-189 153.57,-136.82 162.52,-76.18 168.14,-43.28"/>
<polygon fill="#2563eb" stroke="#2563eb" points="170.57,-43.62 169.35,-36.3 165.74,-42.78 170.57,-43.62"/>
</a>
</g>
</g>
<!-- GinibrePoincare.matrixSpectralLift_finite_overlap_lsi -->
<g id="node8" class="node">
<title>GinibrePoincare.matrixSpectralLift_finite_overlap_lsi</title>
<path fill="#f8fafc" stroke="#64748b" d="M373.57,-380C373.57,-380 197.57,-380 197.57,-380 191.57,-380 185.57,-374 185.57,-368 185.57,-368 185.57,-356 185.57,-356 185.57,-350 191.57,-344 197.57,-344 197.57,-344 373.57,-344 373.57,-344 379.57,-344 385.57,-350 385.57,-356 385.57,-356 385.57,-368 385.57,-368 385.57,-374 379.57,-380 373.57,-380"/>
<text text-anchor="middle" x="285.57" y="-359.2" font-family="sans-serif" font-size="11.00">matrixSpectralLift_finite_overlap_lsi</text>
</g>
<!-- GinibrePoincare.matrixSpectralLift_finite_overlap_gaussian_poincare&#45;&gt;GinibrePoincare.matrixSpectralLift_finite_overlap_lsi -->
<!-- GinibrePoincare.matrixSpectralLift_finite_overlap_lsi&#45;&gt;GinibrePoincare.fullMatrixLift_functional_inequalities -->
<g id="edge7" class="edge">
<title>GinibrePoincare.matrixSpectralLift_finite_overlap_lsi&#45;&gt;GinibrePoincare.fullMatrixLift_functional_inequalities</title>
<g id="a_edge7"><a xlink:title="value">
<path fill="none" stroke="#2563eb" d="M257.44,-343.75C240.69,-331.91 220.6,-314.63 209.57,-294 164.96,-210.56 167.02,-93.27 170.4,-43.2"/>
<polygon fill="#2563eb" stroke="#2563eb" points="172.86,-43.19 170.93,-36.03 167.97,-42.83 172.86,-43.19"/>
</a>
</g>
</g>
<!-- GinibrePoincare.matrixSpectralOverlapEnergy -->
<g id="node9" class="node">
<title>GinibrePoincare.matrixSpectralOverlapEnergy</title>
<path fill="#f8fafc" stroke="#64748b" d="M374.07,-294C374.07,-294 231.07,-294 231.07,-294 225.07,-294 219.07,-288 219.07,-282 219.07,-282 219.07,-270 219.07,-270 219.07,-264 225.07,-258 231.07,-258 231.07,-258 374.07,-258 374.07,-258 380.07,-258 386.07,-264 386.07,-270 386.07,-270 386.07,-282 386.07,-282 386.07,-288 380.07,-294 374.07,-294"/>
<text text-anchor="middle" x="302.57" y="-273.2" font-family="sans-serif" font-size="11.00">matrixSpectralOverlapEnergy</text>
</g>
<!-- GinibrePoincare.matrixSpectralLift_finite_overlap_lsi&#45;&gt;GinibrePoincare.matrixSpectralOverlapEnergy -->
<!-- GinibrePoincare.matrixSpectralOverlapEnergy&#45;&gt;GinibrePoincare.fullMatrixLift_functional_inequalities -->
<g id="edge8" class="edge">
<title>GinibrePoincare.matrixSpectralOverlapEnergy&#45;&gt;GinibrePoincare.fullMatrixLift_functional_inequalities</title>
<g id="a_edge8"><a xlink:title="both">
<path fill="none" stroke="#7e22ce" d="M286.13,-258C274.39,-245.12 258.9,-226.53 248.57,-208 220.58,-157.79 227.87,-138.99 205.57,-86 199.36,-71.24 191.47,-55.13 184.96,-42.41"/>
<polygon fill="#7e22ce" stroke="#7e22ce" points="187.08,-41.19 181.69,-36.09 182.73,-43.44 187.08,-41.19"/>
</a>
</g>
</g>
<!-- GinibrePoincare.smoothGinibreVariance -->
<g id="node10" class="node">
<title>GinibrePoincare.smoothGinibreVariance</title>
<path fill="#f8fafc" stroke="#64748b" d="M385.07,-208C385.07,-208 270.07,-208 270.07,-208 264.07,-208 258.07,-202 258.07,-196 258.07,-196 258.07,-184 258.07,-184 258.07,-178 264.07,-172 270.07,-172 270.07,-172 385.07,-172 385.07,-172 391.07,-172 397.07,-178 397.07,-184 397.07,-184 397.07,-196 397.07,-196 397.07,-202 391.07,-208 385.07,-208"/>
<text text-anchor="middle" x="327.57" y="-187.2" font-family="sans-serif" font-size="11.00">smoothGinibreVariance</text>
</g>
<!-- GinibrePoincare.matrixSpectralOverlapEnergy&#45;&gt;GinibrePoincare.smoothGinibreVariance -->
<!-- GinibrePoincare.smoothGinibreVariance&#45;&gt;GinibrePoincare.fullMatrixLift_functional_inequalities -->
<g id="edge9" class="edge">
<title>GinibrePoincare.smoothGinibreVariance&#45;&gt;GinibrePoincare.fullMatrixLift_functional_inequalities</title>
<g id="a_edge9"><a xlink:title="both">
<path fill="none" stroke="#7e22ce" d="M314.55,-171.66C298.57,-150.72 270.29,-114.72 243.57,-86 229,-70.33 211.53,-53.83 197.57,-41.12"/>
<polygon fill="#7e22ce" stroke="#7e22ce" points="199.05,-39.15 192.21,-36.27 195.76,-42.78 199.05,-39.15"/>
</a>
</g>
</g>
<!-- GinibrePoincare.squareEntropy -->
<g id="node11" class="node">
<title>GinibrePoincare.squareEntropy</title>
<path fill="#f8fafc" stroke="#64748b" d="M375.57,-122C375.57,-122 307.57,-122 307.57,-122 301.57,-122 295.57,-116 295.57,-110 295.57,-110 295.57,-98 295.57,-98 295.57,-92 301.57,-86 307.57,-86 307.57,-86 375.57,-86 375.57,-86 381.57,-86 387.57,-92 387.57,-98 387.57,-98 387.57,-110 387.57,-110 387.57,-116 381.57,-122 375.57,-122"/>
<text text-anchor="middle" x="341.57" y="-101.2" font-family="sans-serif" font-size="11.00">squareEntropy</text>
</g>
<!-- GinibrePoincare.smoothGinibreVariance&#45;&gt;GinibrePoincare.squareEntropy -->
<!-- GinibrePoincare.squareEntropy&#45;&gt;GinibrePoincare.fullMatrixLift_functional_inequalities -->
<g id="edge10" class="edge">
<title>GinibrePoincare.squareEntropy&#45;&gt;GinibrePoincare.fullMatrixLift_functional_inequalities</title>
<g id="a_edge10"><a xlink:title="both">
<path fill="none" stroke="#7e22ce" d="M306.97,-85.8C279.76,-72.28 241.81,-53.41 213.17,-39.18"/>
<polygon fill="#7e22ce" stroke="#7e22ce" points="214.2,-36.96 206.84,-36.03 212.02,-41.34 214.2,-36.96"/>
</a>
</g>
</g>
</g>
</svg>
