<?xml version="1.0" encoding="UTF-8" standalone="no"?>
<!DOCTYPE svg PUBLIC "-//W3C//DTD SVG 1.1//EN"
 "http://www.w3.org/Graphics/SVG/1.1/DTD/svg11.dtd">
<!-- Generated by graphviz version 2.42.4 (0)
 -->
<!-- Title: dependencies Pages: 1 -->
<svg width="399pt" height="407pt"
 viewBox="0.00 0.00 398.70 407.20" xmlns="http://www.w3.org/2000/svg" xmlns:xlink="http://www.w3.org/1999/xlink">
<g id="graph0" class="graph" transform="scale(1 1) rotate(0) translate(21.6 385.6)">
<title>dependencies</title>
<!-- ComplexGaussianHermite -->
<g id="node1" class="node">
<title>ComplexGaussianHermite</title>
<path fill="#f8fafc" stroke="#64748b" d="M343.5,-364C343.5,-364 161.5,-364 161.5,-364 155.5,-364 149.5,-358 149.5,-352 149.5,-352 149.5,-332 149.5,-332 149.5,-326 155.5,-320 161.5,-320 161.5,-320 343.5,-320 343.5,-320 349.5,-320 355.5,-326 355.5,-332 355.5,-332 355.5,-352 355.5,-352 355.5,-358 349.5,-364 343.5,-364"/>
<text text-anchor="middle" x="252.5" y="-345.4" font-family="sans-serif" font-size="12.00">Complex Gaussian and Hermite</text>
<text text-anchor="middle" x="252.5" y="-332.4" font-family="sans-serif" font-size="12.00">analysis</text>
</g>
<!-- GinibreMeasureGeometry -->
<g id="node2" class="node">
<title>GinibreMeasureGeometry</title>
<path fill="#f8fafc" stroke="#64748b" d="M264,-284C264,-284 129,-284 129,-284 123,-284 117,-278 117,-272 117,-272 117,-252 117,-252 117,-246 123,-240 129,-240 129,-240 264,-240 264,-240 270,-240 276,-246 276,-252 276,-252 276,-272 276,-272 276,-278 270,-284 264,-284"/>
<text text-anchor="middle" x="196.5" y="-265.4" font-family="sans-serif" font-size="12.00">Ginibre measure and</text>
<text text-anchor="middle" x="196.5" y="-252.4" font-family="sans-serif" font-size="12.00">holomorphic geometry</text>
</g>
<!-- ComplexGaussianHermite&#45;&gt;GinibreMeasureGeometry -->
<!-- GaussianLSI -->
<g id="node5" class="node">
<title>GaussianLSI</title>
<path fill="#dbeafe" stroke="#2563eb" stroke-width="2" d="M315.5,-44C315.5,-44 165.5,-44 165.5,-44 159.5,-44 153.5,-38 153.5,-32 153.5,-32 153.5,-12 153.5,-12 153.5,-6 159.5,0 165.5,0 165.5,0 315.5,0 315.5,0 321.5,0 327.5,-6 327.5,-12 327.5,-12 327.5,-32 327.5,-32 327.5,-38 321.5,-44 315.5,-44"/>
<text text-anchor="middle" x="240.5" y="-25.4" font-family="sans-serif" font-size="12.00">Gaussian log&#45;Sobolev and</text>
<text text-anchor="middle" x="240.5" y="-12.4" font-family="sans-serif" font-size="12.00">entropy</text>
</g>
<!-- ComplexGaussianHermite&#45;&gt;GaussianLSI -->
<g id="edge1" class="edge">
<title>ComplexGaussianHermite&#45;&gt;GaussianLSI</title>
<path fill="none" stroke="#64748b" d="M268.88,-319.8C275.76,-309.57 282.98,-296.77 286.5,-284 299.42,-237.11 289.6,-152.2 268.5,-80 265.59,-70.04 261.03,-59.69 256.43,-50.59"/>
<polygon fill="#64748b" stroke="#64748b" points="258.51,-49.28 253.1,-44.21 254.17,-51.55 258.51,-49.28"/>
</g>
<!-- PolynomialRadial -->
<g id="node3" class="node">
<title>PolynomialRadial</title>
<path fill="#f8fafc" stroke="#64748b" d="M217.5,-204C217.5,-204 89.5,-204 89.5,-204 83.5,-204 77.5,-198 77.5,-192 77.5,-192 77.5,-172 77.5,-172 77.5,-166 83.5,-160 89.5,-160 89.5,-160 217.5,-160 217.5,-160 223.5,-160 229.5,-166 229.5,-172 229.5,-172 229.5,-192 229.5,-192 229.5,-198 223.5,-204 217.5,-204"/>
<text text-anchor="middle" x="153.5" y="-185.4" font-family="sans-serif" font-size="12.00">Polynomial, radial and</text>
<text text-anchor="middle" x="153.5" y="-172.4" font-family="sans-serif" font-size="12.00">equilibrium sectors</text>
</g>
<!-- GinibreMeasureGeometry&#45;&gt;PolynomialRadial -->
<!-- GinibreMeasureGeometry&#45;&gt;GaussianLSI -->
<g id="edge2" class="edge">
<title>GinibreMeasureGeometry&#45;&gt;GaussianLSI</title>
<path fill="none" stroke="#64748b" d="M218.31,-239.76C226.99,-229.82 235.98,-217.25 240.5,-204 258.07,-152.49 251.87,-87.84 246.02,-51.4"/>
<polygon fill="#64748b" stroke="#64748b" points="248.36,-50.56 244.78,-44.07 243.53,-51.38 248.36,-50.56"/>
</g>
<!-- WeakSobolev -->
<g id="node4" class="node">
<title>WeakSobolev</title>
<path fill="#f8fafc" stroke="#64748b" d="M171,-124C171,-124 12,-124 12,-124 6,-124 0,-118 0,-112 0,-112 0,-92 0,-92 0,-86 6,-80 12,-80 12,-80 171,-80 171,-80 177,-80 183,-86 183,-92 183,-92 183,-112 183,-112 183,-118 177,-124 171,-124"/>
<text text-anchor="middle" x="91.5" y="-105.4" font-family="sans-serif" font-size="12.00">Weak Sobolev domains and</text>
<text text-anchor="middle" x="91.5" y="-92.4" font-family="sans-serif" font-size="12.00">collision capacity</text>
</g>
<!-- PolynomialRadial&#45;&gt;WeakSobolev -->
<!-- PolynomialRadial&#45;&gt;GaussianLSI -->
<g id="edge3" class="edge">
<title>PolynomialRadial&#45;&gt;GaussianLSI</title>
<path fill="none" stroke="#64748b" d="M169.62,-159.94C177.31,-149.43 186.37,-136.35 193.5,-124 207.32,-100.08 220.35,-71.4 229.17,-50.73"/>
<polygon fill="#64748b" stroke="#64748b" points="231.53,-51.45 231.99,-44.04 227.01,-49.54 231.53,-51.45"/>
</g>
<!-- WeakSobolev&#45;&gt;GaussianLSI -->
<g id="edge4" class="edge">
<title>WeakSobolev&#45;&gt;GaussianLSI</title>
<path fill="none" stroke="#64748b" d="M131.82,-79.89C150.95,-69.88 173.92,-57.85 193.81,-47.44"/>
<polygon fill="#64748b" stroke="#64748b" points="195.08,-49.54 200.15,-44.12 192.81,-45.2 195.08,-49.54"/>
</g>
</g>
</svg>
