<?xml version="1.0" encoding="UTF-8" standalone="no"?>
<!DOCTYPE svg PUBLIC "-//W3C//DTD SVG 1.1//EN"
 "http://www.w3.org/Graphics/SVG/1.1/DTD/svg11.dtd">
<!-- Generated by graphviz version 2.42.4 (0)
 -->
<!-- Title: dependencies Pages: 1 -->
<svg width="528pt" height="651pt"
 viewBox="0.00 0.00 527.70 651.20" xmlns="http://www.w3.org/2000/svg" xmlns:xlink="http://www.w3.org/1999/xlink">
<g id="graph0" class="graph" transform="scale(1 1) rotate(0) translate(21.6 629.6)">
<title>dependencies</title>
<text text-anchor="middle" x="242.25" y="-7.2" font-family="sans-serif" font-size="11.00">Source imports — paper correspondence unresolved</text>
<!-- ComplexGaussianHermite -->
<g id="node1" class="node">
<title>ComplexGaussianHermite</title>
<path fill="#f8fafc" stroke="#64748b" d="M472.5,-608C472.5,-608 290.5,-608 290.5,-608 284.5,-608 278.5,-602 278.5,-596 278.5,-596 278.5,-576 278.5,-576 278.5,-570 284.5,-564 290.5,-564 290.5,-564 472.5,-564 472.5,-564 478.5,-564 484.5,-570 484.5,-576 484.5,-576 484.5,-596 484.5,-596 484.5,-602 478.5,-608 472.5,-608"/>
<text text-anchor="middle" x="381.5" y="-589.4" font-family="sans-serif" font-size="12.00">Complex Gaussian and Hermite</text>
<text text-anchor="middle" x="381.5" y="-576.4" font-family="sans-serif" font-size="12.00">analysis</text>
</g>
<!-- DeficitsEquality -->
<g id="node2" class="node">
<title>DeficitsEquality</title>
<path fill="#f8fafc" stroke="#64748b" d="M401,-528C401,-528 232,-528 232,-528 226,-528 220,-522 220,-516 220,-516 220,-504 220,-504 220,-498 226,-492 232,-492 232,-492 401,-492 401,-492 407,-492 413,-498 413,-504 413,-504 413,-516 413,-516 413,-522 407,-528 401,-528"/>
<text text-anchor="middle" x="316.5" y="-506.9" font-family="sans-serif" font-size="12.00">Poincaré deficits and equality</text>
</g>
<!-- ComplexGaussianHermite&#45;&gt;DeficitsEquality -->
<!-- GeneratorSemigroup -->
<g id="node8" class="node">
<title>GeneratorSemigroup</title>
<path fill="#dbeafe" stroke="#2563eb" stroke-width="2" d="M378.5,-64C378.5,-64 240.5,-64 240.5,-64 234.5,-64 228.5,-58 228.5,-52 228.5,-52 228.5,-32 228.5,-32 228.5,-26 234.5,-20 240.5,-20 240.5,-20 378.5,-20 378.5,-20 384.5,-20 390.5,-26 390.5,-32 390.5,-32 390.5,-52 390.5,-52 390.5,-58 384.5,-64 378.5,-64"/>
<text text-anchor="middle" x="309.5" y="-45.4" font-family="sans-serif" font-size="12.00">Diffusion operators and</text>
<text text-anchor="middle" x="309.5" y="-32.4" font-family="sans-serif" font-size="12.00">analytic semigroups</text>
</g>
<!-- ComplexGaussianHermite&#45;&gt;GeneratorSemigroup -->
<g id="edge1" class="edge">
<title>ComplexGaussianHermite&#45;&gt;GeneratorSemigroup</title>
<path fill="none" stroke="#64748b" d="M400.69,-563.89C409.07,-553.68 418.37,-540.87 424.5,-528 442.8,-489.56 447.5,-477.58 447.5,-435 447.5,-435 447.5,-435 447.5,-197 447.5,-140.09 394.59,-94.61 354.29,-68.23"/>
<polygon fill="#64748b" stroke="#64748b" points="355.16,-65.87 347.94,-64.16 352.51,-70 355.16,-65.87"/>
</g>
<!-- GinibreMeasureGeometry -->
<g id="node3" class="node">
<title>GinibreMeasureGeometry</title>
<path fill="#f8fafc" stroke="#64748b" d="M356,-456C356,-456 221,-456 221,-456 215,-456 209,-450 209,-444 209,-444 209,-424 209,-424 209,-418 215,-412 221,-412 221,-412 356,-412 356,-412 362,-412 368,-418 368,-424 368,-424 368,-444 368,-444 368,-450 362,-456 356,-456"/>
<text text-anchor="middle" x="288.5" y="-437.4" font-family="sans-serif" font-size="12.00">Ginibre measure and</text>
<text text-anchor="middle" x="288.5" y="-424.4" font-family="sans-serif" font-size="12.00">holomorphic geometry</text>
</g>
<!-- DeficitsEquality&#45;&gt;GinibreMeasureGeometry -->
<!-- DeficitsEquality&#45;&gt;GeneratorSemigroup -->
<g id="edge2" class="edge">
<title>DeficitsEquality&#45;&gt;GeneratorSemigroup</title>
<path fill="none" stroke="#64748b" d="M343.59,-491.87C356.01,-482.68 369.86,-470.3 378.5,-456 402.32,-416.6 401.5,-401.04 401.5,-355 401.5,-355 401.5,-355 401.5,-197 401.5,-146.28 364.26,-97.76 337.17,-69.18"/>
<polygon fill="#64748b" stroke="#64748b" points="338.87,-67.41 332.24,-64.08 335.34,-70.81 338.87,-67.41"/>
</g>
<!-- MatrixLift -->
<g id="node4" class="node">
<title>MatrixLift</title>
<path fill="#f8fafc" stroke="#64748b" d="M310,-376C310,-376 157,-376 157,-376 151,-376 145,-370 145,-364 145,-364 145,-344 145,-344 145,-338 151,-332 157,-332 157,-332 310,-332 310,-332 316,-332 322,-338 322,-344 322,-344 322,-364 322,-364 322,-370 316,-376 310,-376"/>
<text text-anchor="middle" x="233.5" y="-357.4" font-family="sans-serif" font-size="12.00">Matrix lift and eigenvector</text>
<text text-anchor="middle" x="233.5" y="-344.4" font-family="sans-serif" font-size="12.00">overlaps</text>
</g>
<!-- GinibreMeasureGeometry&#45;&gt;MatrixLift -->
<!-- GinibreMeasureGeometry&#45;&gt;GeneratorSemigroup -->
<g id="edge3" class="edge">
<title>GinibreMeasureGeometry&#45;&gt;GeneratorSemigroup</title>
<path fill="none" stroke="#64748b" d="M308.48,-411.74C317.03,-401.6 326.42,-388.89 332.5,-376 352.14,-334.36 355.5,-321.04 355.5,-275 355.5,-275 355.5,-275 355.5,-197 355.5,-151.34 336.71,-101.14 323.15,-70.85"/>
<polygon fill="#64748b" stroke="#64748b" points="325.31,-69.68 320.17,-64.33 320.85,-71.72 325.31,-69.68"/>
</g>
<!-- PolynomialRadial -->
<g id="node5" class="node">
<title>PolynomialRadial</title>
<path fill="#f8fafc" stroke="#64748b" d="M263.5,-296C263.5,-296 135.5,-296 135.5,-296 129.5,-296 123.5,-290 123.5,-284 123.5,-284 123.5,-264 123.5,-264 123.5,-258 129.5,-252 135.5,-252 135.5,-252 263.5,-252 263.5,-252 269.5,-252 275.5,-258 275.5,-264 275.5,-264 275.5,-284 275.5,-284 275.5,-290 269.5,-296 263.5,-296"/>
<text text-anchor="middle" x="199.5" y="-277.4" font-family="sans-serif" font-size="12.00">Polynomial, radial and</text>
<text text-anchor="middle" x="199.5" y="-264.4" font-family="sans-serif" font-size="12.00">equilibrium sectors</text>
</g>
<!-- MatrixLift&#45;&gt;PolynomialRadial -->
<!-- MatrixLift&#45;&gt;GeneratorSemigroup -->
<g id="edge4" class="edge">
<title>MatrixLift&#45;&gt;GeneratorSemigroup</title>
<path fill="none" stroke="#64748b" d="M259.64,-331.77C269.8,-322.01 280.44,-309.57 286.5,-296 320.27,-220.34 316.87,-119.49 312.66,-71.15"/>
<polygon fill="#64748b" stroke="#64748b" points="315.09,-70.88 312.01,-64.14 310.21,-71.33 315.09,-70.88"/>
</g>
<!-- StochasticDynamics -->
<g id="node6" class="node">
<title>StochasticDynamics</title>
<path fill="#f8fafc" stroke="#64748b" d="M217.5,-216C217.5,-216 55.5,-216 55.5,-216 49.5,-216 43.5,-210 43.5,-204 43.5,-204 43.5,-192 43.5,-192 43.5,-186 49.5,-180 55.5,-180 55.5,-180 217.5,-180 217.5,-180 223.5,-180 229.5,-186 229.5,-192 229.5,-192 229.5,-204 229.5,-204 229.5,-210 223.5,-216 217.5,-216"/>
<text text-anchor="middle" x="136.5" y="-194.9" font-family="sans-serif" font-size="12.00">Ginibre stochastic dynamics</text>
</g>
<!-- PolynomialRadial&#45;&gt;StochasticDynamics -->
<!-- PolynomialRadial&#45;&gt;GeneratorSemigroup -->
<g id="edge5" class="edge">
<title>PolynomialRadial&#45;&gt;GeneratorSemigroup</title>
<path fill="none" stroke="#64748b" d="M216.57,-251.9C224.49,-241.49 233.64,-228.51 240.5,-216 267.13,-167.43 289.02,-106.39 300.59,-71.32"/>
<polygon fill="#64748b" stroke="#64748b" points="303.05,-71.66 302.9,-64.25 298.39,-70.14 303.05,-71.66"/>
</g>
<!-- WeakSobolev -->
<g id="node7" class="node">
<title>WeakSobolev</title>
<path fill="#f8fafc" stroke="#64748b" d="M171,-144C171,-144 12,-144 12,-144 6,-144 0,-138 0,-132 0,-132 0,-112 0,-112 0,-106 6,-100 12,-100 12,-100 171,-100 171,-100 177,-100 183,-106 183,-112 183,-112 183,-132 183,-132 183,-138 177,-144 171,-144"/>
<text text-anchor="middle" x="91.5" y="-125.4" font-family="sans-serif" font-size="12.00">Weak Sobolev domains and</text>
<text text-anchor="middle" x="91.5" y="-112.4" font-family="sans-serif" font-size="12.00">collision capacity</text>
</g>
<!-- StochasticDynamics&#45;&gt;WeakSobolev -->
<!-- StochasticDynamics&#45;&gt;GeneratorSemigroup -->
<g id="edge6" class="edge">
<title>StochasticDynamics&#45;&gt;GeneratorSemigroup</title>
<path fill="none" stroke="#64748b" d="M155.68,-179.93C185.9,-153.02 244.84,-100.56 280.34,-68.96"/>
<polygon fill="#64748b" stroke="#64748b" points="282.23,-70.56 285.83,-64.07 278.97,-66.9 282.23,-70.56"/>
</g>
<!-- WeakSobolev&#45;&gt;GeneratorSemigroup -->
<g id="edge7" class="edge">
<title>WeakSobolev&#45;&gt;GeneratorSemigroup</title>
<path fill="none" stroke="#64748b" d="M150.21,-99.99C179.17,-89.63 214.19,-77.1 244.02,-66.43"/>
<polygon fill="#64748b" stroke="#64748b" points="244.92,-68.71 250.69,-64.04 243.27,-64.09 244.92,-68.71"/>
</g>
</g>
</svg>
