<?xml version="1.0" encoding="UTF-8" standalone="no"?>
<!DOCTYPE svg PUBLIC "-//W3C//DTD SVG 1.1//EN"
 "http://www.w3.org/Graphics/SVG/1.1/DTD/svg11.dtd">
<!-- Generated by graphviz version 2.42.4 (0)
 -->
<!-- Title: dependencies Pages: 1 -->
<svg width="447pt" height="467pt"
 viewBox="0.00 0.00 447.20 467.20" xmlns="http://www.w3.org/2000/svg" xmlns:xlink="http://www.w3.org/1999/xlink">
<g id="graph0" class="graph" transform="scale(1 1) rotate(0) translate(21.6 445.6)">
<title>dependencies</title>
<!-- ComplexGaussianHermite -->
<g id="node1" class="node">
<title>ComplexGaussianHermite</title>
<path fill="#f8fafc" stroke="#64748b" d="M194,-424C194,-424 12,-424 12,-424 6,-424 0,-418 0,-412 0,-412 0,-392 0,-392 0,-386 6,-380 12,-380 12,-380 194,-380 194,-380 200,-380 206,-386 206,-392 206,-392 206,-412 206,-412 206,-418 200,-424 194,-424"/>
<text text-anchor="middle" x="103" y="-405.4" font-family="sans-serif" font-size="12.00">Complex Gaussian and Hermite</text>
<text text-anchor="middle" x="103" y="-392.4" font-family="sans-serif" font-size="12.00">analysis</text>
</g>
<!-- GeneratorSemigroup -->
<g id="node8" class="node">
<title>GeneratorSemigroup</title>
<path fill="#dbeafe" stroke="#2563eb" stroke-width="2" d="M392,-234C392,-234 254,-234 254,-234 248,-234 242,-228 242,-222 242,-222 242,-202 242,-202 242,-196 248,-190 254,-190 254,-190 392,-190 392,-190 398,-190 404,-196 404,-202 404,-202 404,-222 404,-222 404,-228 398,-234 392,-234"/>
<text text-anchor="middle" x="323" y="-215.4" font-family="sans-serif" font-size="12.00">Diffusion operators and</text>
<text text-anchor="middle" x="323" y="-202.4" font-family="sans-serif" font-size="12.00">analytic semigroups</text>
</g>
<!-- ComplexGaussianHermite&#45;&gt;GeneratorSemigroup -->
<g id="edge1" class="edge">
<title>ComplexGaussianHermite&#45;&gt;GeneratorSemigroup</title>
<path fill="none" stroke="#64748b" d="M187.44,-379.95C193.97,-376.76 200.26,-373.13 206,-369 253.39,-334.9 289.53,-275.6 308.1,-240.45"/>
<polygon fill="#64748b" stroke="#64748b" points="310.31,-241.52 311.36,-234.18 305.96,-239.26 310.31,-241.52"/>
</g>
<!-- DeficitsEquality -->
<g id="node2" class="node">
<title>DeficitsEquality</title>
<path fill="#f8fafc" stroke="#64748b" d="M187.5,-358C187.5,-358 18.5,-358 18.5,-358 12.5,-358 6.5,-352 6.5,-346 6.5,-346 6.5,-334 6.5,-334 6.5,-328 12.5,-322 18.5,-322 18.5,-322 187.5,-322 187.5,-322 193.5,-322 199.5,-328 199.5,-334 199.5,-334 199.5,-346 199.5,-346 199.5,-352 193.5,-358 187.5,-358"/>
<text text-anchor="middle" x="103" y="-336.9" font-family="sans-serif" font-size="12.00">Poincaré deficits and equality</text>
</g>
<!-- DeficitsEquality&#45;&gt;GeneratorSemigroup -->
<g id="edge2" class="edge">
<title>DeficitsEquality&#45;&gt;GeneratorSemigroup</title>
<path fill="none" stroke="#64748b" d="M181.16,-321.94C189.76,-318.8 198.21,-315.17 206,-311 241,-292.25 274.81,-261.49 296.8,-239.23"/>
<polygon fill="#64748b" stroke="#64748b" points="298.72,-240.77 301.86,-234.05 295.22,-237.35 298.72,-240.77"/>
</g>
<!-- GinibreMeasureGeometry -->
<g id="node3" class="node">
<title>GinibreMeasureGeometry</title>
<path fill="#f8fafc" stroke="#64748b" d="M170.5,-300C170.5,-300 35.5,-300 35.5,-300 29.5,-300 23.5,-294 23.5,-288 23.5,-288 23.5,-268 23.5,-268 23.5,-262 29.5,-256 35.5,-256 35.5,-256 170.5,-256 170.5,-256 176.5,-256 182.5,-262 182.5,-268 182.5,-268 182.5,-288 182.5,-288 182.5,-294 176.5,-300 170.5,-300"/>
<text text-anchor="middle" x="103" y="-281.4" font-family="sans-serif" font-size="12.00">Ginibre measure and</text>
<text text-anchor="middle" x="103" y="-268.4" font-family="sans-serif" font-size="12.00">holomorphic geometry</text>
</g>
<!-- GinibreMeasureGeometry&#45;&gt;GeneratorSemigroup -->
<g id="edge3" class="edge">
<title>GinibreMeasureGeometry&#45;&gt;GeneratorSemigroup</title>
<path fill="none" stroke="#64748b" d="M176.89,-255.93C197.89,-249.57 220.9,-242.61 242.29,-236.13"/>
<polygon fill="#64748b" stroke="#64748b" points="243.19,-238.42 249.17,-234.05 241.77,-233.73 243.19,-238.42"/>
</g>
<!-- MatrixLift -->
<g id="node4" class="node">
<title>MatrixLift</title>
<path fill="#f8fafc" stroke="#64748b" d="M179.5,-234C179.5,-234 26.5,-234 26.5,-234 20.5,-234 14.5,-228 14.5,-222 14.5,-222 14.5,-202 14.5,-202 14.5,-196 20.5,-190 26.5,-190 26.5,-190 179.5,-190 179.5,-190 185.5,-190 191.5,-196 191.5,-202 191.5,-202 191.5,-222 191.5,-222 191.5,-228 185.5,-234 179.5,-234"/>
<text text-anchor="middle" x="103" y="-215.4" font-family="sans-serif" font-size="12.00">Matrix lift and eigenvector</text>
<text text-anchor="middle" x="103" y="-202.4" font-family="sans-serif" font-size="12.00">overlaps</text>
</g>
<!-- MatrixLift&#45;&gt;GeneratorSemigroup -->
<g id="edge4" class="edge">
<title>MatrixLift&#45;&gt;GeneratorSemigroup</title>
<path fill="none" stroke="#64748b" d="M191.73,-212C205.83,-212 220.43,-212 234.53,-212"/>
<polygon fill="#64748b" stroke="#64748b" points="234.85,-214.45 241.85,-212 234.85,-209.55 234.85,-214.45"/>
</g>
<!-- PolynomialRadial -->
<g id="node5" class="node">
<title>PolynomialRadial</title>
<path fill="#f8fafc" stroke="#64748b" d="M167,-168C167,-168 39,-168 39,-168 33,-168 27,-162 27,-156 27,-156 27,-136 27,-136 27,-130 33,-124 39,-124 39,-124 167,-124 167,-124 173,-124 179,-130 179,-136 179,-136 179,-156 179,-156 179,-162 173,-168 167,-168"/>
<text text-anchor="middle" x="103" y="-149.4" font-family="sans-serif" font-size="12.00">Polynomial, radial and</text>
<text text-anchor="middle" x="103" y="-136.4" font-family="sans-serif" font-size="12.00">equilibrium sectors</text>
</g>
<!-- PolynomialRadial&#45;&gt;GeneratorSemigroup -->
<g id="edge5" class="edge">
<title>PolynomialRadial&#45;&gt;GeneratorSemigroup</title>
<path fill="none" stroke="#64748b" d="M176.89,-168.07C197.89,-174.43 220.9,-181.39 242.29,-187.87"/>
<polygon fill="#64748b" stroke="#64748b" points="241.77,-190.27 249.17,-189.95 243.19,-185.58 241.77,-190.27"/>
</g>
<!-- StochasticDynamics -->
<g id="node6" class="node">
<title>StochasticDynamics</title>
<path fill="#f8fafc" stroke="#64748b" d="M184,-102C184,-102 22,-102 22,-102 16,-102 10,-96 10,-90 10,-90 10,-78 10,-78 10,-72 16,-66 22,-66 22,-66 184,-66 184,-66 190,-66 196,-72 196,-78 196,-78 196,-90 196,-90 196,-96 190,-102 184,-102"/>
<text text-anchor="middle" x="103" y="-80.9" font-family="sans-serif" font-size="12.00">Ginibre stochastic dynamics</text>
</g>
<!-- StochasticDynamics&#45;&gt;GeneratorSemigroup -->
<g id="edge6" class="edge">
<title>StochasticDynamics&#45;&gt;GeneratorSemigroup</title>
<path fill="none" stroke="#64748b" d="M181.16,-102.06C189.76,-105.2 198.21,-108.83 206,-113 241,-131.75 274.81,-162.51 296.8,-184.77"/>
<polygon fill="#64748b" stroke="#64748b" points="295.22,-186.65 301.86,-189.95 298.72,-183.23 295.22,-186.65"/>
</g>
<!-- WeakSobolev -->
<g id="node7" class="node">
<title>WeakSobolev</title>
<path fill="#f8fafc" stroke="#64748b" d="M182.5,-44C182.5,-44 23.5,-44 23.5,-44 17.5,-44 11.5,-38 11.5,-32 11.5,-32 11.5,-12 11.5,-12 11.5,-6 17.5,0 23.5,0 23.5,0 182.5,0 182.5,0 188.5,0 194.5,-6 194.5,-12 194.5,-12 194.5,-32 194.5,-32 194.5,-38 188.5,-44 182.5,-44"/>
<text text-anchor="middle" x="103" y="-25.4" font-family="sans-serif" font-size="12.00">Weak Sobolev domains and</text>
<text text-anchor="middle" x="103" y="-12.4" font-family="sans-serif" font-size="12.00">collision capacity</text>
</g>
<!-- WeakSobolev&#45;&gt;GeneratorSemigroup -->
<g id="edge7" class="edge">
<title>WeakSobolev&#45;&gt;GeneratorSemigroup</title>
<path fill="none" stroke="#64748b" d="M187.44,-44.05C193.97,-47.24 200.26,-50.87 206,-55 253.39,-89.1 289.53,-148.4 308.1,-183.55"/>
<polygon fill="#64748b" stroke="#64748b" points="305.96,-184.74 311.36,-189.82 310.31,-182.48 305.96,-184.74"/>
</g>
</g>
</svg>
