<?xml version="1.0" encoding="UTF-8" standalone="no"?>
<!DOCTYPE svg PUBLIC "-//W3C//DTD SVG 1.1//EN"
 "http://www.w3.org/Graphics/SVG/1.1/DTD/svg11.dtd">
<!-- Generated by graphviz version 2.42.4 (0)
 -->
<!-- Title: dependencies Pages: 1 -->
<svg width="450pt" height="467pt"
 viewBox="0.00 0.00 450.20 467.20" xmlns="http://www.w3.org/2000/svg" xmlns:xlink="http://www.w3.org/1999/xlink">
<g id="graph0" class="graph" transform="scale(1 1) rotate(0) translate(21.6 445.6)">
<title>dependencies</title>
<!-- ComplexGaussianHermite -->
<g id="node1" class="node">
<title>ComplexGaussianHermite</title>
<path fill="#f8fafc" stroke="#64748b" d="M194,-424C194,-424 12,-424 12,-424 6,-424 0,-418 0,-412 0,-412 0,-392 0,-392 0,-386 6,-380 12,-380 12,-380 194,-380 194,-380 200,-380 206,-386 206,-392 206,-392 206,-412 206,-412 206,-418 200,-424 194,-424"/>
<text text-anchor="middle" x="103" y="-405.4" font-family="sans-serif" font-size="12.00">Complex Gaussian and Hermite</text>
<text text-anchor="middle" x="103" y="-392.4" font-family="sans-serif" font-size="12.00">analysis</text>
</g>
<!-- NonQuadratic -->
<g id="node8" class="node">
<title>NonQuadratic</title>
<path fill="#dbeafe" stroke="#2563eb" stroke-width="2" d="M395,-238C395,-238 254,-238 254,-238 248,-238 242,-232 242,-226 242,-226 242,-214 242,-214 242,-208 248,-202 254,-202 254,-202 395,-202 395,-202 401,-202 407,-208 407,-214 407,-214 407,-226 407,-226 407,-232 401,-238 395,-238"/>
<text text-anchor="middle" x="324.5" y="-216.9" font-family="sans-serif" font-size="12.00">Nonquadratic potentials</text>
</g>
<!-- ComplexGaussianHermite&#45;&gt;NonQuadratic -->
<g id="edge1" class="edge">
<title>ComplexGaussianHermite&#45;&gt;NonQuadratic</title>
<path fill="none" stroke="#64748b" d="M187.04,-379.88C193.7,-376.7 200.12,-373.09 206,-369 253.66,-335.83 291.39,-277.71 310.27,-244.71"/>
<polygon fill="#64748b" stroke="#64748b" points="312.49,-245.77 313.79,-238.47 308.22,-243.36 312.49,-245.77"/>
</g>
<!-- DeficitsEquality -->
<g id="node2" class="node">
<title>DeficitsEquality</title>
<path fill="#f8fafc" stroke="#64748b" d="M187.5,-358C187.5,-358 18.5,-358 18.5,-358 12.5,-358 6.5,-352 6.5,-346 6.5,-346 6.5,-334 6.5,-334 6.5,-328 12.5,-322 18.5,-322 18.5,-322 187.5,-322 187.5,-322 193.5,-322 199.5,-328 199.5,-334 199.5,-334 199.5,-346 199.5,-346 199.5,-352 193.5,-358 187.5,-358"/>
<text text-anchor="middle" x="103" y="-336.9" font-family="sans-serif" font-size="12.00">Poincaré deficits and equality</text>
</g>
<!-- DeficitsEquality&#45;&gt;NonQuadratic -->
<g id="edge2" class="edge">
<title>DeficitsEquality&#45;&gt;NonQuadratic</title>
<path fill="none" stroke="#64748b" d="M179.89,-321.95C188.89,-318.79 197.78,-315.15 206,-311 241.6,-293.01 277.06,-263.56 299.56,-243.05"/>
<polygon fill="#64748b" stroke="#64748b" points="301.22,-244.85 304.71,-238.3 297.91,-241.24 301.22,-244.85"/>
</g>
<!-- Endgame -->
<g id="node3" class="node">
<title>Endgame</title>
<path fill="#f8fafc" stroke="#64748b" d="M149.5,-300C149.5,-300 56.5,-300 56.5,-300 50.5,-300 44.5,-294 44.5,-288 44.5,-288 44.5,-276 44.5,-276 44.5,-270 50.5,-264 56.5,-264 56.5,-264 149.5,-264 149.5,-264 155.5,-264 161.5,-270 161.5,-276 161.5,-276 161.5,-288 161.5,-288 161.5,-294 155.5,-300 149.5,-300"/>
<text text-anchor="middle" x="103" y="-278.9" font-family="sans-serif" font-size="12.00">Paper assembly</text>
</g>
<!-- Endgame&#45;&gt;NonQuadratic -->
<g id="edge3" class="edge">
<title>Endgame&#45;&gt;NonQuadratic</title>
<path fill="none" stroke="#64748b" d="M161.67,-265.71C189.54,-257.84 223.24,-248.32 252.66,-240.01"/>
<polygon fill="#64748b" stroke="#64748b" points="253.58,-242.3 259.65,-238.04 252.25,-237.58 253.58,-242.3"/>
</g>
<!-- GaussianLSI -->
<g id="node4" class="node">
<title>GaussianLSI</title>
<path fill="#f8fafc" stroke="#64748b" d="M178,-242C178,-242 28,-242 28,-242 22,-242 16,-236 16,-230 16,-230 16,-210 16,-210 16,-204 22,-198 28,-198 28,-198 178,-198 178,-198 184,-198 190,-204 190,-210 190,-210 190,-230 190,-230 190,-236 184,-242 178,-242"/>
<text text-anchor="middle" x="103" y="-223.4" font-family="sans-serif" font-size="12.00">Gaussian log&#45;Sobolev and</text>
<text text-anchor="middle" x="103" y="-210.4" font-family="sans-serif" font-size="12.00">entropy</text>
</g>
<!-- GaussianLSI&#45;&gt;NonQuadratic -->
<g id="edge4" class="edge">
<title>GaussianLSI&#45;&gt;NonQuadratic</title>
<path fill="none" stroke="#64748b" d="M190.12,-220C204.78,-220 220.03,-220 234.75,-220"/>
<polygon fill="#64748b" stroke="#64748b" points="234.93,-222.45 241.93,-220 234.93,-217.55 234.93,-222.45"/>
</g>
<!-- GinibreMeasureGeometry -->
<g id="node5" class="node">
<title>GinibreMeasureGeometry</title>
<path fill="#f8fafc" stroke="#64748b" d="M170.5,-176C170.5,-176 35.5,-176 35.5,-176 29.5,-176 23.5,-170 23.5,-164 23.5,-164 23.5,-144 23.5,-144 23.5,-138 29.5,-132 35.5,-132 35.5,-132 170.5,-132 170.5,-132 176.5,-132 182.5,-138 182.5,-144 182.5,-144 182.5,-164 182.5,-164 182.5,-170 176.5,-176 170.5,-176"/>
<text text-anchor="middle" x="103" y="-157.4" font-family="sans-serif" font-size="12.00">Ginibre measure and</text>
<text text-anchor="middle" x="103" y="-144.4" font-family="sans-serif" font-size="12.00">holomorphic geometry</text>
</g>
<!-- GinibreMeasureGeometry&#45;&gt;NonQuadratic -->
<g id="edge5" class="edge">
<title>GinibreMeasureGeometry&#45;&gt;NonQuadratic</title>
<path fill="none" stroke="#64748b" d="M177.4,-176.07C202.91,-183.74 231.39,-192.3 256.37,-199.82"/>
<polygon fill="#64748b" stroke="#64748b" points="255.91,-202.24 263.32,-201.91 257.32,-197.54 255.91,-202.24"/>
</g>
<!-- PolynomialRadial -->
<g id="node6" class="node">
<title>PolynomialRadial</title>
<path fill="#f8fafc" stroke="#64748b" d="M167,-110C167,-110 39,-110 39,-110 33,-110 27,-104 27,-98 27,-98 27,-78 27,-78 27,-72 33,-66 39,-66 39,-66 167,-66 167,-66 173,-66 179,-72 179,-78 179,-78 179,-98 179,-98 179,-104 173,-110 167,-110"/>
<text text-anchor="middle" x="103" y="-91.4" font-family="sans-serif" font-size="12.00">Polynomial, radial and</text>
<text text-anchor="middle" x="103" y="-78.4" font-family="sans-serif" font-size="12.00">equilibrium sectors</text>
</g>
<!-- PolynomialRadial&#45;&gt;NonQuadratic -->
<g id="edge6" class="edge">
<title>PolynomialRadial&#45;&gt;NonQuadratic</title>
<path fill="none" stroke="#64748b" d="M179.23,-108.63C188.48,-112.24 197.62,-116.35 206,-121 242.93,-141.49 279.12,-174.49 301.36,-196.7"/>
<polygon fill="#64748b" stroke="#64748b" points="299.77,-198.58 306.43,-201.82 303.25,-195.13 299.77,-198.58"/>
</g>
<!-- WeakSobolev -->
<g id="node7" class="node">
<title>WeakSobolev</title>
<path fill="#f8fafc" stroke="#64748b" d="M182.5,-44C182.5,-44 23.5,-44 23.5,-44 17.5,-44 11.5,-38 11.5,-32 11.5,-32 11.5,-12 11.5,-12 11.5,-6 17.5,0 23.5,0 23.5,0 182.5,0 182.5,0 188.5,0 194.5,-6 194.5,-12 194.5,-12 194.5,-32 194.5,-32 194.5,-38 188.5,-44 182.5,-44"/>
<text text-anchor="middle" x="103" y="-25.4" font-family="sans-serif" font-size="12.00">Weak Sobolev domains and</text>
<text text-anchor="middle" x="103" y="-12.4" font-family="sans-serif" font-size="12.00">collision capacity</text>
</g>
<!-- WeakSobolev&#45;&gt;NonQuadratic -->
<g id="edge7" class="edge">
<title>WeakSobolev&#45;&gt;NonQuadratic</title>
<path fill="none" stroke="#64748b" d="M187.77,-44.07C194.2,-47.25 200.37,-50.87 206,-55 257.4,-92.67 294.91,-159.69 312.44,-195.63"/>
<polygon fill="#64748b" stroke="#64748b" points="310.24,-196.71 315.48,-201.97 314.66,-194.6 310.24,-196.71"/>
</g>
</g>
</svg>
