<?xml version="1.0" encoding="UTF-8" standalone="no"?>
<!DOCTYPE svg PUBLIC "-//W3C//DTD SVG 1.1//EN"
 "http://www.w3.org/Graphics/SVG/1.1/DTD/svg11.dtd">
<!-- Generated by graphviz version 2.42.4 (0)
 -->
<!-- Title: dependencies Pages: 1 -->
<svg width="441pt" height="479pt"
 viewBox="0.00 0.00 440.70 479.20" xmlns="http://www.w3.org/2000/svg" xmlns:xlink="http://www.w3.org/1999/xlink">
<g id="graph0" class="graph" transform="scale(1 1) rotate(0) translate(21.6 457.6)">
<title>dependencies</title>
<!-- ComplexGaussianHermite -->
<g id="node1" class="node">
<title>ComplexGaussianHermite</title>
<path fill="#f8fafc" stroke="#64748b" d="M385.5,-436C385.5,-436 203.5,-436 203.5,-436 197.5,-436 191.5,-430 191.5,-424 191.5,-424 191.5,-404 191.5,-404 191.5,-398 197.5,-392 203.5,-392 203.5,-392 385.5,-392 385.5,-392 391.5,-392 397.5,-398 397.5,-404 397.5,-404 397.5,-424 397.5,-424 397.5,-430 391.5,-436 385.5,-436"/>
<text text-anchor="middle" x="294.5" y="-417.4" font-family="sans-serif" font-size="12.00">Complex Gaussian and Hermite</text>
<text text-anchor="middle" x="294.5" y="-404.4" font-family="sans-serif" font-size="12.00">analysis</text>
</g>
<!-- GaussianLSI -->
<g id="node2" class="node">
<title>GaussianLSI</title>
<path fill="#f8fafc" stroke="#64748b" d="M309.5,-356C309.5,-356 159.5,-356 159.5,-356 153.5,-356 147.5,-350 147.5,-344 147.5,-344 147.5,-324 147.5,-324 147.5,-318 153.5,-312 159.5,-312 159.5,-312 309.5,-312 309.5,-312 315.5,-312 321.5,-318 321.5,-324 321.5,-324 321.5,-344 321.5,-344 321.5,-350 315.5,-356 309.5,-356"/>
<text text-anchor="middle" x="234.5" y="-337.4" font-family="sans-serif" font-size="12.00">Gaussian log&#45;Sobolev and</text>
<text text-anchor="middle" x="234.5" y="-324.4" font-family="sans-serif" font-size="12.00">entropy</text>
</g>
<!-- ComplexGaussianHermite&#45;&gt;GaussianLSI -->
<!-- StochasticCalculus -->
<g id="node6" class="node">
<title>StochasticCalculus</title>
<path fill="#dbeafe" stroke="#2563eb" stroke-width="2" d="M318.5,-44C318.5,-44 208.5,-44 208.5,-44 202.5,-44 196.5,-38 196.5,-32 196.5,-32 196.5,-12 196.5,-12 196.5,-6 202.5,0 208.5,0 208.5,0 318.5,0 318.5,0 324.5,0 330.5,-6 330.5,-12 330.5,-12 330.5,-32 330.5,-32 330.5,-38 324.5,-44 318.5,-44"/>
<text text-anchor="middle" x="263.5" y="-25.4" font-family="sans-serif" font-size="12.00">Stochastic calculus</text>
<text text-anchor="middle" x="263.5" y="-12.4" font-family="sans-serif" font-size="12.00">foundations</text>
</g>
<!-- ComplexGaussianHermite&#45;&gt;StochasticCalculus -->
<g id="edge1" class="edge">
<title>ComplexGaussianHermite&#45;&gt;StochasticCalculus</title>
<path fill="none" stroke="#64748b" d="M311.28,-391.88C318.74,-381.57 327.05,-368.67 332.5,-356 350.68,-313.7 355.5,-301.04 355.5,-255 355.5,-255 355.5,-255 355.5,-177 355.5,-126.28 318.26,-77.76 291.17,-49.18"/>
<polygon fill="#64748b" stroke="#64748b" points="292.87,-47.41 286.24,-44.08 289.34,-50.81 292.87,-47.41"/>
</g>
<!-- PolynomialRadial -->
<g id="node3" class="node">
<title>PolynomialRadial</title>
<path fill="#f8fafc" stroke="#64748b" d="M263.5,-276C263.5,-276 135.5,-276 135.5,-276 129.5,-276 123.5,-270 123.5,-264 123.5,-264 123.5,-244 123.5,-244 123.5,-238 129.5,-232 135.5,-232 135.5,-232 263.5,-232 263.5,-232 269.5,-232 275.5,-238 275.5,-244 275.5,-244 275.5,-264 275.5,-264 275.5,-270 269.5,-276 263.5,-276"/>
<text text-anchor="middle" x="199.5" y="-257.4" font-family="sans-serif" font-size="12.00">Polynomial, radial and</text>
<text text-anchor="middle" x="199.5" y="-244.4" font-family="sans-serif" font-size="12.00">equilibrium sectors</text>
</g>
<!-- GaussianLSI&#45;&gt;PolynomialRadial -->
<!-- GaussianLSI&#45;&gt;StochasticCalculus -->
<g id="edge2" class="edge">
<title>GaussianLSI&#45;&gt;StochasticCalculus</title>
<path fill="none" stroke="#64748b" d="M260.75,-311.93C270.83,-302.19 281.17,-289.74 286.5,-276 316.43,-198.78 290.08,-98.73 273.91,-50.88"/>
<polygon fill="#64748b" stroke="#64748b" points="276.21,-50.03 271.61,-44.21 271.58,-51.63 276.21,-50.03"/>
</g>
<!-- StochasticDynamics -->
<g id="node4" class="node">
<title>StochasticDynamics</title>
<path fill="#f8fafc" stroke="#64748b" d="M217.5,-196C217.5,-196 55.5,-196 55.5,-196 49.5,-196 43.5,-190 43.5,-184 43.5,-184 43.5,-172 43.5,-172 43.5,-166 49.5,-160 55.5,-160 55.5,-160 217.5,-160 217.5,-160 223.5,-160 229.5,-166 229.5,-172 229.5,-172 229.5,-184 229.5,-184 229.5,-190 223.5,-196 217.5,-196"/>
<text text-anchor="middle" x="136.5" y="-174.9" font-family="sans-serif" font-size="12.00">Ginibre stochastic dynamics</text>
</g>
<!-- PolynomialRadial&#45;&gt;StochasticDynamics -->
<!-- PolynomialRadial&#45;&gt;StochasticCalculus -->
<g id="edge3" class="edge">
<title>PolynomialRadial&#45;&gt;StochasticCalculus</title>
<path fill="none" stroke="#64748b" d="M218.62,-231.76C226.68,-221.63 235.37,-208.92 240.5,-196 259.7,-147.62 263.49,-86.27 263.9,-51.14"/>
<polygon fill="#64748b" stroke="#64748b" points="266.36,-51.07 263.95,-44.06 261.46,-51.05 266.36,-51.07"/>
</g>
<!-- WeakSobolev -->
<g id="node5" class="node">
<title>WeakSobolev</title>
<path fill="#f8fafc" stroke="#64748b" d="M171,-124C171,-124 12,-124 12,-124 6,-124 0,-118 0,-112 0,-112 0,-92 0,-92 0,-86 6,-80 12,-80 12,-80 171,-80 171,-80 177,-80 183,-86 183,-92 183,-92 183,-112 183,-112 183,-118 177,-124 171,-124"/>
<text text-anchor="middle" x="91.5" y="-105.4" font-family="sans-serif" font-size="12.00">Weak Sobolev domains and</text>
<text text-anchor="middle" x="91.5" y="-92.4" font-family="sans-serif" font-size="12.00">collision capacity</text>
</g>
<!-- StochasticDynamics&#45;&gt;WeakSobolev -->
<!-- StochasticDynamics&#45;&gt;StochasticCalculus -->
<g id="edge4" class="edge">
<title>StochasticDynamics&#45;&gt;StochasticCalculus</title>
<path fill="none" stroke="#64748b" d="M157.04,-159.83C168.37,-149.91 182.35,-136.87 193.5,-124 213.84,-100.52 233.69,-71.07 247.03,-50.04"/>
<polygon fill="#64748b" stroke="#64748b" points="249.13,-51.3 250.78,-44.07 244.98,-48.69 249.13,-51.3"/>
</g>
<!-- WeakSobolev&#45;&gt;StochasticCalculus -->
<g id="edge5" class="edge">
<title>WeakSobolev&#45;&gt;StochasticCalculus</title>
<path fill="none" stroke="#64748b" d="M138.05,-79.89C160.42,-69.75 187.34,-57.54 210.49,-47.04"/>
<polygon fill="#64748b" stroke="#64748b" points="211.55,-49.25 216.92,-44.12 209.53,-44.78 211.55,-49.25"/>
</g>
</g>
</svg>
