<?xml version="1.0" encoding="UTF-8" standalone="no"?>
<!DOCTYPE svg PUBLIC "-//W3C//DTD SVG 1.1//EN"
 "http://www.w3.org/Graphics/SVG/1.1/DTD/svg11.dtd">
<!-- Generated by graphviz version 2.42.4 (0)
 -->
<!-- Title: dependencies Pages: 1 -->
<svg width="441pt" height="499pt"
 viewBox="0.00 0.00 440.70 499.20" xmlns="http://www.w3.org/2000/svg" xmlns:xlink="http://www.w3.org/1999/xlink">
<g id="graph0" class="graph" transform="scale(1 1) rotate(0) translate(21.6 477.6)">
<title>dependencies</title>
<text text-anchor="middle" x="198.75" y="-7.2" font-family="sans-serif" font-size="11.00">Source imports — see independent statement review</text>
<!-- ComplexGaussianHermite -->
<g id="node1" class="node">
<title>ComplexGaussianHermite</title>
<path fill="#f8fafc" stroke="#64748b" d="M385.5,-456C385.5,-456 203.5,-456 203.5,-456 197.5,-456 191.5,-450 191.5,-444 191.5,-444 191.5,-424 191.5,-424 191.5,-418 197.5,-412 203.5,-412 203.5,-412 385.5,-412 385.5,-412 391.5,-412 397.5,-418 397.5,-424 397.5,-424 397.5,-444 397.5,-444 397.5,-450 391.5,-456 385.5,-456"/>
<text text-anchor="middle" x="294.5" y="-437.4" font-family="sans-serif" font-size="12.00">Complex Gaussian and Hermite</text>
<text text-anchor="middle" x="294.5" y="-424.4" font-family="sans-serif" font-size="12.00">analysis</text>
</g>
<!-- GaussianLSI -->
<g id="node2" class="node">
<title>GaussianLSI</title>
<path fill="#f8fafc" stroke="#64748b" d="M309.5,-376C309.5,-376 159.5,-376 159.5,-376 153.5,-376 147.5,-370 147.5,-364 147.5,-364 147.5,-344 147.5,-344 147.5,-338 153.5,-332 159.5,-332 159.5,-332 309.5,-332 309.5,-332 315.5,-332 321.5,-338 321.5,-344 321.5,-344 321.5,-364 321.5,-364 321.5,-370 315.5,-376 309.5,-376"/>
<text text-anchor="middle" x="234.5" y="-357.4" font-family="sans-serif" font-size="12.00">Gaussian log&#45;Sobolev and</text>
<text text-anchor="middle" x="234.5" y="-344.4" font-family="sans-serif" font-size="12.00">entropy</text>
</g>
<!-- ComplexGaussianHermite&#45;&gt;GaussianLSI -->
<!-- StochasticCalculus -->
<g id="node6" class="node">
<title>StochasticCalculus</title>
<path fill="#dbeafe" stroke="#2563eb" stroke-width="2" d="M318.5,-64C318.5,-64 208.5,-64 208.5,-64 202.5,-64 196.5,-58 196.5,-52 196.5,-52 196.5,-32 196.5,-32 196.5,-26 202.5,-20 208.5,-20 208.5,-20 318.5,-20 318.5,-20 324.5,-20 330.5,-26 330.5,-32 330.5,-32 330.5,-52 330.5,-52 330.5,-58 324.5,-64 318.5,-64"/>
<text text-anchor="middle" x="263.5" y="-45.4" font-family="sans-serif" font-size="12.00">Stochastic calculus</text>
<text text-anchor="middle" x="263.5" y="-32.4" font-family="sans-serif" font-size="12.00">foundations</text>
</g>
<!-- ComplexGaussianHermite&#45;&gt;StochasticCalculus -->
<g id="edge1" class="edge">
<title>ComplexGaussianHermite&#45;&gt;StochasticCalculus</title>
<path fill="none" stroke="#64748b" d="M311.28,-411.88C318.74,-401.57 327.05,-388.67 332.5,-376 350.68,-333.7 355.5,-321.04 355.5,-275 355.5,-275 355.5,-275 355.5,-197 355.5,-146.28 318.26,-97.76 291.17,-69.18"/>
<polygon fill="#64748b" stroke="#64748b" points="292.87,-67.41 286.24,-64.08 289.34,-70.81 292.87,-67.41"/>
</g>
<!-- PolynomialRadial -->
<g id="node3" class="node">
<title>PolynomialRadial</title>
<path fill="#f8fafc" stroke="#64748b" d="M263.5,-296C263.5,-296 135.5,-296 135.5,-296 129.5,-296 123.5,-290 123.5,-284 123.5,-284 123.5,-264 123.5,-264 123.5,-258 129.5,-252 135.5,-252 135.5,-252 263.5,-252 263.5,-252 269.5,-252 275.5,-258 275.5,-264 275.5,-264 275.5,-284 275.5,-284 275.5,-290 269.5,-296 263.5,-296"/>
<text text-anchor="middle" x="199.5" y="-277.4" font-family="sans-serif" font-size="12.00">Polynomial, radial and</text>
<text text-anchor="middle" x="199.5" y="-264.4" font-family="sans-serif" font-size="12.00">equilibrium sectors</text>
</g>
<!-- GaussianLSI&#45;&gt;PolynomialRadial -->
<!-- GaussianLSI&#45;&gt;StochasticCalculus -->
<g id="edge2" class="edge">
<title>GaussianLSI&#45;&gt;StochasticCalculus</title>
<path fill="none" stroke="#64748b" d="M260.75,-331.93C270.83,-322.19 281.17,-309.74 286.5,-296 316.43,-218.78 290.08,-118.73 273.91,-70.88"/>
<polygon fill="#64748b" stroke="#64748b" points="276.21,-70.03 271.61,-64.21 271.58,-71.63 276.21,-70.03"/>
</g>
<!-- StochasticDynamics -->
<g id="node4" class="node">
<title>StochasticDynamics</title>
<path fill="#f8fafc" stroke="#64748b" d="M217.5,-216C217.5,-216 55.5,-216 55.5,-216 49.5,-216 43.5,-210 43.5,-204 43.5,-204 43.5,-192 43.5,-192 43.5,-186 49.5,-180 55.5,-180 55.5,-180 217.5,-180 217.5,-180 223.5,-180 229.5,-186 229.5,-192 229.5,-192 229.5,-204 229.5,-204 229.5,-210 223.5,-216 217.5,-216"/>
<text text-anchor="middle" x="136.5" y="-194.9" font-family="sans-serif" font-size="12.00">Ginibre stochastic dynamics</text>
</g>
<!-- PolynomialRadial&#45;&gt;StochasticDynamics -->
<!-- PolynomialRadial&#45;&gt;StochasticCalculus -->
<g id="edge3" class="edge">
<title>PolynomialRadial&#45;&gt;StochasticCalculus</title>
<path fill="none" stroke="#64748b" d="M218.62,-251.76C226.68,-241.63 235.37,-228.92 240.5,-216 259.7,-167.62 263.49,-106.27 263.9,-71.14"/>
<polygon fill="#64748b" stroke="#64748b" points="266.36,-71.07 263.95,-64.06 261.46,-71.05 266.36,-71.07"/>
</g>
<!-- WeakSobolev -->
<g id="node5" class="node">
<title>WeakSobolev</title>
<path fill="#f8fafc" stroke="#64748b" d="M171,-144C171,-144 12,-144 12,-144 6,-144 0,-138 0,-132 0,-132 0,-112 0,-112 0,-106 6,-100 12,-100 12,-100 171,-100 171,-100 177,-100 183,-106 183,-112 183,-112 183,-132 183,-132 183,-138 177,-144 171,-144"/>
<text text-anchor="middle" x="91.5" y="-125.4" font-family="sans-serif" font-size="12.00">Weak Sobolev domains and</text>
<text text-anchor="middle" x="91.5" y="-112.4" font-family="sans-serif" font-size="12.00">collision capacity</text>
</g>
<!-- StochasticDynamics&#45;&gt;WeakSobolev -->
<!-- StochasticDynamics&#45;&gt;StochasticCalculus -->
<g id="edge4" class="edge">
<title>StochasticDynamics&#45;&gt;StochasticCalculus</title>
<path fill="none" stroke="#64748b" d="M157.04,-179.83C168.37,-169.91 182.35,-156.87 193.5,-144 213.84,-120.52 233.69,-91.07 247.03,-70.04"/>
<polygon fill="#64748b" stroke="#64748b" points="249.13,-71.3 250.78,-64.07 244.98,-68.69 249.13,-71.3"/>
</g>
<!-- WeakSobolev&#45;&gt;StochasticCalculus -->
<g id="edge5" class="edge">
<title>WeakSobolev&#45;&gt;StochasticCalculus</title>
<path fill="none" stroke="#64748b" d="M138.05,-99.89C160.42,-89.75 187.34,-77.54 210.49,-67.04"/>
<polygon fill="#64748b" stroke="#64748b" points="211.55,-69.25 216.92,-64.12 209.53,-64.78 211.55,-69.25"/>
</g>
</g>
</svg>
